<svg width="24" height="25" viewBox="0 0 24 25" fill="none" xmlns="http://www.w3.org/2000/svg">
<path fill-rule="evenodd" clip-rule="evenodd" d="M5.37001 2.61662C5.57397 2.59996 5.81602 2.59998 6.07034 2.60001H15.0644L20.4001 8.20251L20.4001 19.9298C20.4001 20.1841 20.4001 20.4261 20.3835 20.6301C20.3653 20.8525 20.3229 21.1076 20.193 21.3626C20.0108 21.7201 19.7202 22.0108 19.3627 22.1929C19.1077 22.3228 18.8526 22.3652 18.6302 22.3834C18.4262 22.4001 18.1842 22.4 17.9299 22.4H6.07028C5.81598 22.4 5.57396 22.4001 5.37001 22.3834C5.1476 22.3652 4.89249 22.3228 4.63752 22.1929C4.28001 22.0108 3.98935 21.7201 3.80719 21.3626C3.67727 21.1076 3.63488 20.8525 3.61671 20.6301C3.60005 20.4261 3.60007 20.1841 3.6001 19.9298V5.07025C3.60007 4.81593 3.60005 4.57388 3.61671 4.36992C3.63488 4.14751 3.67727 3.8924 3.80719 3.63743C3.98935 3.27992 4.28001 2.98926 4.63752 2.8071C4.89249 2.67718 5.1476 2.63479 5.37001 2.61662ZM5.40009 4.49981C5.40009 4.44458 5.44486 4.39981 5.50009 4.39981H13.1001V9.4002H18.6001V20.4998C18.6001 20.555 18.5553 20.5998 18.5001 20.5998H5.50009C5.44486 20.5998 5.40009 20.555 5.40009 20.4998V4.49981ZM14.9001 7.6002V5.03731L17.3409 7.6002H14.9001Z" fill="#171719"/>
<path d="M12.5001 15.8004H7.50012V14.0004H12.5001V15.8004Z" fill="#171719"/>
<path d="M7.50012 18.8004H12.5001V17.0004H7.50012V18.8004Z" fill="#171719"/>
</svg>
