<svg width="53" height="26" viewBox="0 0 53 26" fill="none" xmlns="http://www.w3.org/2000/svg">
<path d="M35.1531 25.978C33.1745 25.978 31.7091 25.5673 30.7571 24.746C29.8238 23.9433 29.3571 22.6926 29.3571 20.994C29.3571 19.2953 29.8238 18.054 30.7571 17.27C31.7091 16.486 33.1745 16.094 35.1531 16.094H46.4091C48.3878 16.094 49.8438 16.486 50.7771 17.27C51.7291 18.054 52.2051 19.2953 52.2051 20.994C52.2051 22.6926 51.7291 23.9433 50.7771 24.746C49.8438 25.5673 48.3878 25.978 46.4091 25.978H35.1531ZM37.3651 3.24197V4.27797C37.3651 5.19264 37.5425 6.03264 37.8971 6.79797C38.2518 7.54464 38.7091 8.20731 39.2691 8.78597C39.8478 9.36464 40.5011 9.85931 41.2291 10.27C41.9758 10.6806 42.7411 10.998 43.5251 11.222L41.9291 13.742C40.8091 13.462 39.7078 12.9393 38.6251 12.174C37.5611 11.4086 36.5998 10.4006 35.7411 9.14997C34.9571 10.382 33.9958 11.4553 32.8571 12.37C31.7185 13.2846 30.4491 14.0126 29.0491 14.554L27.4531 12.174C28.4238 11.782 29.3011 11.334 30.0851 10.83C30.8878 10.3073 31.5691 9.72864 32.1291 9.09397C32.6891 8.44064 33.1185 7.73131 33.4171 6.96597C33.7345 6.18197 33.8931 5.32331 33.8931 4.38997V3.24197H28.5451V0.385973H42.6851V3.24197H37.3651ZM51.6731 0.0219727V15.114H48.2291V8.42197H42.3211V5.56597H48.2291V0.0219727H51.6731ZM32.7451 20.994C32.7451 21.666 32.9505 22.198 33.3611 22.59C33.7718 23.0006 34.5558 23.206 35.7131 23.206H45.8491C46.9878 23.206 47.7625 23.0006 48.1731 22.59C48.6025 22.198 48.8171 21.666 48.8171 20.994C48.8171 20.322 48.6025 19.7993 48.1731 19.426C47.7625 19.0526 46.9878 18.866 45.8491 18.866H35.7131C34.5558 18.866 33.7718 19.0526 33.3611 19.426C32.9505 19.7993 32.7451 20.322 32.7451 20.994Z" fill="#111111"/>
<path d="M7.672 25.978C5.69333 25.978 4.228 25.6046 3.276 24.858C2.34267 24.1113 1.876 22.9166 1.876 21.274C1.876 19.6313 2.34267 18.4553 3.276 17.746C4.228 17.018 5.69333 16.654 7.672 16.654H18.956C20.9347 16.654 22.3907 17.018 23.324 17.746C24.276 18.4553 24.752 19.6313 24.752 21.274C24.752 22.9166 24.276 24.1113 23.324 24.858C22.3907 25.6046 20.9347 25.978 18.956 25.978H7.672ZM10.164 7.24597C10.3693 7.89931 10.668 8.50597 11.06 9.06597C11.4707 9.60731 11.9373 10.0926 12.46 10.522C12.9827 10.9513 13.552 11.3246 14.168 11.642C14.784 11.9406 15.4187 12.1833 16.072 12.37L14.476 14.89C13.356 14.61 12.2547 14.0873 11.172 13.322C10.108 12.5566 9.14667 11.5486 8.288 10.298C7.504 11.53 6.54267 12.6033 5.404 13.518C4.26533 14.4326 2.996 15.1606 1.596 15.702L0 13.322C1.64267 12.65 3.00533 11.8193 4.088 10.83C5.18933 9.84064 5.908 8.64597 6.244 7.24597H1.12V4.38997H15.204V7.24597H10.164ZM24.22 0.0219727V15.674H20.776V10.802H16.268V7.94597H20.776V0.0219727H24.22ZM5.264 21.274C5.264 21.5913 5.30133 21.8713 5.376 22.114C5.46933 22.3566 5.61867 22.5526 5.824 22.702C6.048 22.87 6.33733 22.9913 6.692 23.066C7.06533 23.1593 7.54133 23.206 8.12 23.206H18.508C19.0867 23.206 19.5533 23.1593 19.908 23.066C20.2813 22.9913 20.5707 22.87 20.776 22.702C21 22.5526 21.1493 22.3566 21.224 22.114C21.3173 21.8713 21.364 21.5913 21.364 21.274C21.364 20.9566 21.3173 20.686 21.224 20.462C21.1493 20.2193 21 20.0233 20.776 19.874C20.5707 19.7246 20.2813 19.6126 19.908 19.538C19.5533 19.4633 19.0867 19.426 18.508 19.426H8.12C7.54133 19.426 7.06533 19.4633 6.692 19.538C6.33733 19.6126 6.048 19.7246 5.824 19.874C5.61867 20.0233 5.46933 20.2193 5.376 20.462C5.30133 20.686 5.264 20.9566 5.264 21.274ZM3.864 2.96197V0.105973H12.74V2.96197H3.864Z" fill="#111111"/>
</svg>
