<svg width="28" height="29" viewBox="0 0 28 29" fill="none" xmlns="http://www.w3.org/2000/svg">
<path fill-rule="evenodd" clip-rule="evenodd" d="M13.9997 2.95001C7.6208 2.95001 2.44971 8.12112 2.44971 14.5C2.44971 20.8789 7.6208 26.05 13.9997 26.05C20.3785 26.05 25.5496 20.8789 25.5496 14.5C25.5496 8.12112 20.3785 2.95001 13.9997 2.95001ZM13.9997 5.05001C8.78059 5.05001 4.5497 9.28092 4.5497 14.5C4.5497 19.7191 8.78059 23.95 13.9997 23.95C19.2187 23.95 23.4496 19.7191 23.4496 14.5C23.4496 9.28092 19.2187 5.05001 13.9997 5.05001ZM12.833 9.83335C12.833 9.18901 13.3553 8.66668 13.9997 8.66668C14.644 8.66668 15.1663 9.18901 15.1663 9.83335C15.1663 10.4777 14.644 11 13.9997 11C13.3553 11 12.833 10.4777 12.833 9.83335ZM12.9497 12.75V20.3333H15.0497V12.75H12.9497Z" fill="#767676"/>
</svg>
