<svg width="28" height="29" viewBox="0 0 28 29" fill="none" xmlns="http://www.w3.org/2000/svg">
<path d="M16.9166 4.11682C16.3367 4.11682 15.8666 4.58692 15.8666 5.16682C15.8666 5.74672 16.3367 6.21682 16.9166 6.21682H20.7983L9.75747 17.2577C9.34742 17.6677 9.34742 18.3326 9.75747 18.7426C10.1675 19.1527 10.8323 19.1527 11.2424 18.7426L22.2832 7.70175V11.5835C22.2832 12.1634 22.7533 12.6335 23.3332 12.6335C23.9131 12.6335 24.3832 12.1634 24.3832 11.5835V5.16682C24.3832 4.58692 23.9131 4.11682 23.3332 4.11682H16.9166Z" fill="#246BEB"/>
<path d="M24.3638 22.8186C24.3833 22.5807 24.3833 22.2983 24.3832 22.0016L24.3832 16.8335L22.2833 16.8344V22.6677C22.2833 22.7322 22.231 22.7844 22.1666 22.7844H5.83335C5.76891 22.7844 5.71668 22.7322 5.71668 22.6677V6.3344C5.71668 6.26997 5.76891 6.21773 5.83334 6.21773H11.6667L11.6666 4.11683L6.49857 4.11683C6.20186 4.1168 5.91948 4.11677 5.68152 4.13621C5.42205 4.15741 5.12442 4.20686 4.82695 4.35843C4.40986 4.57095 4.07075 4.91006 3.85823 5.32715C3.70666 5.62462 3.65721 5.92225 3.63601 6.18173C3.61657 6.41968 3.6166 6.70207 3.61663 6.99878V22.0015C3.6166 22.2983 3.61657 22.5806 3.63601 22.8186C3.65721 23.0781 3.70666 23.3757 3.85823 23.6732C4.07075 24.0903 4.40986 24.4294 4.82695 24.6419C5.12442 24.7935 5.42205 24.8429 5.68153 24.8641C5.91946 24.8836 6.20182 24.8835 6.49851 24.8835H21.5013C21.798 24.8835 22.0804 24.8836 22.3183 24.8641C22.5778 24.8429 22.8754 24.7935 23.1729 24.6419C23.59 24.4294 23.9291 24.0903 24.1416 23.6732C24.2932 23.3757 24.3426 23.0781 24.3638 22.8186Z" fill="#246BEB"/>
</svg>
