<?xml version="1.0" encoding="UTF-8"?>
<svg id="_레이어_2" data-name="레이어 2" xmlns="http://www.w3.org/2000/svg" viewBox="0 0 147.55 38.01">
  <defs>
    <style>
      .cls-1 {
        fill: #e8380d;
      }

      .cls-1, .cls-2 {
        fill-rule: evenodd;
      }

      .cls-2 {
        fill: #231815;
      }
    </style>
  </defs>
  <path class="cls-1" d="M19.57,20.15c8.89-1.73,13.87,3.21,16.45,7.58,1.36-2.61,2.13-5.58,2.13-8.73,0-1.27-.12-2.5-.36-3.7-19.71-3.39-25.93,11.54-27.88,20.37,2.72,1.48,5.84,2.33,9.16,2.33,5.29,0,10.08-2.15,13.54-5.62-3.89-11.99-13.04-12.24-13.04-12.24h0Z"/>
  <path class="cls-1" d="M31.43,4.52c-3.44,5.96-8.25,8.74-8.25,8.74,2.68-3.22,4.01-7.77,4.66-11.15-2.62-1.36-5.6-2.12-8.77-2.12C12.35,0,6.44,3.47,3.04,8.7c2.77,2.35,9,6.25,19.16,5.22,0,0-10.9,1.91-21.27-.81-.61,1.85-.94,3.83-.94,5.89,0,4.97,1.92,9.49,5.05,12.88,5.51-18.34,27.02-19.44,31.94-19.45-1.15-3.09-3.08-5.81-5.55-7.91h0ZM18.47,12.85c-1.76,0-3.19-1.41-3.19-3.14s1.43-3.15,3.19-3.15,3.19,1.41,3.19,3.15-1.43,3.14-3.19,3.14h0Z"/>
  <path class="cls-2" d="M137.76,13.01c0,1.9.52,3.52,1.57,4.87,1.05,1.35,3.12,2.04,4.47,2.28l-1.63,1.4c-1.09-.09-3.03-.43-4.1-1.25-1.07-.81-1.74-1.67-2.01-2.58-.24.91-.89,1.76-1.97,2.57-1.08.8-2.87,1.11-3.96,1.21l-1.65-1.4c1.36-.24,3.28-.89,4.33-2.24,1.04-1.35,1.56-2.97,1.56-4.85v-2.31c0-.4.03-1.5,0-1.51h3.4s0,1.11,0,1.51v2.31h0ZM144.21,8.76h3.34s-.03,19.82,0,19.85h-3.34s.03-19.83,0-19.85h0Z"/>
  <path class="cls-2" d="M74.56,11.09s-5.88-.01-5.89,0v-1.83h15.17v1.83s-5.89,0-5.89,0v.13c0,1.44.79,2.71,2.38,3.81,1.59,1.1,3.22,1.66,4.92,1.67l-1.78,1.51c-1.41,0-2.68-.45-4.21-1.13-1.52-.68-2.53-1.49-3-2.43-.46.95-1.45,1.76-2.98,2.44-1.52.67-3,1.01-4.43,1.01l-1.58-1.4c1.71-.02,3.35-.57,4.93-1.66,1.58-1.09,2.37-2.37,2.37-3.82v-.13h0ZM74.58,21.51h-7.92v-1.83s17.78,0,17.78,0c.34,0,1.39.01,1.41,0v1.83h-7.93s-.03,6.85,0,6.88h-3.35s0-6.88,0-6.88h0Z"/>
  <path class="cls-2" d="M117.82,18.48c.73-.31,1.36-.72,1.89-1.24h4.26v2.31h3.35s-.03-10.77,0-10.79h-3.35s0,1.9,0,1.9h-4.08c-.51-.59-1.15-1.06-1.92-1.39-.78-.34-1.61-.51-2.5-.51-1.57,0-2.9.5-4.01,1.49-1.11.99-1.66,2.19-1.66,3.6s.55,2.59,1.66,3.59c1.11,1,2.44,1.5,4.01,1.5.83,0,1.62-.16,2.36-.46h0ZM121.09,13.14c-.04-.23-.09-.45-.17-.67h3.03v2.95h-3.1c.1-.24.17-.5.22-.77.04-.26.07-.54.07-.81,0-.24-.02-.48-.06-.71h0ZM113.83,16.15c-.46-.64-.7-1.4-.7-2.3s.23-1.66.7-2.3c.46-.64,1-.96,1.63-.96s1.19.32,1.65.96c.47.64.69,1.4.69,2.3s-.23,1.66-.69,2.3c-.46.64-1.01.96-1.65.96s-1.17-.32-1.63-.96h0Z"/>
  <path class="cls-2" d="M127.31,23.14c-.04-1.16-1.02-2.09-2.23-2.09h-12.61v1.84s11.49,0,11.49,0c0,0,.03,5.69,0,5.72h3.35s0-3.24,0-5.46h0Z"/>
  <path class="cls-2" d="M96.1,11.02v2.44c0,.58-.03,1.14-.09,1.7-.07.56-.18,1.05-.36,1.47h2.9c.24-.24.45-.7.63-1.37.18-.67.27-1.3.27-1.89v-2.03c0-1.19-1-2.16-2.23-2.16h-8.9v1.83s7.79,0,7.79,0h0Z"/>
  <path class="cls-2" d="M104.49,12.71s-.03-3.93,0-3.95h-3.35s0,8.26,0,8.26c-.42.14-.94.27-1.58.37-.63.1-1.35.15-2.16.15h-3.59s-.02-4.32,0-4.34h-3.17s0,4.34,0,4.34c0,0-3.09.01-3.12,0v1.83h9.75c.74,0,1.46-.08,2.14-.23.68-.15,1.26-.33,1.72-.55v1.79h3.35v-5.85s3.33-.01,3.34,0v-1.84s-3.34,0-3.34,0h0Z"/>
  <path class="cls-2" d="M102.2,21.54c-1.18-.89-2.6-1.33-4.27-1.33s-3.11.44-4.29,1.33c-1.18.89-1.77,1.97-1.77,3.25s.59,2.35,1.77,3.24c1.18.89,2.61,1.34,4.29,1.34s3.1-.45,4.27-1.34c1.18-.89,1.78-1.98,1.78-3.24s-.59-2.37-1.78-3.25h0ZM99.87,26.68c-.53.55-1.19.83-1.94.83s-1.42-.28-1.95-.83c-.54-.55-.8-1.18-.8-1.9s.26-1.37.8-1.93c.53-.56,1.18-.84,1.95-.84s1.41.28,1.94.84c.54.56.8,1.2.8,1.93s-.26,1.34-.8,1.9h0Z"/>
  <path class="cls-2" d="M55.31,10.85v2.44c0,.58-.03,1.14-.09,1.7-.06.56-.18,1.05-.36,1.47h2.9c.24-.24.45-.7.63-1.37.18-.67.27-1.3.27-1.89v-2.03c0-1.19-1-2.16-2.23-2.16h-8.64v1.83s7.52,0,7.52,0h0Z"/>
  <path class="cls-2" d="M63.7,12.53s-.03-3.93,0-3.95h-3.35s0,8.26,0,8.26c-.42.14-.94.27-1.57.37-.63.1-1.35.15-2.15.15h-3.59s-.01-4.32,0-4.34h-3.17s0,4.34,0,4.34c0,0-2.83.01-2.86,0v1.83h9.48c.75,0,1.46-.08,2.14-.23.69-.15,1.26-.33,1.72-.55v1.79h3.35v-5.85s3.33-.01,3.35,0v-1.84s-3.35,0-3.35,0h0Z"/>
  <path class="cls-2" d="M61.41,21.36c-1.18-.89-2.61-1.33-4.28-1.33s-3.1.44-4.28,1.33c-1.18.88-1.77,1.97-1.77,3.25s.59,2.35,1.77,3.24c1.18.89,2.61,1.34,4.28,1.34s3.1-.45,4.28-1.34c1.18-.89,1.77-1.97,1.77-3.24s-.59-2.37-1.77-3.25h0ZM59.08,26.51c-.54.55-1.19.83-1.95.83s-1.42-.28-1.95-.83c-.54-.55-.8-1.18-.8-1.9s.27-1.37.8-1.93c.53-.56,1.18-.84,1.95-.84s1.41.28,1.95.84c.53.56.8,1.2.8,1.93s-.27,1.34-.8,1.9h0Z"/>
</svg>