<?xml version="1.0" encoding="UTF-8"?>
<svg id="_레이어_2" data-name="레이어 2" xmlns="http://www.w3.org/2000/svg" viewBox="0 0 165.73 58.19">
  <defs>
    <style>
      .cls-1 {
        fill: #231815;
      }

      .cls-2 {
        fill: #ea5529;
      }

      .cls-3 {
        fill: #00a161;
      }

      .cls-4 {
        fill: #004ea2;
      }

      .cls-5 {
        fill: #f6ab00;
      }
    </style>
  </defs>
  <g>
    <path class="cls-1" d="M79.79,51.55c-1.65.49-2.87.52-3.77.52-2.59,0-5.59-1.54-5.59-5.87s2.58-5.97,6.15-5.97c.64,0,2,.08,2.94.51l-.21,2.49c-.81-.56-1.76-.74-2.37-.74-2.11,0-3.84,1.03-3.84,3.71,0,2.25,1.35,3.61,3.25,3.61.35,0,.68-.07.92-.2v-2.27h-1.52v-2.17h4.03v6.37Z"/>
    <path class="cls-1" d="M84.35,47.56l-3.6-7.14h2.98l1.91,4.59,1.88-4.59h2.98l-3.57,7.14v4.32h-2.59v-4.32Z"/>
    <path class="cls-1" d="M91.37,40.42h6.86v2.17h-4.27v2.36h4.03v2.17h-4.03v2.59h4.42v2.17h-7.02v-11.45Z"/>
    <path class="cls-1" d="M102.14,46.15c0-1.99.63-3.66,2.2-3.66s2.2,1.67,2.2,3.66-.63,3.66-2.2,3.66-2.2-1.77-2.2-3.66ZM99.46,46.15c0,3.64,1.7,5.92,4.88,5.92s4.88-2.28,4.88-5.92-1.67-5.92-4.88-5.92-4.88,2.25-4.88,5.92Z"/>
    <path class="cls-1" d="M110.57,40.42h3.31l3.29,7.78h.03l-.04-7.78h2.37v11.46h-3.22l-3.4-7.83h-.03l.08,7.83h-2.39v-11.46Z"/>
    <path class="cls-1" d="M130.24,51.55c-1.65.49-2.87.52-3.77.52-2.59,0-5.59-1.54-5.59-5.87s2.58-5.97,6.15-5.97c.64,0,2,.08,2.94.51l-.21,2.49c-.81-.56-1.76-.74-2.37-.74-2.11,0-3.83,1.03-3.83,3.71,0,2.25,1.35,3.61,3.25,3.61.35,0,.68-.07.92-.2v-2.27h-1.52v-2.17h4.03v6.37Z"/>
    <path class="cls-1" d="M132,40.42h3.31l3.29,7.78h.03l-.04-7.78h2.37v11.46h-3.22l-3.4-7.83h-.03l.08,7.83h-2.39v-11.46Z"/>
    <path class="cls-1" d="M148.32,47.26h-2.44l1.25-4.48h.03l1.16,4.48ZM141.87,51.88h2.63l.77-2.45h3.65l.73,2.45h2.85l-3.75-11.46h-3.18l-3.7,11.46Z"/>
    <path class="cls-1" d="M153.31,40.42h4.09l2.06,7.61h.03l2.16-7.61h3.93v11.46s-2.54,0-2.54,0l.04-8.8h-.03l-2.48,8.8h-2.39l-2.37-8.8h-.03l.06,8.8h-2.54v-11.46Z"/>
  </g>
  <g>
    <g>
      <polygon class="cls-1" points="134.43 17.63 125.77 17.63 125.77 9.53 122.29 9.53 122.29 20.38 134.43 20.38 134.43 17.63"/>
      <polygon class="cls-1" points="86.47 22.06 89.96 22.06 89.96 9.18 86.47 9.18 86.47 11.66 82.72 11.66 82.72 14.41 86.47 14.41 86.47 16.21 82.72 16.21 82.72 18.96 86.47 18.96 86.47 22.06"/>
      <polygon class="cls-1" points="158.15 29.44 158.15 22.79 164.04 22.79 164.04 20.05 151.47 20.05 151.47 12.74 164.04 12.74 164.04 10 147.99 10 147.99 22.79 154.66 22.79 154.66 29.44 146.3 29.44 146.3 32.19 165.73 32.19 165.73 29.44 158.15 29.44"/>
      <polygon class="cls-1" points="139.97 9.18 136.49 9.18 136.49 21.67 139.97 21.67 139.97 15.86 143.02 15.86 143.02 13.11 139.97 13.11 139.97 9.18"/>
      <path class="cls-1" d="M126.2,23.21v10.05h13.77v-10.05h-13.77ZM129.69,30.52v-4.55h6.8v4.55h-6.8Z"/>
      <path class="cls-1" d="M82.59,21.73c-3.87,0-7,2.84-7,6.35s3.14,6.34,7,6.34,7.01-2.84,7.01-6.34-3.14-6.35-7.01-6.35ZM82.59,31.49c-1.87,0-3.39-1.52-3.39-3.4s1.52-3.4,3.39-3.4,3.39,1.53,3.39,3.4-1.52,3.4-3.39,3.4Z"/>
      <path class="cls-1" d="M106.97,21.73c-3.87,0-7,2.84-7,6.35s3.14,6.34,7,6.34,7.01-2.84,7.01-6.34-3.14-6.35-7.01-6.35ZM106.97,31.49c-1.87,0-3.39-1.52-3.39-3.4s1.52-3.4,3.39-3.4,3.39,1.53,3.39,3.4-1.52,3.4-3.39,3.4Z"/>
      <path class="cls-1" d="M81.06,15.27s.93-2.44.87-5.44h-11.5v2.81h7.3s.26,5.6-7.77,6.78l1.39,2.41c2.55-.22,7.67-1.5,9.7-6.57Z"/>
    </g>
    <path class="cls-1" d="M107.47,21.11l1.42-2.34c-5.45-1.81-5.42-7.28-5.42-7.86v-1.26h-4.28v1.29c0,.5.21,6.4-5.35,8.5l1.5,2.25s3.88-1.11,6.11-4.95c1.94,3.4,6.03,4.38,6.03,4.38Z"/>
    <polygon class="cls-1" points="114.46 9.18 110.97 9.18 110.97 22.06 114.46 22.06 114.46 15.86 117.51 15.86 117.51 13.11 114.46 13.11 114.46 9.18"/>
  </g>
  <g>
    <path class="cls-2" d="M29.66,0C19.44-.19,10.35,4.91,5.01,12.78c.1.11.19.22.26.32.06.07.11.13.16.19.03,0,.06,0,.08.02.38.07.95.17,1.44.62.31.28.5.59.66.84.07.11.16.25.2.3.08.08.21.18.35.28.22.17.47.36.71.6.2.21.39.42.57.62.12.15.24.28.36.41.09.1.22.22.36.34.2.18.43.38.65.63.28.31.44.64.57.9.05.1.13.25.16.29h0c.2.23.38.47.57.7l.28.36c.05.06.17.17.28.26.22.19.48.41.72.72.18.24.33.46.47.69.11.16.2.31.3.45.23.31.37.63.48.89.06.14.12.29.18.36.05.07.16.18.27.3.19.19.42.43.62.73.21.32.34.65.44.91.04.1.08.21.12.29.04.03.09.06.13.09.26.18.67.45.95.91.16.26.27.52.35.74l.56.38c.91.61,1.29.29.85-.71l-5.12-11.67c-.44-1-.26-1.11.4-.24l7.63,10.1c.66.87,1.12.7,1.03-.39l-1.07-12.67c-.09-1.09.12-1.13.46-.1l3.69,11.96c.35,1.04.81,1.01,1.02-.06l2.07-12.33c.21-1.08.43-1.06.48.03l.53,12.61c.05,1.09.53,1.21,1.08.27l6.3-10.91c.55-.95.74-.87.43.19l-3.57,12.05c-.31,1.05.11,1.32.94.6l9.45-8.21c.82-.72.98-.57.35.32l-5.44,7.63c.28,0,.55-.02.77-.14.44-.24.7-.84,1.16-1.07.46-.22,1.05-.14,1.52-.35.46-.2.78-.75,1.25-.94.47-.19.96-.32,1.42-.49.51-.19.99-.48,1.49-.65.51-.17,1.05-.24,1.55-.4.5-.15,1.1.06,1.59-.08.53-.15.94-.72,1.45-.85.52-.13,1.08-.05,1.57-.17.53-.13,1.08-.11,1.58-.21.54-.12,1.02-.4,1.5-.49.1-.02.19-.03.29-.03C53.29,8.84,42.54.26,29.66,0Z"/>
    <path class="cls-3" d="M25.25,56.34s.01-.06.02-.08c-.02-.04-.04-.08-.07-.12-.14-.25-.33-.58-.42-1.01-.03-.16-.09-.35-.15-.55-.07-.22-.14-.47-.2-.73-.08-.34-.09-.66-.1-.92,0-.16-.01-.32-.03-.4-.07-.27-.1-.53-.14-.76-.03-.19-.05-.38-.09-.53-.03-.13-.1-.29-.16-.46-.09-.22-.19-.48-.27-.77l-.08-.28-.25-.96c-.04-.15-.11-.33-.18-.51-.08-.21-.17-.44-.24-.69-.13-.44-.11-.86-.1-1.15,0-.09,0-.2,0-.25-.05-.17-.12-.36-.2-.55-.08-.2-.16-.41-.23-.64-.02-.04-.1-.14-.15-.22-.17-.23-.4-.55-.54-.96-.04-.12-.11-.27-.2-.44-.11-.22-.24-.46-.34-.75-.08-.22-.16-.44-.25-.68l-.2-.52c-.19-.5-.15-.97-.13-1.29,0-.04,0-.09,0-.14-.05-.11-.11-.23-.19-.36-.12-.22-.25-.46-.37-.74-.03-.08-.12-.21-.21-.34-.14-.21-.32-.48-.46-.81-.11-.27-.19-.53-.27-.76-.05-.18-.11-.35-.16-.47-.09-.21-.17-.42-.25-.62-.08-.2-.16-.39-.24-.57l-.24-.53c-.11-.24-.21-.47-.32-.69-.04-.08-.14-.21-.24-.34-.16-.2-.35-.45-.51-.76-.17-.34-.26-.67-.33-.93-.02-.08-.05-.19-.07-.26-.04-.04-.09-.08-.13-.11-.24-.19-.58-.46-.81-.89-.24-.42-.3-.84-.35-1.14-.01-.08-.03-.18-.04-.23-.16-.27-.26-.54-.34-.76-.04-.11-.09-.23-.13-.31-.04-.03-.09-.06-.13-.09-.27-.18-.64-.43-.92-.86-.2-.31-.32-.62-.42-.87-.05-.13-.11-.28-.15-.34-.06-.09-.17-.2-.29-.32-.18-.18-.38-.39-.57-.66-.21-.3-.35-.61-.45-.85-.06-.13-.13-.29-.16-.34-.15-.21-.28-.41-.4-.6-.12-.18-.23-.35-.33-.49-.05-.07-.18-.18-.31-.28-.19-.17-.44-.38-.65-.65l-.3-.38c-.18-.22-.34-.43-.5-.63-.26-.31-.42-.63-.54-.89-.05-.09-.11-.22-.14-.26-.11-.13-.26-.26-.41-.39-.16-.15-.35-.32-.54-.51-.16-.17-.3-.33-.44-.49-.15-.18-.3-.35-.44-.49-.1-.1-.25-.21-.41-.34-.18-.14-.39-.3-.6-.5-.29-.28-.48-.58-.64-.82-.03-.05-.07-.1-.09-.15-.03,0-.06-.01-.09-.02-.35-.06-.87-.16-1.32-.54-.08-.07-.16-.15-.23-.22C1.33,19.32.1,23.78,0,28.53c-.29,14.95,10.75,27.47,25.22,29.4-.03-.1-.05-.2-.07-.31-.09-.52.02-.97.09-1.28Z"/>
    <path class="cls-4" d="M22.69,37.79c.05.12.13.26.22.43.13.23.28.5.41.81.19.51.16.99.14,1.31,0,.05,0,.11-.01.16l.15.38c.1.24.19.49.29.76.04.11.12.26.19.41.12.24.25.5.36.81,0-.02-.01-.03-.01-.03.02.04.1.14.15.22.18.24.42.57.56,1.01.05.16.12.33.19.51.1.24.19.5.28.77.14.45.12.87.11,1.18,0,.09,0,.2,0,.25.04.13.1.29.16.45.09.23.19.48.26.77l.26.99.07.28c.03.11.09.27.15.43.1.24.2.52.29.83.07.29.11.56.15.81.03.19.05.37.09.52.08.35.1.68.11.95,0,.16.01.32.03.41.04.15.09.32.14.51.07.23.15.49.21.76.02.04.07.14.11.21.15.25.35.6.43,1.05.11.52-.01.99-.09,1.29-.01.04-.02.1-.03.14.03.09.06.21.1.33.07.2.14.42.19.67.07,0,.14,0,.21,0,8.6.17,16.4-3.42,21.84-9.24-10.1-7.76-22.5-10.48-27.76-11.33.03.06.06.12.09.18Z"/>
    <path class="cls-5" d="M58.02,29.67c.04-2.21-.17-4.36-.6-6.44-.18.03-.36.06-.54.09-.5.09-.94.41-1.42.51-.49.1-.95.25-1.42.36-.52.12-1.04.14-1.53.27-.5.13-1.04.08-1.52.22-.48.14-.89.52-1.35.67-.51.16-1.04.2-1.52.37-.49.17-1.04.15-1.5.33-.47.19-.85.56-1.29.75-.48.21-1.02.27-1.47.48-.49.23-.86.68-1.3.92-.46.24-.92.44-1.34.68-.46.27-.95.43-1.36.69-.45.29-.76.73-1.15,1-.45.32-.79.73-1.16,1.03-.43.35-.96.51-1.3.82-.34.31-.71.52-1,.75l-.65,1.05c-.14.49-.14.85-.34.55l-1.4,2.26c5.89,1.8,12.95,4.78,19.23,9.66,3.6-4.74,5.8-10.62,5.92-17.02Z"/>
  </g>
</svg>