<?xml version="1.0" encoding="UTF-8"?>
<svg id="_레이어_2" data-name="레이어 2" xmlns="http://www.w3.org/2000/svg" viewBox="0 0 172.48 47.29">
  <defs>
    <style>
      .cls-1 {
        fill: #231815;
      }

      .cls-2 {
        fill: #c2002f;
      }

      .cls-3 {
        fill: #00943b;
      }

      .cls-4 {
        fill: #0081c8;
      }
    </style>
  </defs>
  <g>
    <path class="cls-2" d="M26.28,6.3c.09.14.21.27.22.41.13.41.52.66.56,1.08.02.14.2.2.29.26.1.13.03.28.23.48.09.06.02.21.04.35.09.06.19.12.28.19.85,1.33.94,2.88-.05,4.32-.16.16-.31.38-.37.6-.08.08-.25.16-.33.24.02.14.11.2.21.34-.43.11-.48.47-.8.71-.09,0-.26.02-.35.03-.24.24-.49.33-.74.49-.08.08-.06.29-.05.36-.41.32-1,.52-1.62.51-.08,0-.15.23-.24.23-.44.04-.97.02-1.4.06-.18-.05-.29-.18-.47-.24-.17.02-.35.03-.53-.02-.29-.19-.64-.22-.92-.34-.18-.06-.51.12-.7,0-.59-.51-1.17-1.02-1.5-1.56-.21-.33-.58-.44-.7-.78-.02-.14.05-.36-.13-.41-.37-.11-.21-.33-.24-.55-.11-.2-.13-.34-.32-.54-.11-.2.03-.5-.08-.77,0-.07.07-.15.06-.22-.13-.41.08-.86.04-1.21-.03-.21.03-.5.1-.72.22-.45.42-.96.82-1.42,0-.07-.02-.21-.03-.28.08-.08.17-.08.25-.17.14-.36.28-.66.51-.97.31-.38.8-.71,1.2-1.1.24-.23.57-.41.8-.78.08-.08.36.04.44-.04.24-.23.6-.2.84-.36.25-.16.2.19.45.1.17-.01.25-.09.42-.18.25-.1.54.09.81.13.26-.02.53.02.82.21.38.25,1.25.16,1.39.65.21.33.59.58.81.91Z"/>
    <path class="cls-4" d="M41.05,11.84c0-.22,0-.35-.09-.58-.02-.22.15-.46.07-.76-.05-.08-.16-.17-.15-.24.15-.46.16-.88.12-1.38-.04-.15-.09-.23-.14-.31.01-.07.04-.2.06-.34.01-.42-.12-.73-.25-1.11-.04-.15-.15-.24-.17-.46-.05-.08-.16-.18-.15-.25.11-.61-.18-1.1-.27-1.68-.14-.66-.77-1.08-.96-1.76,0-.07.22-.04.28-.03.49.46,1.04,1,1.17,1.67.09.23.05.44.15.6.42.51.49,1.17.57,1.82-.01.07.12.03.17.11-.01.07-.04.2.01.28.32.35.12.73.19,1.1.04.15.08.23.13.31-.01.07-.17.25-.19.31.26.34.37.79.3,1.19.3.14.16.53.23.83.05.08.11.1.17.11.09-.12.17-.24.2-.38.04-.56.06-1.04-.04-1.56-.09-.23-.11-.45.05-.62-.12-.03-.16-.18-.21-.26-.22-.89-.31-1.9-.58-2.81,0,0,.07-.05.09-.12-.09-.8-.7-1.55-.99-2.36-.04-.14-.28-.32-.39-.47,0,0,0-.07.02-.14.31.04.55.35.72.58.33.46.7.98.8,1.49.17.46.43.94.53,1.39.07.3.29.49.43.74.08.23.04.43.06.65.09.52.25,1.02.34,1.53.13.38.18.81.05,1.14-.17.6.22,1.25.38,1.77.09.23-.02.49-.12.68-.01.07.1.16.08.23-.11.26-.02.49-.07.76-.07.05.09.23,0,.35-.07.06-.13.04-.21.1-.1.19-.01.42-.05.62-.2.38-.1.89-.47,1.16-.14.04-.15.11-.22.16.06.01.11.09.16.18-.07.05-.14.04-.21.09-.02.13.24.3.29.38-.1.54-.5,1.02-.49,1.66-.03.13-.06.34-.09.47-.12.32-.36.56-.48.88-.02.14-.28.15-.31.28-.16.18-.15.46-.26.72-.09.12-.27.08-.42.19-.17.24-.15.46-.26.72-.19.31-.41.65-.59.96-.21.45-.56.88-.95,1.22-.06-.01-.2.03-.27.08-.2.38-.42.66-.84.85-.06-.01-.15.28-.23.34-.29.22-.46.46-.81.67-.13.04-.2.09-.35-.15-.46.81-1.07,1.45-1.74,2.01-.35.2-.7.18-.93.41-.76.75-1.96,1.54-2.1,1.65-.06-.01-.29.33-.29.33-.25.02-.1.04-.33,0,0,0-.01.38-.32.45-.65.13-.83.89-.87,1.2-.03.16-.13.05-.21.11-.07.06-.02.16-.1.22-.28.17-.53.52-.76.79-.07.06-.12-.03-.2.03-.07.06-.42.49-.54.87-.3.66-.62,1.25-1.03,1.72-.1.11.23.55.21.7-.09.21-.28.24-.38.45-.08.52-.11,1.09-.2,1.64-.15.54.03.92.11,1.39.08.4-.02.92,0,1.31.03.32.24.66.21.96,0,.47-.1.41,0,.8-.01.23-.09.46-.03.62-.02.31-.07.5-.09.81-.07.08-.2.22-.2.3-.05.77-.55,1.45-1.08,1.95-.33.21-.61.53-.98.5-.19-.01-.81.39-1.02.44-.55.16-1,.16-1.53.08-.59-.16-1.05-.31-1.45-.9-.24-.27-.65-.17-.81-.58-.05-.16-.39-.25-.44-.33-.31-.28-.47-.61-.7-.95-.16-.41-.04-.69-.23-1.09-.19-.24-.28-.42-.47-.66-.26-.32.06-.79-.13-1.11-.13-.08-.26-.25-.32-.41-.13-.32-.1-.78-.28-1.11-.1-.4-.04-1.85.04-2.24.02-.08-.21-.19-.2-.27.03-.56.23-1.11.18-1.69.06-.31.03-.56.31-.83,0,0-.13-.11-.12-.19.16-.45.16-.8.25-1.27.02-.08.18-.13.19-.21-.09-.35-.09-1.04-.04-1.36.03-.16.43-.39.53-.53.01-.08-.06-.28.09-.55.04-.07.14-.05.22-.11.01-.08-.04-.17-.03-.25.04-.24.44-.4.46-.56.16-.53.42-.75.7-1.19.1-.19.14-.39.31-.57.07-.05.11,0,.12-.07.01-.07-.02-.22-.01-.29.16-.18.38-.34.41-.54.11-.26.21-.45.36-.62.29-.22.58-.43.76-.75.16-.18.34-.13.5-.31.23-.23.29-.57.46-.81.4-.47.83-.8,1.27-1.13.36-.27.82-.38,1.17-.58.36-.27.58-.79.93-.99.21-.16.47-.18.69-.34.22-.16.4-.47.72-.54.72-.19.21.01.88-.26.42-.26.25-.33.67-.59.7-.41,1.06-.67,1.12-.65.07-.05.14-.11.17-.25.17-.25,1.07-.87,1.2-.91.13-.04.29.13.44-.04.08-.12-.08-.23,0-.35.23-.23.45-.54.67-.7.07-.05.25.05.38.01.07-.05.1-.19.17-.24.09-.12-.07-.3.01-.42.1-.19.2-.38.33-.42.21-.1.49-.25.46-.39.05-.27.16-.53.44-.68.01-.07.03-.14.04-.2.16-.18.31-.28.47-.46.17-.24.1-.54.2-.73.32-.35.63-.64.71-1.11-.02-.22-.16-.53-.06-.72.09-.12.36-.2.38-.34.05-.27-.09-.58-.1-.87.04-.2.26-.37.23-.58-.03-.57.01-1.13-.07-1.71.2-.03.22-.16.24-.3-.05-.43-.3-.84-.4-1.29-.01-.29.22-.52.21-.8-.03-.22-.23-.47-.46-.66-.21-.26-.07-.65-.15-.95-.06-.37-.34-.64-.38-1.07-.02-.22-.28-.2-.37-.43-.07-.3-.15-.6-.15-.95-.04-.15-.24-.12-.35-.22-.25-.41-.16-1.23-.7-1.42.05-.27-.2-.33-.29-.55.32,0,.62.13.8.53.05.08.23.12.3.14.16.18.15.6.32.71.22.19.55.12.64.35.12.38.41.58.55.89-.01.07.02.22.07.3.22.19.25.41.41.58.37.43.74.87.57,1.46-.11.26.22.19.32.35.25.41.15.95.47,1.3-.06.69.27,1.33.48,1.94-.36.55-.16,1.53.12,2.08,0,0,.2-.03.21-.09.06-.34.68-.45.58-.62-.12-.38-.31-1.17-.31-1.52.04-.56.06-1.04-.03-1.63-.05-.08-.1-.16-.15-.24-.07-.3-.15-.6-.09-.94-.04-.15-.15-.24-.18-.39.01-.07.04-.2.05-.27.14-.04.31.07.43.1.11.09.01.28.06.36.2.32.49.46.56.83-.01.07-.03.2-.05.27.05.43.31.77.37,1.14.03.22-.16.53-.07.76.28.55.3,1.19.25,1.82-.05.27.29.49.2.68-.1.19.03.22-.07.41-.01.07-.15.11-.16.18.18.39-.09.99-.16,1.33-.01.07.21.14.26-.11.03-.15.29-.15.42-.19.15-.11.26-.37.25-.65ZM42.38,13.2c.01-.35.17-.6.11-.96-.12-.38-.4,0-.6.02.11.45-.07.76-.21,1.15-.09.12-.15.46.05.43.31.07.64-.23.65-.65ZM41.86,15.05c.08-.11.04-.33-.07-.42-.17-.11-.4.05-.49.24-.1.19-.03.49.24.47.06.01.24-.17.33-.3Z"/>
    <path class="cls-4" d="M38.22,3.49c.33.25.46.67.72,1l-.03.14c-.45.39-.85-.26-.98-.64-.18-.39-.37-.79-.71-1.07.01-.07.03-.14.04-.2-.16-.18-.37-.43-.16-.53.08-.12.23.12.41.23.26.34.31.77.7,1.07Z"/>
    <path class="cls-4" d="M40.09,1.75c0,.07-.11.19-.12.25-.21-.2-.43-.4-.62-.73-.06-.02-.18-.05-.23-.13-.06-.02-.05-.08-.03-.15.2-.02.35.16.52.28.06.02.14-.03.2-.02.17.11.26.28.28.5Z"/>
    <path class="cls-3" d="M12.21,14.22c.06.05.15.13.19.19.1.07.2.07.31.02.1,0,.19.27.3.28.15.07.24.33.39.46.1.06.2.16.3.22.14.18.23.36.38.49.1.12.25.08.36.08.2.07.28.37.43.55.05,0,.14.18.14.24.1.06.19.18.34.25.05.06.04.17.08.24.37.6.86.98,1.18,1.63,0,0,.04.12.04.17.39.37.55.9.89,1.32.09.18.17.47.26.7.1.12.19.19.29.31.14.24.27.53.3.82,0,.11-.08.45-.28.26-.24-.25-.22-.58-.46-.78,0-.06-.06-.21-.11-.26-.1-.12-.27-.11-.32-.28.01-.17-.18-.31-.27-.43-.25-.35-.6-.48-.9-.84-.05,0-.11,0-.16.05-.05.11-.22.27-.07.45.2.12.3.36.55.48.15.12.19.46.28.75.1.12.2.23.35.3.15.12.09.3.23.48,0,.06-.06.11-.06.16.09.18.3.14.44.32.11-.1.26-.02.35.14-.17.16-.12.28-.19.44-.18.27.22.53.47.66.16.01.14.29.28.42.09.18.35.2.49.44.04.12-.06.17-.12.27-.01.17.19.24.29.31.1.07.14.18.18.3-.16.04-.46-.17-.62-.18-.1-.04-.28-.27-.48-.31-.07-.02-.12.15-.19.13-.09-.02-.19-.04-.3-.06-.11-.02-.37-.31-.48-.32-.13-.02-.29.21-.41.19-.47-.08-.48-.11-.63-.17-.17-.07-.34-.15-.49-.24-.1-.06-.07-.19-.17-.25-.09-.06-.3-.06-.39-.12-.37-.23-.72-.74-1.04-.91-.21-.11-.39-.22-.62-.33-.12-.07-.2-.23-.34-.28-.44-.15-.79-.42-1.29-.56-.94-.27-1.73.27-2.5.67-.04,0-.12,0-.16.02-.18.15-.39.23-.56.35-.24.19-.57.24-.83.39-.08.05-.09.2-.17.25-.13.07-.35.09-.47.16-.11.07-.13.2-.24.29-.22.18-.44.32-.73.46-.17.09-1.59.33-1.82.33-.36,0-.62.31-1.16.31-.83,0-1.66-.02-2.34-.53-.15-.13-.17-.47-.27-.53-.3-.2-.27-.59-.35-.88-.1-.06-.3-.08-.29-.25.11-.84.53-1.61,1.04-2.19.12-.22.39-.31.41-.59,0,0,.46-.65.74-.91.06-.11-.03-.29.03-.4.42-.82,1.19-1.38,1.81-2.13.17-.16.29-.38.55-.41.1,0,.21.02.26-.09.12-.27.34-.43.51-.53.6-.41,1.1-1.02,1.79-1.14.11-.05.17-.16.27-.21.11-.1.31.03.42-.02.51-.23.97-.72,1.5-.79.11-.05.17-.16.22-.15.46.04,1.01-.37,1.45.06.39-.08.98,0,1.23.21ZM15.76,19.19c0-.06,0-.11,0-.17-.2-.12-.29-.47-.55-.54-.05,0-.16.05-.16.11-.01.34.13.57.28.86.06-.22.21-.21.31-.04.05-.05.11-.16.11-.22Z"/>
  </g>
  <g>
    <path class="cls-1" d="M63.6,25.81l-2.12,2.21-5.89-5.75c-.77,1.37-1.69,2.54-2.77,3.5-1.07.96-2.14,1.74-3.21,2.34l-2.06-2.35c1.16-.58,2.15-1.26,2.97-2.03.82-.77,1.49-1.59,2.02-2.44.52-.85.9-1.72,1.15-2.61.24-.89.36-1.76.36-2.61v-4.06h3.25v3.48c0,.68-.04,1.33-.13,1.95-.09.62-.2,1.22-.33,1.8l6.76,6.59ZM70.33,35.79h-3.08v-15.55h-6.41v-2.96h6.41v-7.89h3.08v26.41Z"/>
    <path class="cls-1" d="M98.17,24.25h-11v1.45h5.46v6.82h-10.53v1.31h11.23v2.96h-14.42v-7.08h10.5v-1.16h-10.65v-2.84h5.31v-1.45h-10.77v-2.9h24.87v2.9ZM92.37,14.9c0,.83-.18,1.59-.54,2.28-.36.69-.84,1.28-1.43,1.79-.62.48-1.35.86-2.19,1.13-.84.27-1.75.41-2.74.41-.93,0-1.8-.13-2.63-.38-.82-.25-1.55-.62-2.19-1.1-.62-.48-1.11-1.07-1.46-1.75-.36-.69-.54-1.47-.54-2.34s.17-1.66.52-2.36c.35-.71.83-1.31,1.45-1.82.6-.5,1.32-.89,2.15-1.16.83-.27,1.73-.41,2.7-.41s1.84.14,2.69.41c.84.27,1.57.66,2.19,1.16.62.48,1.11,1.08,1.48,1.78.37.71.55,1.5.55,2.37ZM89.18,14.87c0-.91-.37-1.62-1.1-2.15-.74-.52-1.61-.78-2.61-.78s-1.92.25-2.63.77c-.71.51-1.06,1.23-1.06,2.16s.35,1.59,1.06,2.09c.71.5,1.58.75,2.63.75s1.88-.23,2.61-.7c.74-.46,1.1-1.18,1.1-2.15Z"/>
    <path class="cls-1" d="M124.3,26.14h-24.84v-2.93h24.84v2.93ZM118.9,36.78h-3.1v-6.05h-11.11v-2.96h14.22v9.01ZM118.85,21.7h-14.04v-11.43h13.87v2.93h-10.79v1.25h10.45v2.96h-10.45v1.36h10.97v2.93Z"/>
    <path class="cls-1" d="M138.23,22.88h-11.81v-12.07h3.07v3.48h5.63v-3.48h3.1v12.07ZM135.13,19.95v-2.73h-5.63v2.73h5.63ZM146.97,36.78h-14.25v-7.28h10.36v-1.51h-10.5v-2.93h13.7v7.29h-10.3v1.51h11v2.93ZM147.2,24.22h-3.05v-2.81h-4.99v-2.9h4.99v-2.09h-4.99v-2.93h4.99v-4.09h3.05v14.83Z"/>
    <path class="cls-1" d="M166.13,25.9l-2.12,2.21-5.86-5.78c-.76,1.39-1.67,2.57-2.74,3.53-1.08.96-2.16,1.74-3.27,2.34l-2.06-2.35c1.18-.64,2.18-1.34,3-2.12.82-.77,1.49-1.58,2.02-2.41.5-.85.87-1.71,1.12-2.58.24-.87.36-1.73.36-2.58v-4.15h3.25v3.57c0,.68-.04,1.32-.13,1.93-.09.61-.2,1.2-.33,1.76l6.76,6.65ZM172.48,35.79h-3.1V9.39h3.1v26.41Z"/>
  </g>
  <g>
    <path class="cls-1" d="M52.19,45.74c0,.53-.18.92-.54,1.17-.36.25-.85.38-1.47.38-.12,0-.24,0-.36-.02-.12-.02-.24-.03-.35-.05-.12-.02-.23-.05-.34-.08-.11-.03-.22-.06-.31-.08v-.78c.06.02.13.05.22.09.09.04.19.07.31.1.12.03.26.06.41.09.15.03.32.04.5.04.14,0,.27-.01.4-.04.13-.02.24-.07.35-.13.1-.06.18-.14.24-.24.06-.1.09-.22.09-.37s-.03-.26-.08-.36c-.05-.1-.13-.18-.22-.25-.09-.07-.18-.13-.29-.19-.11-.05-.21-.1-.31-.16-.17-.08-.35-.16-.54-.26-.19-.1-.37-.21-.54-.33-.17-.12-.3-.26-.41-.42-.11-.16-.17-.35-.17-.56,0-.47.17-.83.49-1.06.33-.23.75-.34,1.26-.34.12,0,.24,0,.37.03.12.02.24.04.36.06.11.03.22.06.32.08.1.03.2.05.28.07v.79c-.13-.07-.32-.14-.56-.2-.24-.07-.52-.11-.83-.13-.25,0-.45.06-.61.16-.16.11-.24.27-.24.48,0,.1.02.19.06.26.05.07.1.14.18.2.07.06.16.11.25.16.1.05.19.1.3.15l.54.25c.12.07.25.15.39.22.14.07.27.16.4.26.12.11.22.24.31.4.09.16.13.36.14.6Z"/>
    <path class="cls-1" d="M56.01,47.21h-3.07v-5.24h3v.7h-2.19v1.45h2.1v.7h-2.1v1.69h2.27v.7Z"/>
    <path class="cls-1" d="M61.26,44.58c0,.36-.05.71-.14,1.04-.09.33-.23.62-.42.87-.2.25-.44.44-.74.59-.3.15-.66.22-1.09.22-.39,0-.74-.07-1.04-.21-.3-.14-.54-.33-.74-.57-.2-.24-.35-.53-.45-.86-.1-.33-.15-.69-.15-1.07,0-.36.05-.7.15-1.02.1-.33.25-.61.45-.86.2-.25.45-.44.74-.59.3-.15.65-.22,1.04-.22s.74.07,1.04.21c.3.14.55.33.75.57.2.24.35.53.45.85.1.33.15.68.15,1.06ZM60.47,44.57c0-.27-.03-.53-.1-.78-.07-.24-.16-.46-.29-.64-.13-.18-.3-.32-.5-.43-.2-.11-.44-.16-.71-.16-.24,0-.46.05-.66.16-.2.1-.37.24-.5.42-.14.18-.25.4-.32.64-.07.25-.11.51-.11.81,0,.27.03.53.09.78.06.25.16.47.29.66.13.19.3.34.5.46.2.12.44.17.71.17s.5-.05.7-.16c.2-.1.36-.25.5-.44.13-.18.23-.4.29-.65.06-.25.1-.53.1-.82Z"/>
    <path class="cls-1" d="M65.85,45.23c0,.21-.03.44-.09.68-.06.24-.16.46-.31.67-.14.2-.34.37-.59.51-.25.13-.57.2-.95.2s-.72-.07-.97-.2c-.25-.13-.45-.3-.58-.5-.14-.21-.24-.43-.29-.67-.05-.24-.08-.47-.08-.7v-3.27h.82v3.25c0,.17.02.33.04.5.03.16.08.31.17.44.08.13.19.24.34.31.14.08.32.12.55.12s.39-.04.54-.12c.14-.08.26-.18.34-.31.09-.13.15-.28.19-.44.04-.17.05-.33.05-.5v-3.25h.82v3.27Z"/>
    <path class="cls-1" d="M70.11,47.2h-3.16v-5.23h.81v4.53h2.35v.7Z"/>
    <path class="cls-1" d="M77.98,47.2h-.74v-4.08h-.02l-1.37,4.08h-.74l-1.37-4.08h-.02v4.08h-.74v-5.24h1.1l1.39,4.22h.03l1.38-4.22h1.09v5.24Z"/>
    <path class="cls-1" d="M82.19,47.21h-3.07v-5.24h3v.7h-2.2v1.45h2.11v.7h-2.11v1.69h2.27v.7Z"/>
    <path class="cls-1" d="M86.13,42.68h-1.46v4.55h-.8v-4.55h-1.45v-.69h3.72v.69Z"/>
    <path class="cls-1" d="M90.25,47.22h-.82l-.21-1.01c-.07-.3-.16-.56-.29-.76-.13-.2-.29-.34-.48-.42-.04,0-.09,0-.13,0h-.56v-.7h.42c.14,0,.28-.01.41-.03.13-.02.25-.06.35-.13.11-.06.19-.14.25-.26.06-.11.09-.26.09-.44,0-.16-.03-.29-.11-.4-.07-.11-.16-.19-.28-.25-.11-.06-.24-.11-.38-.13-.14-.03-.28-.04-.42-.04h-.61v4.55h-.79v-5.25h1.4c.24,0,.49.02.72.07.24.04.46.12.65.24.19.11.35.27.47.46.12.2.18.45.18.75,0,.34-.07.62-.22.83-.15.21-.33.37-.56.48.14.12.27.28.39.47.13.19.21.42.27.67l.24,1.28Z"/>
    <path class="cls-1" d="M95.53,44.58c0,.36-.04.71-.13,1.04-.1.33-.24.62-.43.87-.2.25-.44.44-.74.59-.3.15-.67.22-1.09.22-.39,0-.74-.07-1.04-.21-.3-.14-.55-.33-.75-.57-.2-.24-.35-.53-.45-.86-.1-.33-.15-.69-.15-1.07,0-.36.05-.7.15-1.02.1-.33.25-.61.45-.86.2-.25.45-.44.75-.59.3-.15.65-.22,1.04-.22s.74.07,1.04.21c.3.14.55.33.75.57.2.24.35.53.45.85.1.33.15.68.15,1.06ZM94.74,44.57c0-.27-.03-.53-.1-.78-.07-.24-.17-.46-.29-.64-.13-.18-.3-.32-.5-.43-.2-.11-.43-.16-.71-.16-.25,0-.46.05-.66.16-.2.1-.36.24-.5.42-.14.18-.25.4-.32.64-.07.25-.11.51-.11.81,0,.27.03.53.09.78.06.25.16.47.29.66.13.19.3.34.49.46.2.12.44.17.72.17s.5-.05.7-.16c.2-.1.37-.25.5-.44.13-.18.23-.4.29-.65.06-.25.1-.53.1-.82Z"/>
    <path class="cls-1" d="M99.75,43.52c0,.31-.06.57-.18.77-.12.21-.27.37-.46.49-.19.13-.39.21-.62.26-.23.05-.46.07-.68.07h-.43v-.71h.42c.14,0,.27-.01.41-.04.14-.02.25-.07.36-.13.1-.07.19-.16.25-.27.07-.11.1-.26.1-.44,0-.16-.04-.29-.11-.4-.07-.11-.16-.2-.28-.26-.11-.07-.24-.12-.38-.15-.14-.03-.28-.04-.42-.04h-.6v4.54h-.79v-5.24h1.4c.24,0,.48.02.72.07.24.05.45.13.64.25.2.12.35.28.47.48.12.2.18.45.18.75Z"/>
    <path class="cls-1" d="M104.86,44.58c0,.36-.05.71-.14,1.04-.09.33-.23.62-.42.87-.19.25-.44.44-.74.59-.3.15-.66.22-1.08.22-.4,0-.74-.07-1.04-.21-.3-.14-.55-.33-.75-.57-.2-.24-.35-.53-.45-.86-.1-.33-.15-.69-.15-1.07,0-.36.05-.7.15-1.02.1-.33.25-.61.45-.86.2-.25.45-.44.75-.59.3-.15.64-.22,1.04-.22s.74.07,1.04.21c.3.14.55.33.75.57.2.24.35.53.45.85.1.33.15.68.15,1.06ZM104.07,44.57c0-.27-.03-.53-.1-.78-.06-.24-.16-.46-.29-.64-.13-.18-.3-.32-.5-.43-.2-.11-.43-.16-.7-.16-.25,0-.46.05-.66.16-.2.1-.36.24-.5.42-.14.18-.25.4-.32.64-.07.25-.11.51-.11.81,0,.27.03.53.09.78.06.25.16.47.29.66.13.19.29.34.5.46.2.12.44.17.72.17s.5-.05.7-.16c.2-.1.37-.25.5-.44.13-.18.23-.4.29-.65.07-.25.1-.53.1-.82Z"/>
    <path class="cls-1" d="M108.83,47.2h-3.17v-5.23h.81v4.53h2.36v.7Z"/>
    <path class="cls-1" d="M110.16,47.21h-.82v-5.24h.82v5.24Z"/>
    <path class="cls-1" d="M114.5,42.68h-1.46v4.55h-.8v-4.55h-1.45v-.69h3.72v.69Z"/>
    <path class="cls-1" d="M119.04,47.2h-.88l-.53-1.54h-1.82l-.57,1.54h-.81l1.88-5.24h.85l1.89,5.24ZM117.39,44.96l-.63-2.07h-.03l-.69,2.07h1.36Z"/>
    <path class="cls-1" d="M123.31,47.21h-.94l-2.02-4.05h-.03v4.05h-.77v-5.24h.96l2.01,4.07h.02v-4.07h.77v5.24Z"/>
    <path class="cls-1" d="M130.69,43.57h-.82c0-.2-.03-.36-.08-.49-.05-.13-.13-.23-.22-.31-.1-.08-.2-.14-.33-.17-.12-.03-.24-.05-.37-.06-.22,0-.43.04-.63.13-.19.09-.36.22-.5.39-.15.17-.26.38-.34.62-.08.24-.12.52-.12.83,0,.17.02.38.06.61.04.24.13.46.26.69.12.22.3.41.53.56.23.16.53.24.92.25.15,0,.29-.01.43-.03.14-.02.27-.05.39-.1v-1.4h-1.25v-.72h2.06v2.55l-.18.03c-.07.03-.15.06-.24.1-.09.04-.2.08-.32.11-.13.04-.27.06-.44.08-.17.02-.36.03-.58.03-.43,0-.8-.08-1.1-.24-.31-.16-.56-.38-.76-.64-.2-.27-.34-.57-.44-.9-.09-.33-.14-.67-.14-1.02s.05-.67.15-.98c.1-.31.25-.59.45-.84.2-.24.45-.43.75-.57.3-.15.65-.22,1.06-.22.24,0,.47.04.69.11.22.07.41.18.58.32.16.14.3.32.39.53.1.21.14.46.14.74Z"/>
    <path class="cls-1" d="M136.14,44.57c0,.37-.04.71-.14,1.04-.09.33-.24.62-.43.86-.19.25-.44.45-.74.59-.3.15-.66.22-1.09.22-.39,0-.74-.07-1.04-.21-.3-.14-.55-.33-.75-.57-.2-.24-.35-.53-.45-.86-.1-.33-.15-.69-.15-1.07,0-.35.05-.69.15-1.02.1-.33.25-.61.45-.86.2-.25.45-.44.75-.59.3-.14.64-.22,1.04-.22s.74.07,1.04.21c.3.14.55.33.75.57.2.24.35.53.45.85.1.33.15.68.15,1.06ZM135.35,44.57c0-.27-.04-.53-.1-.78-.07-.25-.16-.46-.29-.64-.13-.18-.3-.33-.5-.44-.2-.11-.44-.16-.71-.16-.24,0-.46.05-.66.16-.2.1-.36.24-.5.42-.14.18-.25.4-.32.64-.07.25-.11.51-.11.81,0,.27.03.53.09.78.06.25.15.47.29.65.13.19.3.34.5.45.2.12.44.17.71.17s.5-.05.7-.15c.2-.1.36-.25.5-.44.13-.18.23-.4.29-.66.06-.25.1-.53.1-.82Z"/>
    <path class="cls-1" d="M140.83,41.96l-1.83,5.24h-.88l-1.84-5.24h.86l1.39,4.24h.06s1.39-4.24,1.39-4.24h.84Z"/>
    <path class="cls-1" d="M144.38,47.21h-3.07v-5.24h3v.7h-2.2v1.45h2.11v.7h-2.11v1.69h2.27v.7Z"/>
    <path class="cls-1" d="M148.73,47.21h-.83l-.21-1.01c-.07-.31-.17-.56-.29-.76-.13-.2-.29-.34-.48-.42-.04,0-.09,0-.13,0h-.55v-.7h.42c.14,0,.28-.01.41-.03.13-.02.25-.07.35-.13.11-.06.19-.14.25-.25.06-.11.09-.26.09-.44,0-.16-.03-.29-.1-.4-.07-.11-.16-.19-.28-.25-.11-.06-.24-.11-.38-.13-.14-.03-.29-.04-.43-.04h-.61v4.55h-.79v-5.25h1.4c.24,0,.48.02.73.07.24.05.45.12.65.24.19.11.35.27.47.46.12.2.18.45.18.75,0,.34-.07.62-.22.83-.14.21-.33.37-.55.48.13.12.27.28.39.47.13.19.22.42.26.68l.24,1.28Z"/>
    <path class="cls-1" d="M153.31,47.21h-.94l-2.02-4.05h-.03v4.05h-.77v-5.24h.96l2,4.07h.02v-4.07h.77v5.24Z"/>
    <path class="cls-1" d="M159.42,47.2h-.75v-4.08h-.02l-1.37,4.08h-.74l-1.36-4.08h-.02v4.08h-.74v-5.24h1.1l1.39,4.22h.03l1.38-4.22h1.09v5.24Z"/>
    <path class="cls-1" d="M163.63,47.21h-3.07v-5.24h3v.7h-2.2v1.45h2.11v.7h-2.11v1.69h2.27v.7Z"/>
    <path class="cls-1" d="M168.19,47.21h-.94l-2.02-4.05h-.03v4.05h-.77v-5.24h.96l2,4.07h.02v-4.07h.77v5.24Z"/>
    <path class="cls-1" d="M172.46,42.67h-1.46v4.55h-.8v-4.55h-1.45v-.69h3.72v.69Z"/>
  </g>
</svg>