<?xml version="1.0" encoding="UTF-8"?>
<svg id="_레이어_2" data-name="레이어 2" xmlns="http://www.w3.org/2000/svg" xmlns:xlink="http://www.w3.org/1999/xlink" viewBox="0 0 1462.11 277.8">
  <defs>
    <style>
      .cls-1 {
        fill: url(#radial-gradient);
      }

      .cls-2 {
        fill: #014594;
      }
    </style>
    <radialGradient id="radial-gradient" cx="584.28" cy="-1621.05" fx="584.28" fy="-1621.05" r="192.51" gradientTransform="translate(-40.49 1191.5) scale(.66)" gradientUnits="userSpaceOnUse">
      <stop offset="0" stop-color="#fff"/>
      <stop offset=".01" stop-color="#f5fbf8"/>
      <stop offset=".09" stop-color="#bfe9d5"/>
      <stop offset=".17" stop-color="#91d9b7"/>
      <stop offset=".25" stop-color="#6ccc9e"/>
      <stop offset=".33" stop-color="#4fc28b"/>
      <stop offset=".4" stop-color="#3abb7d"/>
      <stop offset=".48" stop-color="#2eb775"/>
      <stop offset=".55" stop-color="#2ab673"/>
      <stop offset=".6" stop-color="#23a378"/>
      <stop offset=".69" stop-color="#127386"/>
      <stop offset=".78" stop-color="#014594"/>
    </radialGradient>
  </defs>
  <g id="Layer_1" data-name="Layer 1">
    <g>
      <path class="cls-2" d="M987.05,89.53c1.77-8.52,2.73-15.96,2.88-22.31h-82.83c-6.64,0-14.03-.43-22.15-1.3v27.3h63.92c-7.06,34.1-30.57,72.62-74.37,105.57l20.2,18.13c20.7-14.15,38.02-29.58,52.07-46.26l43.83,44.74,23.03-18.2-49.13-51.12c10.74-17.63,18.29-36.46,22.55-56.55Z"/>
      <path class="cls-2" d="M502.63,211.07v26.43h119.5v40.29h33.67v-65.43h-131.72c-6.36,0-13.51-.43-21.45-1.3Z"/>
      <path class="cls-2" d="M507.18,163.41h146.67v-24.7h-113.65v-11.27h111.92v-24.26h-111.92v-11.26h114.09v-24.7h-150.78c2.45,6.5,3.68,13.72,3.68,21.66v74.53Z"/>
      <path class="cls-2" d="M487.03,174.03v26.43h188.26v-25.13h-166.6c-6.36,0-13.58-.43-21.67-1.3Z"/>
      <path class="cls-2" d="M754.24,241.18h104.12v-60.23h-116.12c-6.36,0-13.43-.51-21.23-1.52v25.78h104.33v11.7h-107.15c2.02,7.37,3.03,14.23,3.03,20.58v40.29h138.22v-24.91h-105.2v-11.7Z"/>
      <path class="cls-2" d="M829.33,86.07v5.2h-28.38v-24.91h-34.96c1.73,6.79,2.6,12.78,2.6,17.98v13.87h-42.5v-31.41h-35.4c1.88,6.79,2.82,13.07,2.82,18.85v83.84h107.46v-14.73h28.38v14.73h30.76V62.89h-35.96c3.47,8.96,5.2,16.68,5.2,23.18ZM768.58,144.99h-42.5v-22.53h42.5v22.53ZM829.33,131.56h-28.38v-17.33h28.38v17.33Z"/>
      <path class="cls-2" d="M1384.59,226.34v-43.98h59.1v-26.43h-117.55v-61.96h117.99v-26.86h-154.69c2.31,6.5,3.47,13.65,3.47,21.45v93.81h58.67v43.98h-56.07c-6.36,0-13.58-.43-21.67-1.3v28.16h188.26v-26.86h-77.52Z"/>
      <path class="cls-2" d="M1050.18,62.89h-38.43c3.47,8.96,5.2,16.68,5.2,23.18v191.73h33.23v-117.64h23.31v-27.73h-23.31V62.89Z"/>
      <path class="cls-2" d="M1218.64,86.07v191.73h33.23V62.89h-38.43c3.47,8.96,5.2,16.68,5.2,23.18Z"/>
      <path class="cls-2" d="M1188.5,89.53c1.77-8.52,2.73-15.96,2.88-22.31h-33.33v-21.91h-37.48c1.73,6.79,2.6,12.71,2.6,17.76v4.14h-14.62c-6.64,0-14.03-.43-22.15-1.3v27.3h63.92c-7.06,34.1-30.57,72.62-74.37,105.57l20.2,18.13c20.7-14.15,38.02-29.58,52.07-46.26l43.83,44.74,23.03-18.2-49.13-51.12c10.74-17.63,18.29-36.46,22.55-56.55Z"/>
    </g>
    <g>
      <path class="cls-1" d="M344.94,72.37c34.4,0,65.69,13.26,89.08,34.92V0h-45.13v35.2c-11.94-4.53-25.77-7.8-41.3-8.42-.88-.03-4.43-.03-5.31,0-15.52.62-29.36,3.89-41.3,8.42V0h-45.13v107.29c23.4-21.66,54.69-34.92,89.08-34.92Z"/>
      <g>
        <polygon class="cls-2" points="82.78 206.35 37.63 206.35 37.63 277.8 221.8 277.8 221.8 239.32 82.78 239.32 82.78 206.35"/>
        <path class="cls-2" d="M81.03,160.19c11.57,6.66,26.7,19.41,31.62,41.95h41.89c-5.85-44.01-34.07-67.33-54.7-78.71,3.13-10.56,4.57-20.64,5.11-29.25h41.23v-38.48H12.64v38.48h47.32c-.78,13.25-4.04,30.83-14.62,44.53-10.25,13.28-24.96,23.21-45.34,28.29l17.63,32.93c27.01-7.2,48.25-20.5,63.4-39.74Z"/>
        <path class="cls-2" d="M370.36,143.62h116.67c-36.35-25.22-86.59-40.82-142.09-40.82-46.42,0-89.12,10.94-123.14,29.27V55.71h-45.15v48.63h-30.47v39.28h30.47v58.53h45.15v-58.53h97.7v20.05h-63.65v38.48h133.04v48.05h45.13v-86.53h-63.66v-20.05Z"/>
      </g>
    </g>
  </g>
</svg>