<?xml version="1.0" encoding="UTF-8"?>
<svg id="_레이어_2" data-name="레이어 2" xmlns="http://www.w3.org/2000/svg" viewBox="0 0 157.84 45.49">
  <defs>
    <style>
      .cls-1 {
        fill: #0093d4;
      }

      .cls-1, .cls-2, .cls-3, .cls-4, .cls-5, .cls-6 {
        fill-rule: evenodd;
      }

      .cls-2, .cls-7 {
        fill: #eb6100;
      }

      .cls-3 {
        fill: #6fba2c;
      }

      .cls-4 {
        fill: #aaa893;
      }

      .cls-8 {
        fill: #004c98;
      }

      .cls-5 {
        fill: #b963a4;
      }

      .cls-6 {
        fill: #f39800;
      }
    </style>
  </defs>
  <g>
    <path class="cls-3" d="M29.56,18.81c-4.19-3.96-10.29,1.64-6.78,6.86,1.79,2.67,6.41,4.41,13.04,4.06.95-.05,1.25-.26.31-.69-5.8-2.64-3.48-7.32-6.57-10.24Z"/>
    <path class="cls-6" d="M16.01,31.01c.43-.82.55-1.03-.56-.51-6.29,2.92-7.52-1.79-11.7-1.16-2.32.35-4.1,2.58-3.7,5.02.48,2.92,3.87,4.03,6.56,3.76,5.55-.57,8.68-5.75,9.39-7.11Z"/>
    <path class="cls-1" d="M11.21,29.02c.22.19.51.55-.3.43C.86,27.93-.97,21.98,1.65,19.06c1.39-1.55,4.35-1.75,5.77-.19,2.69,2.96-.21,6.77,3.79,10.14Z"/>
    <path class="cls-6" d="M47.46,5.2c.98.04,1.23.23.24.63-2.36.94-4.75,2.7-4.84,6.68-.14,5.74-8.44,4.21-7.5-1.78,1.06-6.79,10.97-5.57,12.11-5.53Z"/>
    <path class="cls-5" d="M18.12,34.38c1.71,5.1,8.87,3.32,8.28-1.58-.51-4.22-5.55-2.87-5.55-7.51,0-.57-.05-1.03-.62-.16-1.58,2.41-2.95,6.73-2.11,9.25Z"/>
    <path class="cls-3" d="M49,31.6c-4.41,3.12-6.02-.65-9.2-.83-3.66-.2-4.72,5.73-.01,6.83,2.18.52,7.56-.54,9.77-5.89.12-.28,0-.6-.56-.11Z"/>
    <path class="cls-6" d="M47.72,27.7c.99-5.01-3.17-9.69-3.57-10.19-.1-.13-.95-1.15-.58.35,1.1,4.48-1.22,5.75-1.92,8.95-1.01,4.6,5.21,5.26,6.07.89Z"/>
    <path class="cls-7" d="M22.2,17.52c-5.28.53-8.35,2.01-10.01,3.3-2.45,1.9-2.16,4.92-.69,6.39,1.54,1.54,4.48,2.02,6.39-.33,2.3-2.83.05-6.29,4.56-8.9.66-.38.25-.5-.24-.45Z"/>
    <path class="cls-3" d="M56.37,18.16c-.99.43-1.77,1.22-2.33,2.14-.59.97-.82,2.1-1.41,3.06-.51.83-1.17,1.63-1.95,2.21-.43.32-.67.77.15.6.66-.14,1.59-.27,2.72-.15,1.13.11,2.63.66,3.31.82,1.4.47,3.04.44,4.1-.67,1.73-1.82,1.51-5.2-.19-6.99-1.11-1.16-2.91-1.66-4.41-1.01Z"/>
    <path class="cls-1" d="M60.46,28.57c-3.54-.56-5.28,2.14-10.5-1.45-.46-.32-.85-.58-.51.47.56,1.72,3.05,8.61,7.87,9.83,7.06,1.79,8.93-7.78,3.14-8.85Z"/>
    <path class="cls-1" d="M26.96,3.08c-.76,3.92,2.26,5.77,1.52,11.54-.06.46.35.45.47.19,2.3-5.29,5.73-5.08,7.03-9.16,1.95-6.1-8.01-7.74-9.02-2.57Z"/>
    <path class="cls-5" d="M11.95,18.19c4.67.37,4.92-3.08,13.22-2.61.68.04.59-.41.16-.54-7.44-2.24-8.71-7.01-12.58-7.16-6.32-.24-7.22,9.81-.8,10.31Z"/>
    <path class="cls-2" d="M17.62,8.49c2.87,3.68,5.09,1.25,8.38,4.8.48.52.84.27.47-.34-2.29-3.71.28-7.06-1.64-9.51-3.62-4.62-10.58.73-7.21,5.06Z"/>
    <path class="cls-2" d="M44.41,12.3c0,3.9,4.29,5.71,4.57,12.99.02.48.46.5.55.02,1.42-7.25,5.4-8.65,5.74-12.82.53-6.44-10.86-7.61-10.86-.19Z"/>
    <path class="cls-5" d="M40.58,25.09c1.74-1.5,2.34-4.18.76-6.12-2.89-3.32-6-.01-8.96-5.55-.49-.91-.8-.71-.62.27.61,3.38-.5,6.74,1.47,9.75,1.96,2.97,5.46,3.3,7.35,1.66Z"/>
    <path class="cls-4" d="M31.63,31.38c-2.11,0-3.83,1.71-3.83,3.83v10.28h7.65v-10.28c0-2.11-1.71-3.83-3.82-3.83Z"/>
  </g>
  <g>
    <g>
      <path class="cls-8" d="M79.82,43.5c-.43.1-.89.18-1.33.18-1.89,0-3.2-.94-3.2-2.91s1.22-3.12,3.2-3.12c.39,0,.89.07,1.32.24l-.08.98c-.44-.25-.85-.31-1.26-.31-1.2,0-1.96.92-1.96,2.11s.74,2.08,1.98,2.08c.46,0,1-.1,1.28-.24l.05.98Z"/>
      <path class="cls-8" d="M80.62,37.32h1.12v2.55h.01c.28-.42.77-.68,1.35-.68,1.02,0,1.46.72,1.46,1.69v2.72h-1.12v-2.3c0-.52,0-1.23-.72-1.23-.81,0-.99.88-.99,1.43v2.11h-1.12v-6.27Z"/>
      <path class="cls-8" d="M89.38,43.59h-1.06v-.59h-.02c-.34.42-.83.69-1.41.69-1.02,0-1.46-.72-1.46-1.69v-2.72h1.12v2.3c0,.53,0,1.24.73,1.24.81,0,.98-.88.98-1.43v-2.11h1.12v4.31Z"/>
      <path class="cls-8" d="M90.38,39.28h1.06v.58h.01c.35-.49.83-.68,1.42-.68,1.02,0,1.46.72,1.46,1.69v2.72h-1.12v-2.3c0-.52,0-1.23-.73-1.23-.81,0-.99.88-.99,1.43v2.11h-1.12v-4.31Z"/>
      <path class="cls-8" d="M97.17,42.72c-.64,0-.95-.72-.95-1.3,0-.66.24-1.36,1-1.36.65,0,.94.6.94,1.34s-.29,1.33-.99,1.33ZM98.2,39.28v.58h-.02c-.31-.49-.75-.68-1.32-.68-1.28,0-1.82,1.2-1.82,2.24,0,1.15.48,2.17,1.75,2.17.63,0,1.13-.32,1.34-.69h.02c0,.75-.06,1.67-1.3,1.67-.35,0-.91-.19-1.25-.38l-.09.96c.53.22,1.04.29,1.49.29,1.81,0,2.27-1.1,2.27-2.27v-3.89h-1.07Z"/>
      <path class="cls-8" d="M103.09,40.21c-.2-.09-.42-.16-.76-.16-.7,0-1.14.55-1.14,1.36s.38,1.4,1.16,1.4c.32,0,.67-.12.86-.2l.05.93c-.32.1-.66.14-1.12.14-1.41,0-2.12-.96-2.12-2.27s.73-2.24,2.08-2.24c.45,0,.78.05,1.09.14l-.1.89Z"/>
      <path class="cls-8" d="M103.95,37.32h1.12v2.55h.02c.29-.42.77-.68,1.36-.68,1.02,0,1.46.72,1.46,1.69v2.72h-1.12v-2.3c0-.52,0-1.23-.73-1.23-.81,0-.98.88-.98,1.43v2.11h-1.12v-6.27Z"/>
      <path class="cls-8" d="M109.66,41.01c.05-.58.37-1.01,1-1.01s.88.47.91,1.01h-1.91ZM112.31,42.43c-.41.24-.88.44-1.43.44-.69,0-1.18-.39-1.23-1.09h2.98c0-1.5-.45-2.6-2.05-2.6-1.34,0-2,1.03-2,2.27,0,1.41.83,2.23,2.25,2.23.6,0,1.07-.11,1.48-.34v-.91Z"/>
      <path class="cls-8" d="M114.35,41.33c0-.65.35-1.28,1.08-1.28s1.09.62,1.09,1.28c0,.71-.23,1.49-1.09,1.49s-1.08-.78-1.08-1.49ZM113.18,41.46c0,1.24.83,2.22,2.25,2.22s2.26-.98,2.26-2.22c0-1.42-.98-2.28-2.26-2.28s-2.25.86-2.25,2.28Z"/>
      <path class="cls-8" d="M118.3,39.28h1.06v.58h.02c.35-.49.82-.68,1.41-.68,1.02,0,1.46.72,1.46,1.69v2.72h-1.12v-2.3c0-.52-.01-1.23-.73-1.23-.81,0-.99.88-.99,1.43v2.11h-1.12v-4.31Z"/>
      <path class="cls-8" d="M125.05,42.72c-.64,0-.95-.72-.95-1.3,0-.66.24-1.36,1-1.36.65,0,.93.6.93,1.34s-.28,1.33-.98,1.33ZM126.09,39.28v.58h-.02c-.31-.49-.75-.68-1.32-.68-1.29,0-1.82,1.2-1.82,2.24,0,1.15.48,2.17,1.75,2.17.63,0,1.13-.32,1.34-.69h.02c0,.75-.06,1.67-1.29,1.67-.35,0-.92-.19-1.26-.38l-.09.96c.54.22,1.05.29,1.49.29,1.81,0,2.27-1.1,2.27-2.27v-3.89h-1.07Z"/>
      <path class="cls-8" d="M128.15,39.28h1.06v.58h.02c.35-.49.83-.68,1.41-.68,1.02,0,1.46.72,1.46,1.69v2.72h-1.12v-2.3c0-.52,0-1.23-.73-1.23-.81,0-.99.88-.99,1.43v2.11h-1.12v-4.31Z"/>
      <path class="cls-8" d="M133.85,42.34c0-.66.74-.74,1.24-.74h.49c0,.34-.05.64-.23.88-.18.24-.44.38-.79.38-.4,0-.71-.16-.71-.53ZM133.29,40.47c.37-.28.85-.47,1.33-.47.66,0,.97.24.97.93h-.62c-.47,0-1.02.04-1.44.25-.43.21-.74.58-.74,1.23,0,.82.74,1.28,1.5,1.28.51,0,1.07-.27,1.33-.74h.02c0,.13,0,.42.05.64h.98c-.02-.34-.04-.64-.05-.96-.01-.32-.02-.64-.02-1.08v-.55c0-1.27-.54-1.82-1.85-1.82-.48,0-1.06.13-1.5.33l.03.96Z"/>
      <path class="cls-8" d="M137.53,39.28h1.04v.6h.02c.35-.52.86-.71,1.28-.71.61,0,1.03.23,1.27.77.26-.52.82-.77,1.35-.77,1.06,0,1.36.73,1.36,1.69v2.72h-1.12v-2.57c0-.4,0-.97-.64-.97-.75,0-.84.88-.84,1.45v2.09h-1.12v-2.57c0-.4,0-.97-.64-.97-.74,0-.84.88-.84,1.45v2.09h-1.12v-4.31Z"/>
      <path class="cls-8" d="M144.53,41.8v-.92h2.2v.92h-2.2Z"/>
      <path class="cls-8" d="M148.5,41.42c0-.58.2-1.37.93-1.37s1,.77,1,1.37-.24,1.39-.99,1.39-.95-.8-.95-1.39ZM150.47,43.59h1.09v-6.27h-1.12v2.47h-.02c-.33-.41-.73-.61-1.29-.61-1.32,0-1.81,1.06-1.81,2.24s.48,2.26,1.81,2.26c.52,0,.98-.16,1.32-.58h.02v.49Z"/>
      <path class="cls-8" d="M153.38,41.33c0-.65.35-1.28,1.08-1.28s1.08.62,1.08,1.28c0,.71-.23,1.49-1.08,1.49s-1.08-.78-1.08-1.49ZM152.21,41.46c0,1.24.83,2.22,2.25,2.22s2.25-.98,2.25-2.22c0-1.42-.98-2.28-2.25-2.28s-2.25.86-2.25,2.28Z"/>
    </g>
    <g>
      <g>
        <path class="cls-8" d="M84.12,16.14c1.29,1.52,4.85,2.68,8.04,2.68h.57v-2.45h-.57c-2.58,0-5.23-1.23-6.02-2.82h6.31v-2.46h-6.48c-.21-1.33-.65-1.76-.65-1.76h-3.48s.39.43.58,1.76h-6.63v2.46h6.31c-.79,1.58-3.44,2.82-6.02,2.82h-.57v2.45h.57c3.19,0,6.75-1.16,8.04-2.68Z"/>
        <path class="cls-8" d="M94.84,22.07v-2.46h-21.44v2.46h9.04v.94c-3.16.55-5.16,2.64-5.16,5.13,0,2.92,2.73,5.28,6.84,5.28s6.84-2.36,6.84-5.28c0-2.49-2.01-4.58-5.17-5.13v-.94h9.04ZM87.64,28.14c0,1.55-1.58,2.8-3.52,2.8s-3.52-1.25-3.52-2.8,1.58-2.79,3.52-2.79,3.52,1.25,3.52,2.79Z"/>
      </g>
      <g>
        <polygon class="cls-8" points="150.58 29.08 150.58 23.55 147.23 23.55 147.23 29.08 140.02 29.08 140.02 31.54 157.84 31.54 157.84 29.08 150.58 29.08"/>
        <path class="cls-8" d="M141.28,19.27c0,1.78,1.44,3.22,3.22,3.22h11.72s0-2.45,0-2.45h-10.65c-.52,0-.94-.42-.94-.94v-2.93c0-2.1-.45-2.97-.62-3.22h12.2v-2.46h-15.61s.68.73.68,3.3v5.48Z"/>
      </g>
      <g>
        <path class="cls-8" d="M135.66,14.59v-3.83c0-.52-.42-.94-.94-.94h-2.41v8.27h0c-.47.22-1.14.53-3.03.53h-6c-.52,0-.94-.42-.94-.94v-3.81c0-2.57-.77-3.3-.77-3.3h-3.26s.68.73.68,3.3v3.99c0,1.77,1.44,3.21,3.21,3.21h5.85c1.77,0,3.13-.16,4.25-.61h0s0,1.36,0,1.36h3.35v-4.78h3.32v-2.46h-3.32Z"/>
        <path class="cls-8" d="M122.34,29.57c0,1.77,1.44,3.21,3.21,3.21h10.11v-10.05h-13.32v6.85ZM125.69,25.18h6.62v5.15h-5.68c-.52,0-.94-.42-.94-.94v-4.2Z"/>
      </g>
      <g>
        <path class="cls-8" d="M109.01,21.62c-3.75,0-6.79,2.64-6.79,5.9s3.04,5.9,6.79,5.9,6.79-2.64,6.79-5.9-3.04-5.9-6.79-5.9ZM109.01,30.94c-1.92,0-3.47-1.54-3.47-3.43s1.55-3.44,3.47-3.44,3.47,1.54,3.47,3.44-1.55,3.43-3.47,3.43Z"/>
        <path class="cls-8" d="M114.86,9.84h-2.41v5.27h-3.5v2.46h3.5v4.26h3.35v-11.05c0-.52-.42-.94-.94-.94Z"/>
        <path class="cls-8" d="M103.18,18.11c.99,1.53,3.89,3.07,6.21,3.07h.22v-2.54c-2.01-.24-4.54-1.51-4.76-4.58h4.42v-2.46h-4.43c-.17-1.71-.71-2.23-.71-2.23h-3.31s.48.52.63,2.23h-4.37v2.46h4.42c-.22,3.07-2.75,4.34-4.76,4.58v2.54h.23c2.32,0,5.22-1.53,6.21-3.07Z"/>
      </g>
    </g>
  </g>
</svg>