<?xml version="1.0" encoding="UTF-8"?>
<svg id="_레이어_2" data-name="레이어 2" xmlns="http://www.w3.org/2000/svg" viewBox="0 0 179.78 35.17">
  <defs>
    <style>
      .cls-1 {
        fill: #231815;
      }

      .cls-2 {
        fill: #0068b7;
      }
    </style>
  </defs>
  <g>
    <path class="cls-1" d="M128.84,14.45s-.01-.03-.02-.05v-6.02h-3.29v6.93c0,.05-.02.1-.02.15,0,1.05.81,1.91,1.81,1.91.03,0,.06-.01.08-.01h4.41v-2.9h-2.97Z"/>
    <path class="cls-1" d="M119.01,10.26h-3.11v-2.07h-3.3v12.53c-1.7-1.1-3.99-1.78-6.52-1.78-5.22,0-9.45,2.88-9.45,6.44s4.23,6.45,9.45,6.45,9.45-2.88,9.45-6.45c0-1.73-1-3.29-2.62-4.45h3v-7.76h3.11v-2.9ZM106.08,29.04c-3.46,0-6.26-1.64-6.26-3.67s2.8-3.66,6.26-3.66,6.25,1.64,6.25,3.66-2.8,3.67-6.25,3.67Z"/>
    <path class="cls-1" d="M109.34,17.62v-2.9s-6.98.72-7.11-6.43l-3.99.05s.59,6.68-7.47,6.16v2.8s5.9,1.24,9.43-3.93c0,0,3.15,4.97,9.14,4.25Z"/>
    <path class="cls-1" d="M86.23,8.09h-3.29v.72h-4.68v2.91h4.68v1.45h-4.68v2.9h4.68v4.32c-1.73-1.27-4.2-2.07-6.94-2.07-5.22,0-9.45,2.88-9.45,6.44s4.23,6.44,9.45,6.44,9.45-2.88,9.45-6.44c0-1.52-.77-2.92-2.06-4.01h2.84v-12.66ZM76,28.42c-3.46,0-6.26-1.64-6.26-3.66s2.8-3.67,6.26-3.67,6.25,1.65,6.25,3.67-2.8,3.66-6.25,3.66Z"/>
    <path class="cls-1" d="M76.2,11.09s1.18-2.69-2.26-3h-11.6v2.9h10.32s-1.32,5.18-9.41,4.56h-1.3v2.9h1.3s10.69.62,12.95-7.36Z"/>
    <path class="cls-1" d="M124.07,22.1h11.21v1.83h-9.84v2.9h19.96s.02.03.03.05v5.67l3.3.05s.01-6.73.01-6.78c0-1.05-.81-1.9-1.81-1.9-.03,0-.05,0-.08,0h-8.27v-1.83h11.48v-2.9h-25.98v2.9Z"/>
    <path class="cls-1" d="M169.13,27.95v-5.14h9.38v-2.92s-18.82-.02-18.83-.03l.12-7h18.7v-2.9h-20.15s-.05,0-.08,0c-1,0-1.81.85-1.81,1.9,0,.05.01.47.01.52l-.09,1.02v7.37c0,.05-.02.1-.02.15,0,1.05.81,1.9,1.81,1.9.03,0,.06,0,.08,0h7.57v5.14h-10.36v3.02h24.3v-3.02h-10.65Z"/>
    <path class="cls-1" d="M145.44,14.4s-.01.03-.02.05h-16.07v2.9h17.52s.05.01.08.01c1,0,1.81-.86,1.81-1.91,0-.05,0-.1-.01-.15v-6.88h-3.3v1.53h-17.17v2.9h17.17v1.55Z"/>
  </g>
  <g>
    <path class="cls-2" d="M31.71,1.29l12.56,8.18s6.4,3.44.71,6.52c0,0-2.61,2.19-11.02,1.47,0,0-4.27-.73-6.52-2.27,0,0-2.96-1.58-.59-2.99,0,0,3.56-1.19-2.73-1.78,0,0-6.52-.71-9.25-.24,0,0-4.62.24-6.75.95L23.89.85s4.03-2.17,7.82.44Z"/>
    <path class="cls-2" d="M2.43,14.32s3.32-2.49,10.79-2.6c0,0,4.62-.24,7.23.59,0,0-4.38,5.21,2.97,9.24,0,0,4.5,3.21,13.87,3.8,0,0,5.81.59,8.41.23l-12.56,7.95s-4.78,4.45-12.09-1.31L2.2,19.89s-5.1-2.25.24-5.57Z"/>
    <path class="cls-2" d="M25.43,17.88s8.77,4.62,20.03,1.19c0,0,4.5-.71,7.23-4.27,0,0,5.22,2.37,1.54,4.98,0,0-.24,1.42-9.24,2.61,0,0-6.28.36-9.13-.48,0,0-8.18-1.42-10.43-4.03Z"/>
  </g>
</svg>