<?xml version="1.0" encoding="UTF-8"?>
<svg id="_레이어_2" data-name="레이어 2" xmlns="http://www.w3.org/2000/svg" viewBox="0 0 142.58 35.12">
  <defs>
    <style>
      .cls-1 {
        fill: #0070bd;
      }

      .cls-2 {
        fill: #615f5f;
      }

      .cls-3 {
        fill: #00a7ac;
      }
    </style>
  </defs>
  <path class="cls-1" d="M15.73,26.07c4.21,2.84,10.8,3.82,16.94.44-3.79,6.41-11.41,9.93-19.05,8.17C4.18,32.5-1.72,23.08.45,13.62,2.55,4.49,11.43-1.33,20.55.26c0,0,3.58.62,5.42,3.79.69,1.14,1.24,2.47,1.6,3.96v.04c.44,2,.45,4.13-.04,6.25-.75,3.29-2.61,6.36-5.02,8h-.01c.84-.85,1.45-1.95,1.75-3.21.85-3.69-1.46-7.37-5.15-8.22-3.7-.85-7.37,1.45-8.22,5.15-.25,1.07-.28,2.13-.08,3.13,0,0,.65,4.17,4.93,6.92h0Z"/>
  <path class="cls-3" d="M14.23,23.66c1.58.88,3.48,1.28,3.48,1.28,4.3.99,8.62-.09,11.9-2.55l.02-.02c1.46-1.04,2.76-2.36,3.79-3.95.66-1.02,1.19-2.09,1.57-3.19.48,4.38-.44,6.86-.44,6.86-1.21,1.45-2.48,2.32-2.48,2.32-3.27,2.41-7.49,3.36-11.75,2.38,0,0-3.69-.77-6.09-3.14h0Z"/>
  <path class="cls-3" d="M18.54,24.43c6.73.54,13.04-4.34,14.61-10.49,0,0,.47-1.94.49-3.37,0,0-1.4-3.67-5.21-6.74,1.48,2.91,1.98,6.33,1.19,9.75-1.19,5.19-5.06,9.08-9.8,10.54-.4.12-.85.23-1.28.3h0Z"/>
  <g>
    <polygon class="cls-2" points="62.23 3.67 62.23 14.1 59.85 14.1 59.85 3.67 62.23 3.67 62.23 3.67"/>
    <polygon class="cls-2" points="141.23 3.67 141.23 21.17 138.85 21.17 138.85 3.67 141.23 3.67 141.23 3.67"/>
    <polygon class="cls-2" points="79.08 3.67 79.08 7.01 75.6 7.01 75.6 9.05 79.08 9.05 79.08 14.1 81.47 14.1 81.47 3.67 79.08 3.67 79.08 3.67"/>
    <polygon class="cls-2" points="75.48 13.14 71.55 6.48 74.87 6.48 74.87 4.44 71.26 4.44 71.26 3.07 68.87 3.07 68.87 4.44 65.27 4.44 65.27 6.48 68.56 6.48 64.64 13.14 67.22 13.14 70.05 8.32 72.89 13.14 75.48 13.14 75.48 13.14"/>
    <polygon class="cls-2" points="137.86 16.08 131.77 4.25 131.74 4.25 129.12 4.25 129.09 4.25 123 16.08 125.65 16.08 130.43 6.8 135.21 16.08 137.86 16.08 137.86 16.08"/>
    <polygon class="cls-2" points="105.63 14.63 105.63 16.67 119.1 16.67 119.1 21.12 121.49 21.12 121.48 14.64 105.63 14.63 105.63 14.63"/>
    <polygon class="cls-2" points="49.42 14.99 47.03 14.99 47.03 20.73 62.35 20.73 62.35 18.7 49.42 18.7 49.42 14.99 49.42 14.99"/>
    <polygon class="cls-2" points="81.37 18.7 68.21 18.7 68.21 14.99 65.82 14.99 65.82 20.73 81.37 20.73 81.37 18.7 81.37 18.7"/>
    <polygon class="cls-2" points="115.36 3.78 115.36 5.83 119.1 5.83 119.1 9.15 115.36 9.15 115.36 11.19 119.1 11.19 119.1 13.67 121.49 13.67 121.49 3.78 115.36 3.78 115.36 3.78"/>
    <polygon class="cls-2" points="98.52 3.79 98.53 13.57 100.92 13.57 100.92 5.83 102.6 5.83 102.6 3.78 98.52 3.79 98.52 3.79"/>
    <polygon class="cls-2" points="84.37 6.01 93.57 6.01 93.57 10.55 89.74 10.55 89.74 7.59 87.35 7.59 87.35 10.55 83.95 10.55 83.95 12.58 95.96 12.58 95.96 3.97 84.37 3.97 84.37 6.01 84.37 6.01"/>
    <path class="cls-2" d="M50.58,3.7c-2.75,0-4.98,2.23-4.98,4.98s2.23,4.98,4.98,4.98,4.98-2.23,4.98-4.98-2.23-4.98-4.98-4.98ZM50.58,11.47c-1.54,0-2.78-1.25-2.78-2.78s1.25-2.78,2.78-2.78,2.78,1.25,2.78,2.78-1.25,2.78-2.78,2.78Z"/>
    <path class="cls-2" d="M109.34,3.45c-2.75,0-4.98,2.23-4.98,4.98s2.23,4.98,4.98,4.98,4.98-2.23,4.98-4.98-2.23-4.98-4.98-4.98ZM109.34,11.22c-1.54,0-2.78-1.25-2.78-2.78s1.24-2.78,2.78-2.78,2.78,1.25,2.78,2.78-1.24,2.78-2.78,2.78Z"/>
    <path class="cls-2" d="M96.81,11.32c-2.75,0-4.98,2.23-4.98,4.98s2.23,4.98,4.98,4.98,4.98-2.23,4.98-4.98-2.23-4.98-4.98-4.98ZM96.81,19.09c-1.54,0-2.78-1.25-2.78-2.78s1.25-2.78,2.78-2.78,2.78,1.25,2.78,2.78-1.24,2.78-2.78,2.78Z"/>
    <g>
      <polygon class="cls-2" points="47.11 24.22 46.98 24.22 46.98 24.34 46.98 31.51 46.98 31.63 47.11 31.63 48.02 31.63 48.14 31.63 48.14 31.51 48.14 24.34 48.14 24.22 48.02 24.22 47.11 24.22"/>
      <path class="cls-2" d="M51.55,26.27c-.58,0-.96.15-1.25.52v-.42h-1.13v.14c.04.4.06.72.06,1.03v4.09h1.07v-3.09c0-.93.28-1.35.89-1.35.52,0,.76.26.76.85v3.6h1.07v-3.6c0-.82-.17-1.76-1.47-1.76Z"/>
      <path class="cls-2" d="M57.52,29.71h-.98v.13c.01.35-.07.62-.23.79-.14.14-.3.18-.36.18-.72,0-.92-.47-.92-2.09,0-1.42.48-1.54.92-1.54.08,0,.23.02.36.15.15.15.22.42.21.77v.13s.13,0,.13,0h.97v-.12c.03-.59-.11-1.06-.42-1.38-.29-.3-.71-.46-1.24-.46-1.87,0-2.03,1.39-2.03,2.81,0,2.2.81,2.66,2.03,2.66.35,0,.86-.13,1.22-.51.33-.34.49-.81.48-1.39v-.12h-.13Z"/>
      <path class="cls-2" d="M60.88,26.27c-.52,0-.93.1-1.27.52v-2.57h-1.07v7.42h1.07v-3.07c0-.95.28-1.37.9-1.37.54,0,.77.28.77.93v3.52h1.07v-3.68c0-1.13-.48-1.69-1.46-1.69Z"/>
      <path class="cls-2" d="M65.17,26.27c-1.87,0-2.03,1.39-2.03,2.81,0,2.2.81,2.66,2.03,2.66s1.86-.62,1.87-1.74v-.13h-1.14v.12c-.03.4-.24.83-.75.83-.47,0-.85-.12-.88-1.43h2.81v-.55c0-1.59-.32-2.57-1.91-2.57ZM65.09,27.14c.5,0,.85.11.87,1.38h-1.69c.04-1.38.55-1.38.82-1.38Z"/>
      <path class="cls-2" d="M69.77,26.27c-1.87,0-2.03,1.39-2.03,2.81,0,2.2.81,2.66,2.03,2.66s2.03-.45,2.03-2.66c0-1.42-.16-2.81-2.03-2.81ZM69.77,30.81c-.72,0-.92-.47-.92-2.09,0-1.42.48-1.54.92-1.54s.93.12.93,1.54c0,1.62-.21,2.09-.93,2.09Z"/>
      <path class="cls-2" d="M74.86,26.27c-.58,0-.96.15-1.25.52v-.42h-1.13v.14c.05.38.06.72.06,1.03v4.09h1.07v-3.09c0-.93.28-1.35.9-1.35.52,0,.76.26.76.85v3.6h1.07v-3.6c0-.82-.17-1.76-1.47-1.76Z"/>
      <polygon class="cls-2" points="84.46 24.22 84.37 24.22 84.34 24.31 82.63 29.95 80.93 24.31 80.91 24.22 80.81 24.22 79.33 24.22 79.21 24.22 79.21 24.34 79.21 31.51 79.21 31.63 79.33 31.63 80.19 31.63 80.31 31.63 80.31 31.51 80.31 25.91 82.05 31.54 82.08 31.63 82.17 31.63 83.04 31.63 83.13 31.63 83.15 31.54 84.93 25.9 84.93 31.51 84.93 31.63 85.06 31.63 85.97 31.63 86.1 31.63 86.1 31.51 86.1 24.34 86.1 24.22 85.97 24.22 84.46 24.22"/>
      <path class="cls-2" d="M89.02,26.27c-1.87,0-2.03,1.39-2.03,2.81,0,2.2.81,2.66,2.03,2.66s1.86-.62,1.87-1.74v-.13h-1.14v.12c-.03.4-.24.83-.75.83-.47,0-.86-.12-.88-1.43h2.81v-.55c0-1.59-.32-2.57-1.91-2.57ZM88.95,27.14c.5,0,.85.11.87,1.38h-1.69c.04-1.26.44-1.38.82-1.38Z"/>
      <path class="cls-2" d="M93.7,30.75c-.09,0-.16.02-.19.02-.62,0-.62-.28-.62-.6v-2.94h1.09v-.87h-1.09v-1.4l-.18.08-.81.37-.07.03v.92h-.82v.87h.82v3.44c0,.47.22,1.02,1.25,1.02.17,0,.34-.02.5-.04.1-.01.21-.03.31-.04h.12v-.89l-.14.02-.16.02Z"/>
      <path class="cls-2" d="M95.69,26.81v-.44h-1.07v5.26h1.07v-3.08c0-.82.34-1.23,1-1.23.07,0,.13,0,.19.02,0,0,.08.01.08.01.05,0,.1.01.14.02l.15.02v-1.12h-.13c-.62,0-1.08.05-1.44.54Z"/>
      <path class="cls-2" d="M99.49,26.27c-1.87,0-2.03,1.39-2.03,2.81,0,2.2.81,2.66,2.03,2.66s2.03-.45,2.03-2.66c0-1.42-.16-2.81-2.03-2.81ZM99.49,30.81c-.72,0-.93-.47-.93-2.09,0-1.42.48-1.54.93-1.54s.92.12.92,1.54c0,1.62-.21,2.09-.92,2.09Z"/>
      <path class="cls-2" d="M104.44,26.27c-.43,0-.77.15-1.04.47v-.37h-1.07v7.16h1.07v-2.22c.28.28.61.43,1,.43,1.78,0,1.78-1.69,1.78-2.82,0-2.35-.93-2.65-1.74-2.65ZM105.08,28.92c0,1.49-.18,1.9-.86,1.9-.72,0-.82-.77-.82-1.6v-.17c0-.56-.01-1.34.33-1.68.12-.12.27-.18.46-.18.83,0,.89.78.89,1.73Z"/>
      <path class="cls-2" d="M108.81,26.27c-1.87,0-2.03,1.39-2.03,2.81,0,2.2.81,2.66,2.03,2.66s2.03-.45,2.03-2.66c0-1.42-.16-2.81-2.03-2.81ZM108.81,30.81c-.72,0-.92-.47-.92-2.09,0-1.42.48-1.54.92-1.54s.93.12.93,1.54c0,1.62-.21,2.09-.93,2.09Z"/>
      <polygon class="cls-2" points="111.69 24.22 111.56 24.22 111.56 24.34 111.56 31.51 111.56 31.63 111.69 31.63 112.5 31.63 112.63 31.63 112.63 31.51 112.63 24.34 112.63 24.22 112.5 24.22 111.69 24.22"/>
      <polygon class="cls-2" points="113.55 24.22 113.42 24.22 113.42 24.34 113.42 25.21 113.42 25.34 113.55 25.34 114.46 25.34 114.58 25.34 114.58 25.21 114.58 24.34 114.58 24.22 114.46 24.22 113.55 24.22"/>
      <polygon class="cls-2" points="113.6 26.37 113.47 26.37 113.47 26.5 113.47 31.51 113.47 31.63 113.6 31.63 114.41 31.63 114.53 31.63 114.53 31.51 114.53 26.5 114.53 26.37 114.41 26.37 113.6 26.37"/>
      <path class="cls-2" d="M117.36,30.75c-.08,0-.16.02-.19.02-.62,0-.62-.28-.62-.6v-2.94h1.09v-.87h-1.09v-1.4l-.18.08-.81.37-.07.03v.92h-.82v.87h.82v3.44c0,.47.22,1.02,1.25,1.02.17,0,.34-.02.5-.04.1-.01.21-.03.31-.04h.12v-.89l-.14.02-.16.02Z"/>
      <path class="cls-2" d="M121.48,30.31v-2.41c0-1.1-.57-1.64-1.75-1.64s-1.78.52-1.82,1.63v.13s.13,0,.13,0h1.02v-.14c-.03-.23.02-.43.14-.56.11-.13.29-.19.51-.19.24,0,.41.06.52.17.2.21.21.59.2.96-.85-.02-1.7.05-2.21.55-.28.28-.43.66-.43,1.14,0,1.19.49,1.77,1.5,1.77.52,0,.89-.16,1.15-.51v.41h1.17l-.02-.14c-.06-.43-.1-.82-.1-1.17ZM120.41,29.14c.02.69-.09,1.18-.34,1.45-.14.15-.33.23-.56.23-.61,0-.66-.61-.66-.8,0-.8.64-.87,1.53-.87h.03Z"/>
      <path class="cls-2" d="M124.83,26.27c-.58,0-.95.15-1.25.52v-.42h-1.13v.14c.05.4.06.72.06,1.03v4.09h1.07v-3.09c0-.93.28-1.35.89-1.35.52,0,.76.26.76.85v3.6h1.07v-3.6c0-.82-.17-1.76-1.47-1.76Z"/>
      <path class="cls-2" d="M133.5,29.26h-1.07v.13c0,1.19-.63,1.37-1,1.37-.63,0-1.16-.14-1.16-1.84v-1.91c0-1.05.14-1.31.18-1.4,0-.02.02-.03.02-.05.03-.08.3-.47.96-.47.17,0,.55.08.71.26.18.21.19.65.18.96v.13s.13,0,.13,0h1.06v-.12c.06-.79-.09-1.35-.44-1.73-.34-.36-.85-.53-1.55-.53-1.68,0-2.43.84-2.43,2.72v2.02c0,2.96,1.55,2.96,2.39,2.96.28,0,1.04,0,1.57-.54.4-.41.59-1.03.58-1.85v-.13h-.13Z"/>
      <polygon class="cls-2" points="134.36 24.22 134.23 24.22 134.23 24.34 134.23 25.21 134.23 25.34 134.36 25.34 135.27 25.34 135.39 25.34 135.39 25.21 135.39 24.34 135.39 24.22 135.27 24.22 134.36 24.22"/>
      <polygon class="cls-2" points="134.41 26.37 134.28 26.37 134.28 26.5 134.28 31.51 134.28 31.63 134.41 31.63 135.22 31.63 135.34 31.63 135.34 31.51 135.34 26.5 135.34 26.37 135.22 26.37 134.41 26.37"/>
      <path class="cls-2" d="M142.4,26.37h-.98l-.03.09-1.09,3.7-1.09-3.7-.03-.09h-1.83v-1.4l-.18.08-.81.37-.07.03v.92h-.82v.87h.82v3.44c0,.47.22,1.02,1.25,1.02.17,0,.34-.02.5-.04.1-.01.21-.03.31-.04h.12v-.89l-.14.02-.16.02c-.08,0-.16.02-.19.02-.62,0-.62-.28-.62-.6v-2.94h.91l1.45,4.27-.55,1.86-.05.16h1.11l.03-.09,2.27-6.9.05-.17h-.17Z"/>
    </g>
  </g>
</svg>