<?xml version="1.0" encoding="UTF-8"?>
<svg id="_레이어_2" data-name="레이어 2" xmlns="http://www.w3.org/2000/svg" viewBox="0 0 202.08 29.99">
  <defs>
    <style>
      .cls-1 {
        fill: #727171;
      }

      .cls-2 {
        fill: #0073bd;
      }

      .cls-3 {
        fill: #231815;
      }

      .cls-4 {
        fill: #009f73;
      }

      .cls-5 {
        fill: #f08300;
      }
    </style>
  </defs>
  <g>
    <path class="cls-5" d="M47.48.08s-.09-.06-.14-.07c-.22-.04-.43.11-.76.37l-.25.19c-.9.48-1.58,2.71-1.73,3.62-.03.01-.05.03-.09.05-.55-.95-1.55-1.83-2.6-1.96.41,1.59,1.81,6.38,3.67,5.96.94-.21,2.91-4.18,2.93-6.37v-.08c-.01-1.16-.55-1.57-1.03-1.71Z"/>
    <path class="cls-4" d="M60.02,24.47c-2.33.1-3.1-.02-5.39.72-.31.1-.59.31-.85.6.03.48-.25,1.24.2,1.42.02,0,.02.07.04.11.13.13.27.15.4.32.09.12.15-.01.25.04.04.04.06.12.11.13.23.11.43.06.65.17.11.09.23.07.34.09.07-.03.16.13.18.17.42.18.82.02,1.24.01,1.29-.02,1.05-.15,2.34-.17,1.09-.02,2.15.15,3.24.13.59-.02,1.23,0,1.82-.04,1.04-.06,2.09.1,3.13.11.52-.01,1.13.19,1.65.23.57,0,1.1-.14,1.67-.03.18.01.37-.01.55.07.17.09.35.17.51.18.5.03.94-.15,1.43-.33.29-.09.58-.14.84-.31.13-.06.25-.27.31-.48.13-.39.24-.82.1-1.26-.03,0-.09.03-.12,0-.05-.08-.04-.26-.11-.26-.21-.08-.42-.1-.62-.15-.28-.06-.56-.18-.83-.24-1.29-.31-8.67-1.43-13.08-1.24Z"/>
    <path class="cls-2" d="M37.46,25.32c.24.05.5.05.63.2.13.12-.12.32-.11.48,0,.38.14.73.13,1.11,0,.07-.03.13-.1.2-.07.1-.18.2-.28.26-.33.21-.75.13-1.13.24-.48.15-1.01.2-1.5.25-.91.1-1.77-.09-2.68-.12-.35-.02-.72.03-1.02.14-.41.11-.83.09-1.25.08-2.18-.08-4.32-.13-6.49-.11-.38.01-.8.06-1.18.08-1.75.1-3.49.07-5.24.11-.61.02-1.21.04-1.83.02-.34,0-.69.02-.99.02-1.29.07-2.62.13-3.91.07-.49,0-1.02,0-1.52.02-1.44.08-2.91.31-4.37.23-1.07-.06-2.07-.3-3.05-.81-.67-.34-1.19-.82-1.57-1.39.25-.32.62-.45,1.04-.56.97-.26,1.88-.43,2.86-.6.83-.14,1.59-.21,2.39-.28,10.45-.93,22.17-.59,26.74-.28,1.54.1,2.97.3,4.44.63Z"/>
    <path class="cls-3" d="M56.33,15.55v.12c.09.24.28.3.47.48h.61c0-.12.14,0,.14-.12.14,0,.35-.06.44-.24h.1c.1-.18.25-.3.45-.3.25-.3.5-.6.75-.89,0-.12.05-.24.15-.3.15-.54.25-1.14.5-1.67,0-.18.1-.42.05-.6.05,0,.1,0,.1-.06-.05-.24.1-.36.2-.48.1,0,.2,0,.25-.12v-.12c.25,0,.53.18.73.42h.33c0,.12.06.12.13.18.26,0,.84-.06,1.1.06,0,.18.26.12.33.3.06.18.06.36.2.54,0,.06,0,.12-.07.18.13.18.26.48.07.66.06.24,0,.54.13.78-.13.12-.07.3-.07.42.13.24.13.54.2.84.26.3.19.66.39.96v.36c.13,0,0,.18.13.18.06.36-.13.78-.13,1.14-.07.06-.13.12-.2.18v.12c-.06,0-.13,0-.13-.06-.13.18-.33.3-.46.48-.13-.06-.2.06-.26.06-.13,0,0,.18-.13.18s-.26.06-.33.12c-.13.06-.58-.06-.71.06l-.06-.06c-.07.06-.13.12-.26.12,0-.06,0-.12-.07-.12-.07.18-.35.3-.52.24-.06-.12-.03-.21-.18-.26-.05-.38-.05-.7-.25-1.03.05,0,.05-.05.05-.1-.05-.16-.15-.33-.15-.49-.15-.21-.2-.54-.4-.7.05-.06-.1-.11-.05-.16-.1-.11-.15-.16-.25-.27-.1,0-.1.05-.15.11-.05.27-.3.49-.35.76l-.05-.06c-.05.16-.2.27-.2.43-.1.05-.15.22-.25.27v.11c-.35.32-.54.84-.96,1.07-.1.22-.37.27-.47.52-.16,0-.4.06-.6.12-.13-.06-.32-.19-.45-.06,0-.06-.07-.06-.13-.06l-.06.06c-.13-.13-.33,0-.52-.06-.39-.31-.85-.44-1.3-.69-.13,0,0-.19-.13-.19-.07,0-.13,0-.19-.06,0-.19.06-.32-.13-.44l.06-.06c0-.06-.06-.06-.13-.06-.06-.38-.26-.69-.32-1.07q-.07-.06-.13-.13c0-.19-.06-.38-.13-.5-.06-.25.16-.46.04-.7,0-.06,0-.12.06-.18-.06-.3,0-.48.06-.78-.06,0-.06-.06-.06-.12.13-.24.13-.48.13-.72.06-.18.19-.36.25-.54l-.06-.06c.12-.12.06-.3.25-.42,0-.06,0-.12-.06-.12,0-.12.12-.18.19-.24.06-.12.3-.59.45-.68l-.05-.07c.11-.15.39-.22.61-.24.17-.02.48.15.58.2.07.14,0,.25.1.43h.09v.12c0,.06.05.06.09.06.05.18.14.36.09.54,0,.06.05.06.1.06-.05.12.09.24.09.36-.09.12,0,.3-.05.48.14.3.09.66.23.96,0,.24.1.48.19.66Z"/>
    <path class="cls-3" d="M32.27,17.77s.24.16.31.27c.07.12.19.26.28.3.13.05.25.12.25.12l.08.17.2.19c.21.06.26-.06.42.16.07,0,.14,0,.14.06l.07-.06c.07.13.21.19.29.25.21,0,.4.08.55.21.07,0,.08.15.08.08.22.06.37.21.51.08.07,0,.14,0,.14.06l.07-.06c.14-.06.17.11.32.04.07,0,.07.06.07.13h.14c.15.13.75-.04.9.09.81.1,2.13-.08,2.13-.08,0-.12.21,0,.21-.11l.07.06c.27.07.56-.24.83-.11q.07-.05.14-.11c.14-.06.34.2.48.02,0,.06.07.06.13.07q0-.06,0-.12c.21-.11.47-.08.63-.25.07,0,.2.02.27.03q.07-.05.15-.11c.36-.08.67-.36,1.07-.46.06-.07.2-.08.26-.21.07,0,.14-.01.2-.02.06-.06.13-.13.19-.2.21.04.39-.25.6-.28,0-.06-.02-.12.05-.13l.08.05q.13-.08.17-.21c.21.03.33-.23.44-.37q.07-.01.14-.02t.12-.14.14-.02c.18-.15.29-.35.55-.46,0-.06-.02-.12.05-.13.14.04.11-.14.17-.21.06-.04.24-.17.29-.11,0,.1.18-.26.17-.16.05.06.28-.55.34-.59l-.57-1.49c-.21.3-.96,1.28-1.36,1.36,0,.31-.34.33-.58.51.01.06.03.12-.04.14-.2.04-.29.27-.42.3-.02-.06-.08-.04-.15-.03-.05.07-.18.1-.22.24-.2.05-.26.24-.38.38l-.08-.05c-.24.22-.59.2-.75.47-.39.18-.72.25-1.12.4-.07,0-.14,0-.14-.05-.06.13-.34.02-.4.15-.41.03-.76-.01-1.16.08,0-.12-.2.01-.21-.11-.34.14-.68-.05-1.02-.05-.07-.06-.21-.06-.28-.18-.34.06-.55,0-.75-.18-.21,0-.34-.18-.55-.24v-.12q-.07-.06-.14-.12c0-.18.21-.18.34-.24.14-.18.51-.14.65-.32,0-.06.18-.18.18-.24.07-.12.12-.24.18-.24.21-.12.07-.26.35-.32,0-.06.22-.21.15-.27.28-.18.27-.29.34-.65.14-.18.34-.38.34-.62.07-.06-.02-.33.12-.39.07-.42-.11-.65-.11-1.08q-.07-.06-.14-.12c0-.18-.14-.31-.07-.49-.2-.18-.16-.24-.36-.42l-.12-.13h-.14c-.07-.12-.28-.18-.28-.3-.27-.06-.55-.24-.82-.37l-.07.06-.07-.06q-.07.06-.14.12c0-.18-.2,0-.27-.12-.14,0-.28-.06-.41.06-.41-.12-.86.09-1.27-.09,0,.12-.28-.06-.28.12-.14.06-.34.06-.4.12h-.2c-.21.18-.38.39-.79.39-.14,0,0,.18-.14.18h-.14c-.34.3-.62.67-1.03.92,0,.06-.14.12-.07.24,0,.06-.07.06-.14.06,0,.12-.07.18-.14.24,0,.06,0,.12.07.12,0,.06-.1.22-.17.22-.07.24-.07.49-.27.61,0,.48-.14.72-.17,1.25.05.28.07.71.07.97.21.13-.05.12.09.31.07,0,.03.11.03.18.07.13.3.22.23.34,0,.06.12.12.19.12.07.13-.11.27.04.33,0,.06.23.01.15.14l.12.28ZM36.75,13.8c-.14.06,0,.19-.14.26l.07.06c-.05.52-.38,1.24-1.11,1.74-.07,0-.14,0-.14-.06,0-.13-.14-.32-.07-.45,0-.06-.07-.06-.14-.06.14-.13-.09-.26-.02-.45-.07,0-.07-.06-.07-.13.21-.13.04-.46.24-.59l-.07-.06c.07-.13.18-.33.31-.46v-.13c.27-.26.64-.37.98-.5.07,0,.14,0,.14.06.21.26.07.51,0,.77Z"/>
    <path class="cls-3" d="M48.67,13.22c0,.09.02.17.03.25.47.45.38,1.23.69,1.79-.15.19-.04.43-.11.61q.09.07.18.15c-.12.44.17.83.13,1.26q-.08.09-.15.19c0,.08.02.17.1.15l-.08.09.09.07-.07.1c.08-.01.09.07.1.16-.15.19.13.41-.11.61.09.07.1.16.11.24-.23.2-.09.56-.25.82l.08.08-.08.09-.09-.08c-.08,0-.08.09-.08.17.09.17.26.32.1.5l.09.08c-.25.18-.32.4-.4.64q-.08.09-.15.17c.08.08.08.16.08.24-.15.17-.23.34-.38.51,0,.08.08.24-.07.33l.08.08c-.08.17-.15.41-.22.58.08,0,.08.08.08.16-.23.17-.5.36-.42.68-.15.25-.34.34-.5.59.08.16-.28.23-.27.39,0,.16-.23.09-.15.25l.08.08q-.08,0-.16.01-.08.17-.23.25c0,.08,0,.16-.08.17-.14.11-.21.23-.36.4.08.08-.25.25-.17.25-.09.08-.17.15-.19.31-.08,0-.15,0-.16.07v.11c-.05.06-.06.05-.18.08-.61.7-1.51.97-2.12,1.67-.16.07-.33.14-.49.22-.17.07-.11.32-.26.23,0-.08-.21.07-.29.07-.17.15-.43.04-.58.03,0-.08-.09-.06-.16-.15l-.09.07c-.07-.08-.25-.25-.32-.25-.07-.08.08-.17,0-.17l.08-.08c0-.08-.12-.1-.2-.11-.14-.17.16-.04.1-.21l-.31-.03c-.07-.16-.22-.16-.29-.33.02-.16.36-.16.37-.32.16,0,.11-.02.28-.09l-.06-.12c.17-.08.14-.21.22-.21,0,.08.06-.01.14,0,.08,0,.16,0,.17-.07,0-.08.01-.16.1-.24q.08,0,.16,0c.34-.31.12-.1.47-.49q0-.08.02-.16c.08-.08.1-.24.26-.31,0,.08-.02.16.06.17.25-.15.1-.24.04-.4q.09-.08.17-.15c0,.08.13.02.05.02,0,.08.08-.19.16-.19.19-.3.05.06.34-.5.06-.06.21-.12.22-.16-.02,0,.18-.08.11-.16,0-.07.02-.09-.14-.02.09-.16.37-.4.38-.56.23.09.05-.27.2-.26-.08.07-.16-.08-.16,0h.26c.17-.16-.24-.15-.09-.33,0-.08-.03-.13-.1-.12,0-.08-.02-.15.06-.15l.08.08c.08-.08-.07-.35.08-.44,0-.08,0-.16,0-.24.23-.17.13-.15.2-.39l-.08-.08c0,.08.17-.08.09-.07q0-.08,0-.16c.16-.09.27-.63.26-.79,0,.16-.18-.37-.02-.3.23-.34.07-.78.11-1.2-.16-.06.13-.18.04-.33-.08,0-.16.02-.16-.06q.07-.09.14-.18c0-.08-.02-.16-.09-.15,0-.08-.02-.16.06-.17,0-.08-.02-.16-.09-.15q.07-.09.14-.18c0-.08-.09-.07-.16-.06.05-.33-.29-.57-.16-.91-.08,0-.09-.07-.09-.15.21-.27-.07-.6.05-.86-.16-.06-.1-.23-.12-.4.07-.09-.13-.17-.14-.25-.2-.39-.14-.69-.27-1.1-.16.14-.27-1.13-.4-1.62-.2-.32-.07-.67-.19-1,.08-.01.17-.02.16-.11-.11-.24.14-.36.19-.62.17-.02.33-.13.51.02.16-.1.06-.26.05-.34.33-.04.59-.07.92-.12.01.08.02.17.1.16.25-.03.35.13.6.09,0,.09.02.17.1.16.17-.02.26.05.35.13.08-.01.17-.02.16-.11l.09.07.08-.09c.09.07.17.06.26.05.09.07.12.33.28.22.4.63.88,1.17,1.2,1.81Z"/>
    <g>
      <path class="cls-3" d="M11.7,14.72c-.03-.13-.22-.17-.3-.18-.08,0-.23.17-.31.04,0,0-.13.22-.29.33-.11.08-.28.07-.28.07-.04.21-.06.23.12.71.08.02.17.48.26.5-.04-.18.24.38.33.46q.06.01.11.03c.05.02.03.07,0,.12l.25.18c.02.07.08.09.02.18.19.01.31.13.48.2.05.03.02.07-.01.12.05.02.11.05.14,0,.14,0,.04.14.06.21l.08-.02c.02.07.13.12.13.12.17.26.99.57,1.19.79l.08-.04c.06.13.42.16.42.33l.08-.05c.04.06.58.17.73.25.07-.05-.03-.13.05-.17.09.08.27.25.36.33,0,0,.23.02.4.06.21.22.64.08.9.2.03.06.09.08.14.09l.08-.04.03.07c.16-.08.25,0,.35-.1l.03.07.08-.04q.03.06.06.13c.22.05.43.15.66.03.03.07.09.08.14.09q.08-.04.16-.08c.17.04.2.1.39.09l.03.07c.24-.12.41-.09.63-.03.05-.11.17.04.22-.07l.03.07c.19-.13.47-.06.66-.07l.03.07c.08-.04.05,0,.05,0,.16-.08.55-.08.66-.17.22.06.21.1.52.06.06.02.19.04.25.06.25-.17.46-.16.68-.04.24-.05.64-.24.85-.35.06.02.12.04.19.06.09-.03.15-.01.21-.11.27-.1.47-.19.72-.36.03.07.18-.06.21,0q.03-.05.06-.1c.12.04.21-.11.33-.08q.03-.05.06-.1c.19-.06.11-.11.3-.17.16-.11.38-.48.74-.64,0-.12.23-.18.28-.29.02-.05.09-.04.15-.02l-.04-.07c.09-.04.07-.21.15-.14.02-.05.13-.19.08-.2.18-.14.17-.58.43-.64q.02-.06.05-.11c.1-.14.06-.4.12-.43.02-.05,0-.09.05-.08.07-.21.11-.52.18-.8-.05-.01-.03-.07,0-.12.05.01.08-.04.1-.09-.05-.01-.03-.07,0-.12l.08-.04c-.11-.02.01-.17-.09-.19l.07-.04c-.09-.25.04-.51-.05-.76l.07-.04c-.12-.15-.1-.29,0-.44-.04-.07-.02-.12,0-.17-.14-.09.03-.18-.06-.26.05-.16-.12-.32-.02-.47-.07-.13-.08-.19-.16-.31.02-.06.03-.11.05-.17-.05-.01-.11-.02-.09-.08.09-.1,0-.17.02-.28-.11-.02-.05-.11-.09-.18-.03-.29-.11-.52-.29-.77.07-.11-.08-.54-.07-.67l-.11-.06c-.05-.14-.1-.21-.2-.28q0-.07,0-.13c-.05,0-.11,0-.1-.07q0-.07.01-.14l-.06.07c-.1-.07-.15-.21-.14-.35-.2-.28-.27-.48-.56-.89-.11.06,0-.21-.14-.15-.15-.34-.25-.43-.48-.64q0-.07.01-.14t-.12,0c-.06,0-.06-.07-.05-.14-.35-.21-1.61-.39-1.8-.74-.11,0-.22-.07-.28.06q-.05-.07-.1-.14c-.29.2-.54-.15-.81-.23l-.06.07c-.09-.21-.27-.01-.39-.01-.05-.07-.11-.07-.16-.07-.29.13-.55-.02-.8.32l-.05-.07.63,1.17c-.01.06.16.79.33,1.15.06.01.13.15.17.22q-.02.06-.03.13c.09.15.17.3.25.46-.06-.01-.07.05-.08.11.07.22.06.45.13.66.09.08-.01.12.08.22,0,.01-.06.14-.04.15-.04.1.03.23.03.23.03.23.02.05.18.22-.15.18.1.47-.05.65.08.08.09-.04.11.03t-.05.09s.02.07.08.09c.05.13-.04.21.03.34.05.01,0,.18.06.19.01.12.16.15.02.24-.06-.01-.02.22-.08.38.04.06,0,.33-.02.39.05.01.09-.05.07,0q-.02.05-.04.1c.05.01.05.11.03.16,0,.17-.11.25-.17.41-.06.34.12.62-.11.74.08.07-.02.16-.04.22-.08.04-.06.2-.13.24-.09.21-.13.2-.21.41-.14.08-.16.17-.3.25q-.02.05-.04.1c-.02.05-.07.04-.12.03-.09.09-.41.24-.45.34l.03.07c-.19.07-.25.09-.45.21-.21.12-.36.12-.58.23-.19-.05-.35.09-.54.03-.07.04-.15.08-.22.11-.1-.02-.24.05-.31-.03-.09-.02-.07.15-.17.12t-.09-.02l-.02-.07c-.14.08-.26-.01-.41.06l-.02-.06c-.14.07-.26,0-.35.09-.12-.08-.38-.09-.6-.07.02-.05-.02-.06-.08-.07l-.07.05c.02-.05-.41-.02-.46-.03l-.1-.02-.03-.06-.07.04c-.08-.07-.59-.12-.71-.26-.1.09-.19.05-.3.03-.46-.03-1.02-.23-1.07-.24l-.03-.07c-.16.08-.42,0-.5-.14-.06,0-.13-.02-.19-.03-.06-.13-.42-.11-.47-.25,0,0-.18-.12-.26-.22-.12.07-.42-.28-.47-.31h-.2s-.07-.22-.07-.22l-.27-.2c-.11-.2-.22-.05-.25-.22Z"/>
      <path class="cls-3" d="M15.91,6.95c.08,0,.15,0,.22.01.35.36,1.05.26,1.52.49.18-.13.38-.05.55-.11q.06.07.11.14c.41-.12.63.08,1.01.06q.09-.06.19-.12c.07,0,.14.02.12.08l.09-.06.05.08.1-.06c-.02.07.05.08.12.08.19-.12.3.04.52-.14.05.08.12.09.19.1.22-.18.29,0,.56-.08l.05.08.1-.05-.04-.08c.02-.07.1-.05.17-.04.11.1.2.25.4.15l.04.08c.12-.09-.84-.13.66-.18q.1-.04.19-.09c.04.08.11.1.17.12.19-.08.35-.11.54-.19.07.02.17.11.3.01l.04.08c.16-.02.39-.03.55-.05-.03.06-.11-.08-.05-.06.23-.11.48-.25.7-.08.25-.03.36-.16.62-.18.08.12.29-.12.41-.05.12.06.13-.11.2.01l.02.09q.04-.06.08-.11t.29-.06c.06.03.12.07.16.01.14-.05.27-.05.46-.1.02.09.16-.04.12.01.1-.02.19-.04.31.03.04-.05.08-.11.14-.08l.07.05c.06-.01.07-.02.15-.08.8-.07,1.25-.46,2.04-.46.14-.06.28-.13.42-.19.14-.07.27.11.29-.04-.06-.04.16-.09.2-.14.2-.02.32-.36.39-.47-.06-.04,0-.09-.01-.18l.1-.02c-.02-.09-.04-.48,0-.53-.02-.09-.16-.03-.12-.08l-.04-.06c-.06-.04.02-.14.06-.19-.04-.18-.21.02-.28-.11l.14-.22c-.07-.13-.36-.21-.48-.29-.08.11-.07.07-.21.14l-.05-.1c-.14.07-.22-.02-.26.04.06.04-.04.03-.08.08-.04.05-.08.11-.14.07-.06-.04-.11-.07-.21-.06q-.04.06-.08.11c-.39.07-1.26.09-1.35-.03q-.1.02-.19.05c.06.03-.05.1-.02.04.06.03-.17-.03-.21.03-.31,0-.99.07-.86-.02-.16,0-.46.08-.59.01-.04.2-.26-.12-.33,0,.1-.03-.12-.04-.06-.01v.08c-.19.06-.2-.12-.39-.05-.06-.03-.09-.06-.06-.12-.06-.03-.11-.06-.14,0l.03.08c-.1.03-.26-.16-.39-.07-.06-.03-.13-.05-.19-.07-.22.12-.46.12-.69.14l-.04-.08c.07.02-.11.12-.09.06q-.07-.02-.14-.03c-.12.11-.6.11-.74.08.14.03-.27-.24-.25-.1-.34.13-.74-.07-1.1-.07-.02-.14-.18.09-.29,0,.02-.06.05-.13-.02-.14-.09.05-.16.03-.25.08-.07,0-.14-.02-.12-.08-.07,0-.14-.01-.16.05-.07-.01-.14-.02-.12-.08-.09.05-.18.12-.27.18-.07,0-.05-.07-.03-.14-.3.04-.47-.23-.79-.12.02-.06-.05-.07-.12-.07-.27.18-.64-.02-.88.11-.04-.13-.2-.06-.34-.07-.09.06-.14-.1-.21-.1-.33-.14-.6-.07-.96-.14.14-.14-.97-.14-1.4-.22-.27-.14-.59,0-.87-.08-.01.07-.03.14-.11.14-.2-.07-.33.14-.56.2-.03.14-.18.2-.14.32-.1.14-.12.16-.19.16-.06.28-.11.25-.18.53.07,0,.15,0,.13.07-.05.21.07.29.02.49.07,0,.15,0,.13.07-.04.14.02.21.08.29-.02.07-.04.14-.11.13l.05.07-.09.06c.06.07.04.14.02.21.06.07.28.08.17.22.52.3.94.67,1.48.91Z"/>
    </g>
  </g>
  <g>
    <path class="cls-1" d="M85.74,23.14c-.25,0-.42-.02-.64-.06.07.76.09,1.23.09,2-.01,1.4.06,3.07-.16,3.46-.12.19-.26.2-.45.29.03.06.04.1.06.16.02.07.03.1.05.17.06-.03,1.49-.12,1.55-1.49.05-1,.01-1.58.02-2.58,0-.77.04-1.24.07-2.01-.23.04-.35.06-.58.06Z"/>
    <path class="cls-1" d="M88.76,24.48c-.77,0-1.71.37-1.71,1.77,0,.97.5,1.84,1.7,1.83.41,0,.74-.07,1.1-.33l.15-.39-.09-.06c-.25.25-.64.33-.83.33-1.01,0-1.01-1.26-1-1.33h2.04c.05-.28.1-1.82-1.36-1.82ZM89.17,25.95h-1.08s0-1.16.58-1.16c.53,0,.5,1.16.5,1.16Z"/>
    <path class="cls-1" d="M91.58,24.6c-.21,0-.34,0-.54-.03.03.61.04.96.04,1.57,0,1.06.08,2.36-.12,2.73-.11.2-.26.26-.45.38l.07.24c.32-.01.77-.23,1.04-.47.61-.55.42-1.51.42-2.92,0-.59.03-.94.07-1.53-.2.03-.33.03-.53.03Z"/>
    <path class="cls-1" d="M91.59,22.73c-.3,0-.55.25-.55.55,0,.26.21.55.55.55.31,0,.56-.24.56-.55s-.25-.55-.55-.55Z"/>
    <path class="cls-1" d="M95.61,24.62c-.2,0-.32-.01-.51-.05,0,0,.05,1.15.03,1.85-.01.48-.11,1.06-.64,1.05-.55,0-.57-.58-.57-1.05,0-.74.06-1.82.08-1.85-.2.03-.32.05-.51.05-.22,0-.35-.01-.56-.05,0,0,.02.87.02,1.41,0,.91-.26,2.12,1.09,2.12.57,0,.98-.43,1.09-.61l-.03.49c.19-.03.3-.04.49-.04s.3,0,.49.04c-.02-.61-.03-.91-.03-1.51,0-.73.02-1.17.06-1.89-.19.03-.31.05-.51.05Z"/>
    <path class="cls-1" d="M101.02,25.06c-.26-.14-1.1-.41-1.1-.98,0-.4.31-.65.73-.68.35-.02.79.22.89.62h.11s.21-.71.21-.71c-.37-.28-.71-.34-1.18-.34-.78,0-1.59.57-1.58,1.42.02.78.23,1.11,1.06,1.52.46.22,1.1.45,1.08,1.03,0,.4-.3.75-.85.72-.48-.02-.9-.3-.97-.78h-.13c-.01.17-.03.27-.07.44-.04.18-.07.3-.13.48.4.24.7.28,1.16.3,1.08.03,1.86-.62,1.86-1.55,0-.71-.28-1.03-1.1-1.47Z"/>
    <path class="cls-1" d="M104.74,24.5c-.6,0-.84.27-1.08.7l.05-.63c-.19.05-.31.06-.5.06s-.29-.02-.47-.06c.05,1.13.05,1.79.04,2.91-.01.97-.03,1.54-.09,2.5.2-.03.32-.04.51-.04.21,0,.33.01.53.05,0-.35-.01-.55-.01-.9,0-.56,0-.89-.01-1.45.26.35.41.55.99.54.92,0,1.4-.84,1.4-1.87,0-1.12-.48-1.82-1.36-1.82ZM104.32,27.72c-.56,0-.63-.74-.63-1.31,0-.62.16-1.46.68-1.46.6,0,.67.8.67,1.4s-.14,1.36-.72,1.36Z"/>
    <path class="cls-1" d="M108.46,24.48c-.77,0-1.71.37-1.71,1.77,0,.97.5,1.84,1.7,1.83.41,0,.74-.07,1.1-.33l.15-.39-.09-.06c-.25.25-.64.33-.83.33-1.02,0-1.02-1.26-1-1.33h2.04c.05-.28.1-1.82-1.36-1.82ZM108.87,25.95h-1.08s0-1.16.58-1.16c.53,0,.5,1.16.5,1.16Z"/>
    <path class="cls-1" d="M112.45,24.85c.68,0,.7.63.72.71l.17.03.28-.75c-.41-.26-.79-.33-1.22-.33-.94,0-1.9.55-1.9,1.8,0,.98.61,1.78,1.81,1.78.41,0,.67-.05,1.03-.27l.16-.42-.12-.09c-.24.26-.51.33-.86.33-.66,0-.93-.63-.93-1.39,0-.63.25-1.38.85-1.38Z"/>
    <path class="cls-1" d="M115.68,24.57c-.21.03-.33.03-.54.03s-.33,0-.54-.03c.03.61.03.95.03,1.57,0,.72-.03,1.12-.07,1.84.2-.03.33-.05.54-.05s.34.02.55.05c-.04-.74-.06-1.13-.04-1.87.01-.59.03-.94.08-1.53Z"/>
    <path class="cls-1" d="M115.13,22.68c-.31,0-.56.25-.56.56,0,.28.22.58.56.58.31,0,.58-.25.58-.56s-.26-.57-.57-.57Z"/>
    <path class="cls-1" d="M119.48,27.66c-.09-.06-.12-.18-.12-.31v-1.86c0-.64-.53-1-1.31-1-.23,0-.94.08-1.3.47l.09.43h.06c.15-.26.64-.4.86-.41.32,0,.66.26.65.61,0,.46-.5.4-.87.51-.21.07-1.04.23-1.04,1,0,.53.32.97.98.97.37,0,.74-.17.94-.53.12.31.35.53.68.53.04,0,.46-.03.67-.21v-.18c-.11.04-.24,0-.29-.03ZM118.42,26.93c0,.33-.18.67-.53.67-.37,0-.39-.3-.39-.56,0-.28.09-.54.31-.64.23-.11.59-.25.61-.25v.78Z"/>
    <path class="cls-1" d="M121.73,22.55c-.2.03-.33.05-.54.05s-.33-.02-.53-.05c.05,1.11.06,1.81.05,2.93,0,.99-.02,1.51-.07,2.49.2-.04.32-.05.52-.05.22,0,.35,0,.56.05-.02-.99-.04-1.53-.06-2.52-.02-1.11.03-1.8.05-2.9Z"/>
    <path class="cls-1" d="M126.82,25.06c-.26-.14-1.1-.41-1.1-.98,0-.4.3-.65.73-.68.35-.02.79.22.89.62h.11s.21-.71.21-.71c-.38-.28-.7-.34-1.18-.34-.78,0-1.6.57-1.57,1.42.02.78.23,1.11,1.05,1.52.46.22,1.1.45,1.08,1.03,0,.4-.29.75-.85.72-.48-.02-.9-.3-.97-.78h-.13c-.01.17-.03.27-.07.44-.04.18-.07.3-.13.48.39.24.7.28,1.16.3,1.08.03,1.85-.62,1.85-1.55,0-.71-.28-1.03-1.1-1.47Z"/>
    <path class="cls-1" d="M130.27,24.48c-.77,0-1.71.37-1.71,1.77,0,.97.5,1.84,1.7,1.83.41,0,.74-.07,1.1-.33l.15-.39-.09-.06c-.24.25-.64.33-.83.33-1.01,0-1.01-1.26-1-1.33h2.04c.05-.28.1-1.82-1.36-1.82ZM130.69,25.95h-1.08s0-1.16.58-1.16c.53,0,.5,1.16.5,1.16Z"/>
    <path class="cls-1" d="M133.63,22.55c-.2.03-.33.05-.53.05s-.33-.02-.53-.05c.05,1.11.06,1.81.05,2.93,0,.99-.02,1.51-.07,2.49.2-.04.32-.05.53-.05.22,0,.36,0,.56.05-.02-.99-.04-1.53-.06-2.52-.02-1.11.03-1.8.04-2.9Z"/>
    <path class="cls-1" d="M134.95,24.62h-.51c.02.07.01.11.01.17,0,.07-.01.13-.03.19h.53c-.01.54-.01.85-.03,1.38-.02.81-.05.96-.07,1.6.19-.03.32-.04.51-.03.21,0,.34,0,.55.03,0-.55-.03-1.02-.03-1.57,0-.62.03-.77.03-1.39h.68c-.02-.07-.02-.11-.02-.19,0-.07,0-.12.03-.18h-.72l-.22-.74c-.11-.37.12-.51.38-.5.24.01.52.1.62.22l.11-.06c0-.17,0-.28,0-.45,0-.16.03-.28.04-.44-.13-.03-.22-.03-.34-.04-1.24-.06-1.55,1.95-1.54,2Z"/>
    <path class="cls-1" d="M139.57,25.33c-.15,0-.71.03-1.15.03-.48,0-.91-.06-1.21-.04.02.12.04.25.04.41,0,.17-.02.43-.02.44.43-.03.68-.05,1.11-.05.48,0,.77.01,1.25.05-.02-.07-.06-.26-.06-.43,0-.16.02-.28.06-.42Z"/>
    <path class="cls-1" d="M144.44,25.85c-.23,0-.37,0-.58-.05.04.37.05.59.05.95,0,.3,0,.47-.02.77-.29.12-.49.15-.8.15-.16,0-1.69-.07-1.69-2.04,0-.99.54-2.18,1.8-2.18.57,0,1.02.22,1.39.69l.09.02.18-.72c-.56-.34-1.12-.44-1.66-.44-1.58,0-2.96.79-2.96,2.73,0,1.42,1.27,2.34,3.04,2.34.95,0,1.63-.31,1.64-.32-.03-.38-.03-.6-.03-.98,0-.39.03-.62.07-1-.19.05-.32.06-.51.07Z"/>
    <path class="cls-1" d="M147.36,24.45c-1.05,0-1.75.84-1.75,1.82,0,1.13.62,1.79,1.73,1.78,1.17,0,1.76-.76,1.76-1.87,0-1.04-.64-1.73-1.74-1.73ZM147.33,27.75c-.49,0-.65-.65-.65-1.5,0-.64.13-1.49.7-1.49s.69.85.69,1.44c0,.82-.18,1.56-.74,1.56Z"/>
    <path class="cls-1" d="M151.91,24.57s-.22.68-.36,1.11c-.19.56-.51,1.43-.51,1.43,0,0-.27-.73-.41-1.21-.16-.51-.37-1.33-.37-1.33-.19.04-.32.05-.52.06-.22,0-.36-.01-.58-.06.27.68.42,1.09.66,1.77.23.64.35.97.57,1.63.15-.03.25-.04.4-.04.13,0,.22.02.35.04.26-.68.41-1.06.67-1.74.24-.64.39-1.02.63-1.67-.09.03-.14.04-.23.04-.1,0-.18,0-.28-.04Z"/>
    <path class="cls-1" d="M154.22,24.48c-.77,0-1.71.37-1.71,1.77,0,.97.5,1.84,1.7,1.83.41,0,.74-.07,1.1-.33l.15-.39-.09-.06c-.25.25-.64.33-.83.33-1.01,0-1.01-1.26-1-1.33h2.04c.05-.28.1-1.82-1.36-1.82ZM154.63,25.95h-1.08s0-1.16.58-1.16c.53,0,.5,1.16.5,1.16Z"/>
    <path class="cls-1" d="M158.03,24.51c-.5.21-.74.74-.76.92l.02-.86c-.16.03-.27.05-.43.05-.2,0-.32-.01-.51-.05.03.62.03.93.03,1.55,0,.72-.01,1.14-.06,1.86.2-.03.31-.03.51-.03s.32,0,.51.03c0-.05-.05-.8-.03-1.32.02-.5-.07-.99.45-1.2.22-.09.41-.05.62.07l.07-.07c-.03-.19-.03-.3-.03-.49,0-.19.02-.29.05-.48-.02,0-.29-.03-.44.03Z"/>
    <path class="cls-1" d="M161.07,24.48c-.57,0-.98.43-1.08.61l.02-.52c-.18.03-.3.05-.49.05s-.3-.01-.49-.05c.03.61.03.94.03,1.55,0,.73-.02,1.13-.06,1.86.19-.03.31-.04.51-.04s.31,0,.51.04c0,0-.05-1.12-.03-1.83,0-.47.1-1.06.63-1.04.55,0,.56.59.57,1.04,0,.75-.07,1.79-.08,1.83.19-.03.31-.05.51-.05.21,0,.34.01.55.05,0,0-.02-.95-.02-1.53,0-.87.16-1.97-1.09-1.97Z"/>
    <path class="cls-1" d="M164.28,24.57c-.21.03-.33.03-.54.03s-.34,0-.55-.03c.03.61.04.95.04,1.57,0,.72-.03,1.12-.07,1.84.2-.03.33-.05.54-.05s.34.02.54.05c-.05-.74-.06-1.13-.05-1.87.01-.59.03-.94.09-1.53Z"/>
    <path class="cls-1" d="M163.73,22.68c-.31,0-.56.25-.56.56,0,.28.21.58.56.58.31,0,.57-.25.57-.56s-.26-.57-.57-.57Z"/>
    <path class="cls-1" d="M167.13,24.48c-.57,0-.98.43-1.08.61l.02-.52c-.19.03-.3.05-.49.05s-.3-.01-.49-.05c.03.61.03.94.03,1.55,0,.73-.02,1.13-.06,1.86.19-.03.31-.04.51-.04s.31,0,.52.04c0,0-.05-1.12-.03-1.83,0-.47.1-1.06.63-1.04.55,0,.56.59.57,1.04,0,.75-.06,1.79-.08,1.83.19-.03.31-.05.51-.05.21,0,.34.01.55.05,0,0-.03-.95-.03-1.53,0-.87.15-1.97-1.09-1.97Z"/>
    <path class="cls-1" d="M172.14,24.55c-.32.01-.51.01-.83.01-.54,0-.54-.06-.9-.06-.62,0-1.48.18-1.49,1.14,0,.93.86,1.09.88,1.11v.07s-.67.18-.67.67c0,.29.19.51.48.59-.45.09-.79.43-.79.89,0,.74.83.93,1.51.93,1.01,0,1.81-.69,1.81-1.49,0-.34-.15-.64-.46-.81-.49-.28-1.8.09-1.77-.52.03-.53.64-.05,1.31-.41.37-.19.62-.53.62-.99,0-.35-.12-.6-.4-.81l.67.03.04-.33ZM170.4,28.13c.43,0,.9.11.9.64s-.39.84-.97.84c-.49,0-.88-.37-.88-.83,0-.68.5-.66.94-.65ZM170.38,26.55c-.38,0-.48-.48-.48-.87s.11-.9.51-.9.44.52.44.91-.08.86-.47.86Z"/>
    <path class="cls-1" d="M176.72,23.07c-1,.06-1.39,0-1.42.01.04.95.02,1.46.04,2.42.02.98-.02,1.5-.07,2.47.23,0,.37-.02.6-.02s.37,0,.6.02c-.02-.51-.03-.76-.05-1.26-.01-.33-.02-.53-.02-.85.11.06,2.28.23,2.28-1.56,0-.86-.6-1.32-1.95-1.23ZM176.4,25.46l.02-2.02c.98,0,1.1.44,1.1.94,0,.8-.52,1.08-1.11,1.08Z"/>
    <path class="cls-1" d="M180.94,24.51c-.5.21-.74.74-.76.92l.02-.86c-.17.03-.27.05-.43.05-.2,0-.32-.01-.51-.05.03.62.04.93.04,1.55,0,.72-.01,1.14-.06,1.86.2-.03.31-.03.51-.03s.32,0,.52.03c0-.05-.05-.8-.04-1.32.02-.5-.07-.99.46-1.2.22-.09.41-.05.62.07l.07-.07c-.03-.19-.04-.3-.03-.49,0-.19.02-.29.05-.48-.02,0-.29-.03-.44.03Z"/>
    <path class="cls-1" d="M183.52,24.45c-1.05,0-1.75.84-1.75,1.82,0,1.13.62,1.79,1.73,1.78,1.17,0,1.77-.76,1.77-1.87,0-1.04-.63-1.73-1.74-1.73ZM183.49,27.75c-.49,0-.65-.65-.65-1.5,0-.64.13-1.49.7-1.49s.69.85.69,1.44c0,.82-.19,1.56-.74,1.56Z"/>
    <path class="cls-1" d="M188.08,24.57s-.22.68-.36,1.11c-.19.56-.51,1.43-.51,1.43,0,0-.27-.73-.41-1.21-.16-.51-.38-1.33-.38-1.33-.19.04-.31.05-.52.06-.22,0-.35-.01-.57-.06.27.68.42,1.09.66,1.77.23.64.35.97.57,1.63.15-.03.25-.04.4-.04.13,0,.22.02.35.04.26-.68.41-1.06.66-1.74.25-.64.39-1.02.63-1.67-.08.03-.14.04-.23.04-.1,0-.17,0-.27-.04Z"/>
    <path class="cls-1" d="M190.4,24.57c-.21.03-.33.03-.54.03s-.34,0-.54-.03c.02.61.03.95.03,1.57,0,.72-.03,1.12-.07,1.84.2-.03.33-.05.54-.05s.33.02.54.05c-.05-.74-.06-1.13-.05-1.87.02-.59.03-.94.09-1.53Z"/>
    <path class="cls-1" d="M189.85,22.68c-.31,0-.56.25-.56.56,0,.28.22.58.56.58.31,0,.57-.25.57-.56s-.26-.57-.57-.57Z"/>
    <path class="cls-1" d="M193.25,24.48c-.57,0-.98.43-1.08.61l.02-.52c-.19.03-.3.05-.49.05s-.3-.01-.49-.05c.03.61.03.94.03,1.55,0,.73-.02,1.13-.06,1.86.19-.03.31-.04.51-.04s.31,0,.51.04c0,0-.05-1.12-.03-1.83,0-.47.1-1.06.63-1.04.55,0,.56.59.57,1.04,0,.75-.06,1.79-.08,1.83.19-.03.31-.05.51-.05.21,0,.34.01.55.05,0,0-.03-.95-.03-1.53,0-.87.16-1.97-1.09-1.97Z"/>
    <path class="cls-1" d="M197,24.85c.68,0,.7.63.72.71l.17.03.28-.75c-.41-.26-.78-.33-1.22-.33-.94,0-1.9.55-1.9,1.8,0,.98.61,1.78,1.81,1.78.41,0,.67-.05,1.03-.27l.16-.42-.12-.09c-.25.26-.51.33-.86.33-.67,0-.94-.63-.94-1.39,0-.63.25-1.38.86-1.38Z"/>
    <path class="cls-1" d="M200.56,24.48c-.77,0-1.71.37-1.71,1.77,0,.97.5,1.84,1.7,1.83.41,0,.74-.07,1.1-.33l.15-.39-.09-.06c-.25.25-.64.33-.83.33-1.01,0-1.01-1.26-1-1.33h2.04c.05-.28.1-1.82-1.36-1.82ZM200.97,25.95h-1.08s0-1.16.58-1.16c.53,0,.5,1.16.5,1.16Z"/>
    <path class="cls-1" d="M85.69,14.66s1.35-1.52,3.39-4.01c.63.77,2,2.5,2.59,3.77l.07.15,1.39-2.08-.06-.05c-.09-.08-2.06-1.99-3.24-2.76.12-.15,3-3.88,3-3.88l-1.3-1.88s-1.31.26-1.84.26c-.75,0-4.55-.13-4.55-.13l.32,1.65s3.8-.22,4.56-.28c-1.27,2.43-5.51,8.77-5.51,8.77l1.17.46Z"/>
    <path class="cls-1" d="M93.94,8.45c-1.09-.05-2.37-.15-2.37-.15l.12,1.84s2.1-.37,2.29-.41c.12,2.79.14,8.21.14,8.21l1.63-.81v-.06c.03-.51.51-13.97.51-13.97l-2.59-.5s.14,2,.27,5.85Z"/>
    <path class="cls-1" d="M99.7,2.29l-2.8-.21s.48,13.92.49,16.74l1.72-.93.6-15.6Z"/>
    <path class="cls-1" d="M183.69,17.88l.6-15.6-2.91-.21s.48,13.92.49,16.74l1.82-.93Z"/>
    <path class="cls-1" d="M166.53,9.73c.91.17,2.71.43,2.71.43.06-.57.14-1.75.14-1.75,0,0-1.91.14-2.81.21l.24-6.33-2.9-.21s.47,13.92.49,16.74l1.82-.93.31-8.15Z"/>
    <path class="cls-1" d="M104.46,9.83s4.03-1.82,5.84-2.83c1.59.92,4.34,2.5,5.24,2.98l.09.05.97-1.94s-4.51-1.72-4.87-1.86c.3-.16,3.68-1.9,3.68-1.9l-1.81-1.59c-1.5.64-9.42.22-9.42.22l.14,1.35s5.67.03,6.13.03c-2.39,2.16-7.35,4.86-7.35,4.86l1.36.62Z"/>
    <path class="cls-1" d="M108.87,18.81l2.3-1.05s.32-4.33.32-5.69c.18,0,6.34-.02,6.34-.02l.15-1.35c-8.54.36-16.08.05-16.08.05l.51,1.46s2.47-.09,6.01-.12c.35,3.75.42,4.81.44,6.73Z"/>
    <path class="cls-1" d="M200.07,10.76l-.03-1.51s-6.55.33-8.65.23c-.04-.34-.17-4.56-.15-5.07,4.25-.16,8.52.05,8.52.05l.14-1.55-11.37.06.23,7.83,11.31-.05Z"/>
    <path class="cls-1" d="M195.59,15.63s.17-3.96.17-3.96l-2.93-.22s.21,3.22.3,4.19c-2.6,0-7.01-.16-7.01-.16l.16,1.6s8.71-.19,15.7-.09l.09-1.52s-2.88.12-6.5.16Z"/>
    <path class="cls-1" d="M145,10.24l.39-7.22-2.42-.22.07,2.69c-.81.04-2.51.02-3.1,0l-.06-2.25-2.5-.22.69,7.22s4.23-.14,6.93,0ZM143.08,6.8l.06,2.18-3.1.04-.06-2.24c1.02-.02,2.48.01,3.11.03Z"/>
    <path class="cls-1" d="M148.58,11.45l1.73-.72c.08-.69.62-5.85.78-8.44l-2.8-.21c.04.9.07,1.76.09,2.65-.72-.14-1.92-.36-2.22-.37l.07,1.7,2.19-.19c.02.53.03,1.09.05,1.68-.76-.04-1.86.04-2.38-.03l-.03,1.47,2.44-.27c.02.82.05,1.72.08,2.74Z"/>
    <path class="cls-1" d="M147.72,13.37l-.1,1.2c-1.49-.02-5.43-.11-7.16-.19l.77,3.83c3.19-.05,9.29-.05,9.29-.05l.14-1.46c-1.69.27-5.13.26-7.18.24l-.19-1.28c2.78.07,6.57-.08,6.57-.08l.4-3.57c-2.34.19-10.04.04-10.04.04l.32,1.4c1.25-.01,6.14-.05,7.18-.06Z"/>
    <path class="cls-1" d="M162.64,5.8l-1.57-1.82c-.56.1-1.32.27-2.09.25-1.81-.05-3.78-.11-4.93-.17l.37,1.75c2.87-.12,5.06-.32,5.06-.32-.8,1.4-4.16,5.91-6.26,8.64l1.11.51c.85-.78,2.3-2.31,3.78-3.91.73.72,2.16,2.19,3.4,3.8l1.14-2.27c-1.01-.78-2.65-1.83-3.67-2.47,1.5-1.63,2.92-3.2,3.66-3.99Z"/>
    <path class="cls-1" d="M178.12,4.11l.05-1.21c-1.64,0-5.19-.24-6.09-.27l.23,1.59s4.04-.04,5.8-.11Z"/>
    <path class="cls-1" d="M178.46,14.82l1.19-2.18c-1.13-.79-2.63-1.73-3.51-2.27,1.84-1.82,3.37-3.4,3.37-3.4l-1.57-1.63c-.49.13-1.46.24-2.25.22-1.86-.05-3.44-.13-4.72-.14l.38,1.77c1.74-.12,4.82-.43,4.82-.43-1,1.6-3.8,5.09-5.88,7.52l1.17.52c.99-.86,2.33-2.14,3.64-3.41,1.88,1.72,3.34,3.43,3.34,3.43Z"/>
    <path class="cls-1" d="M133.26,8.83l-.06-1.43c-1.33.17-6.66.19-8.51.1v-1.2c2.59,0,5.39.05,8.43.18v-1.39c-2.52.11-4.7.2-8.4.07v-1.03c2.22.06,5.9.11,8.48.02l.04-1.36c-5,.11-9.72.13-11.2-.1l.3,6.04c1.48.05,6.45-.03,10.94.09Z"/>
    <path class="cls-1" d="M130.75,14.51s.2,3.36.17,4.31l2.09-1.01.54-4.63s-9.32.07-11.66.03l.23,1.33c4.44-.13,8.63-.03,8.63-.03Z"/>
    <path class="cls-1" d="M135.53,11.62l.15-1.35c-8.54.36-15.87.05-15.87.05l.51,1.46c7.87-.31,15.21-.16,15.21-.16Z"/>
  </g>
</svg>