<?xml version="1.0" encoding="UTF-8"?>
<svg id="_레이어_2" data-name="레이어 2" xmlns="http://www.w3.org/2000/svg" viewBox="0 0 171.55 43.1">
  <defs>
    <style>
      .cls-1 {
        fill: #6e6c70;
      }

      .cls-2 {
        fill: #d71e33;
      }
    </style>
  </defs>
  <path class="cls-1" d="M38.26,21.58c0,.09.07.16.16.16h7.82c.09,0,.16-.07.16-.16V1.81c0-.09-.07-.16-.16-.16h-3.69c-.09,0-.16.07-.16.16v16.38c0,.06-.05.11-.11.11h-3.86c-.09,0-.16.07-.16.16v3.12Z"/>
  <path class="cls-1" d="M26.06,28.79h20.63c.1,0,.16-.06.16-.16v-3.24c0-.1-.06-.16-.16-.16h-17.05l-3.57,3.56h0Z"/>
  <path class="cls-1" d="M32.8.32c-3.69,0-6.74,2.67-6.74,6.29s3.05,6.29,6.74,6.29,6.74-2.67,6.74-6.29S36.49.32,32.8.32M32.8,9.47c-1.56,0-2.86-1.21-2.86-2.86s1.3-2.86,2.86-2.86,2.86,1.21,2.86,2.86-1.3,2.86-2.86,2.86"/>
  <path class="cls-2" d="M25.1,17.63c0,.09.07.16.16.16h6.23c.1,0,.15.12.08.19l-5.29,5.19c-.14.14-.23.33-.23.54v5.09l14.3-14.23c.17-.17.05-.45-.18-.45h-14.91c-.09,0-.16.07-.16.16v3.36h0Z"/>
  <path class="cls-1" d="M11.76,13.66c-5.02,0-8.9,3.75-8.9,8.36s3.88,8.36,8.9,8.36,8.9-3.75,8.9-8.36-3.88-8.36-8.9-8.36M11.76,26.76c-2.86,0-4.96-2.1-4.96-4.74s2.1-4.74,4.96-4.74,4.96,2.1,4.96,4.74-2.1,4.74-4.96,4.74"/>
  <path class="cls-2" d="M.39,19.21L14.99,2.31c.14-.16.02-.41-.19-.41H.47c-.09,0-.16.07-.16.16v3.37c0,.09.07.16.16.16h6.37c.12,0,.18.14.1.22L.18,13.64c-.12.14-.18.31-.18.49v4.93c0,.21.26.3.4.15"/>
  <path class="cls-1" d="M16.81,14.24h3.69c.09,0,.16-.07.16-.16V5.71c0-.06.05-.11.11-.11h2.59c.09,0,.16-.07.16-.16v-3.37c0-.09-.07-.16-.16-.16h-6.55c-.09,0-.16.07-.16.16v12.01c0,.09.07.16.16.16"/>
  <path class="cls-1" d="M88.16,14.52V2.06c0-.09-.07-.16-.16-.16h-3.5c-.09,0-.16.07-.16.16v2.65c0,.06-.05.11-.11.11h-5.24c-.06,0-.11-.05-.11-.11v-2.65c0-.09-.07-.16-.16-.16h-3.56c-.09,0-.16.07-.16.16v12.46c0,.09.07.16.16.16h12.84c.09,0,.16-.07.16-.16M84.35,11.14c0,.06-.05.11-.11.11h-5.24c-.06,0-.11-.05-.11-.11v-2.83c0-.06.05-.11.11-.11h5.24c.06,0,.11.05.11.11v2.83Z"/>
  <path class="cls-1" d="M71.83,16.02h-21.61c-.09,0-.16.06-.16.16v3.18c0,.1.06.16.16.16h21.61c.09,0,.16-.06.16-.16v-3.18c0-.1-.06-.16-.16-.16"/>
  <path class="cls-1" d="M89.43,11.69h2.43c.06,0,.11.05.11.11v3.42c0,.09.07.16.16.16h3.69c.09,0,.16-.07.16-.16V2.06c0-.09-.07-.16-.16-.16h-6.39c-.09,0-.16.07-.16.16v3.3c0,.09.07.16.16.16h2.43c.06,0,.11.05.11.11v2.32c0,.06-.05.11-.11.11h-2.43c-.09,0-.16.07-.16.16v3.3c0,.09.07.16.16.16"/>
  <path class="cls-1" d="M71.03,21.17h-20.15c-.09,0-.16.07-.16.16v3.12c0,.09.07.16.16.16h16.19c.06,0,.11.05.11.11v4.18c0,.09.07.16.16.16h3.69c.09,0,.16-.07.16-.16v-7.56c0-.09-.07-.16-.16-.16"/>
  <path class="cls-1" d="M51.01,14.36h20.02c.09,0,.16-.07.16-.16v-2.99c0-.09-.07-.16-.16-.16h-16.13c-.06,0-.11-.05-.11-.11v-1.17c0-.06.05-.11.11-.11h15.81c.09,0,.16-.07.16-.16v-2.73c0-.09-.07-.16-.16-.16h-15.81c-.06,0-.11-.05-.11-.11v-1.17c0-.06.05-.11.11-.11h16.13c.09,0,.16-.07.16-.16v-2.99c0-.09-.07-.16-.16-.16h-20.02c-.09,0-.16.07-.16.16v12.14c0,.09.07.16.16.16"/>
  <path class="cls-1" d="M136.59,14.58c-.02-.07-.08-.12-.15-.12h-4.03c-.05,0-.09-.05-.08-.1l2.07-7.37c.02-.07.08-.12.15-.12h5.12c.09,0,.16-.07.16-.16v-3.37c0-.09-.07-.16-.16-.16h-5.13c-.06,0-.11-.05-.11-.11V.16c0-.09-.07-.16-.16-.16h-3.69c-.09,0-.16.07-.16.16v2.91c0,.06-.05.11-.11.11h-5.13c-.09,0-.16.07-.16.16v3.37c0,.09.07.16.16.16h5.14c.05,0,.09.05.08.11l-5.96,21.34c-.02.09.04.17.13.17h3.71c.07,0,.13-.05.15-.12l2.84-10.19s.06-.08.11-.08h2.12c.05,0,.09.04.11.08l2.84,10.19c.02.07.08.12.15.12h3.71c.09,0,.15-.09.13-.17l-3.83-13.73h-.02Z"/>
  <path class="cls-1" d="M171.38,24.47h-8.98s-.07-.05-.04-.08l8.23-10.29c.13-.16.02-.4-.19-.4h-15.88c-.06,0-.11-.05-.11-.11v-7.62c0-.06.05-.11.11-.11h16.07c.09,0,.16-.07.16-.16v-3.31c0-.09-.07-.16-.16-.16h-20.02c-.09,0-.16.07-.16.16v14.78c0,.09.07.16.16.16h12.42c.09,0,.15.11.09.18l-5.55,6.86c-.06.07-.14.11-.23.11h-7.52c-.09,0-.16.07-.16.16v3.37c0,.09.07.16.16.16h21.61c.09,0,.16-.07.16-.16v-3.37c0-.09-.07-.16-.16-.16"/>
  <path class="cls-1" d="M145.84,1.65h-3.69c-.09,0-.16.06-.16.16v26.83c0,.09.06.16.16.16h3.69c.09,0,.16-.06.16-.16V1.81c0-.09-.06-.16-.16-.16"/>
  <path class="cls-1" d="M122.52,1.91h-6.55c-.09,0-.16.07-.16.16v26.57c0,.09.07.16.16.16h3.69c.09,0,.16-.07.16-.16V5.71c0-.06.05-.11.11-.11h2.59c.09,0,.16-.07.16-.16v-3.37c0-.09-.07-.16-.16-.16"/>
  <path class="cls-1" d="M96.14,25.49h-16.13c-.06,0-.11-.05-.11-.11v-1.21c0-.06.05-.11.11-.11h15.81c.09,0,.16-.07.16-.16v-7.41c0-.09-.07-.16-.16-.16h-19.71c-.09,0-.16.07-.16.16v2.99c0,.09.07.16.16.16h15.81c.06,0,.11.05.11.11v1.14c0,.06-.05.11-.11.11h-15.81c-.09,0-.16.07-.16.16v7.47c0,.09.07.16.16.16h20.02c.09,0,.16-.07.16-.16v-2.99c0-.09-.07-.16-.16-.16"/>
  <path class="cls-1" d="M110.92,14.26c-.02-.07-.08-.12-.15-.12h-4.09c-.05,0-.09-.05-.08-.1l2.14-8.33c.02-.07.08-.12.15-.12h4.93c.09,0,.16-.07.16-.16v-3.37c0-.09-.07-.16-.16-.16h-14.17c-.09,0-.16.07-.16.16v3.37c0,.09.07.16.16.16h5.01c.05,0,.09.05.08.1l-5.84,22.61c-.02.09.04.17.13.17h3.71c.07,0,.14-.05.15-.12l2.71-10.51s.06-.08.11-.08h2.05c.05,0,.1.03.11.08l2.71,10.51c.02.07.08.12.15.12h3.71c.09,0,.15-.08.13-.17l-3.64-14.05h-.01Z"/>
  <path class="cls-1" d="M42.66,36.57c-1.37,0-2.5,1.01-2.5,2.59s1.14,2.58,2.48,2.58c1.51,0,2.15-1.12,2.18-1.72h-2.26v-1.25h3.81c.02.13.03.34.03.49,0,2.24-1.5,3.84-3.8,3.84s-3.97-1.73-3.97-3.94,1.75-3.96,4.03-3.96c1.91,0,3.14,1.17,3.57,2.46h-1.71c-.31-.61-.94-1.09-1.85-1.09"/>
  <path class="cls-1" d="M46.9,42.95l2.63-7.62h1.8l2.63,7.62h-1.55l-.54-1.56h-2.9l-.54,1.56h-1.55.02ZM50.44,37.12l-1.02,3h2.04l-1.02-3h0Z"/>
  <polygon class="cls-1" points="59.88 40.52 59.88 35.34 61.38 35.34 61.38 42.95 59.84 42.95 56.53 37.79 56.53 42.95 55.03 42.95 55.03 35.34 56.56 35.34 59.88 40.52"/>
  <path class="cls-1" d="M66.85,36.57c-1.37,0-2.5,1.01-2.5,2.59s1.14,2.58,2.48,2.58c1.51,0,2.15-1.12,2.18-1.72h-2.26v-1.25h3.81c.02.13.03.34.03.49,0,2.24-1.5,3.84-3.8,3.84s-3.97-1.73-3.97-3.94,1.76-3.96,4.03-3.96c1.91,0,3.14,1.17,3.57,2.46h-1.71c-.31-.61-.94-1.09-1.85-1.09"/>
  <polygon class="cls-1" points="79.69 42.95 77.93 42.95 76.47 37.56 75.03 42.95 73.26 42.95 71.29 35.34 72.88 35.34 74.2 40.88 75.69 35.34 77.27 35.34 78.75 40.91 80.08 35.34 81.66 35.34 79.69 42.95"/>
  <path class="cls-1" d="M82.35,39.29c-.09-2.28,1.67-4.12,3.95-4.12s3.96,1.74,3.96,3.95-1.73,3.96-3.97,3.95c-2.08,0-3.86-1.7-3.94-3.79M88.74,39.12c0-1.46-1.06-2.54-2.44-2.54s-2.42,1.09-2.42,2.54,1.05,2.56,2.42,2.56,2.44-1.09,2.44-2.56"/>
  <polygon class="cls-1" points="96.56 40.52 96.56 35.34 98.06 35.34 98.06 42.95 96.53 42.95 93.21 37.79 93.21 42.95 91.71 42.95 91.71 35.34 93.25 35.34 96.56 40.52"/>
  <path class="cls-1" d="M105.4,43.1c-1.92,0-2.86-1.2-2.94-2.49h1.49c.07.73.62,1.2,1.45,1.2.93,0,1.42-.39,1.42-.98,0-.67-.62-.9-1.53-1.13-1.37-.34-2.57-.85-2.58-2.29,0-1.16.93-2.09,2.08-2.25,1.94-.26,3.31.68,3.47,2.38h-1.5c-.1-.66-.52-1.11-1.37-1.11-.67,0-1.2.29-1.2.87,0,.43.33.79,1.34,1,1.46.3,2.78.76,2.78,2.45,0,1.31-1.1,2.35-2.91,2.35"/>
  <polygon class="cls-1" points="112.64 36.62 112.64 42.95 111.14 42.95 111.14 36.62 109.14 36.62 109.14 35.34 114.64 35.34 114.64 36.62 112.64 36.62"/>
  <path class="cls-1" d="M114.64,42.95l2.63-7.62h1.8l2.63,7.62h-1.55l-.54-1.56h-2.9l-.54,1.56h-1.55.02ZM118.18,37.12l-1.02,3h2.04l-1.02-3h0Z"/>
  <polygon class="cls-1" points="125.21 36.62 125.21 42.95 123.72 42.95 123.72 36.62 121.71 36.62 121.71 35.34 127.22 35.34 127.22 36.62 125.21 36.62"/>
  <polygon class="cls-1" points="130 38.49 132.72 38.49 132.72 39.73 130 39.73 130 41.67 132.9 41.67 132.9 42.95 128.49 42.95 128.49 35.34 132.9 35.34 132.9 36.62 130 36.62 130 38.49"/>
</svg>