<?xml version="1.0" encoding="UTF-8"?>
<svg id="_레이어_2" data-name="레이어 2" xmlns="http://www.w3.org/2000/svg" viewBox="0 0 193 52.34">
  <defs>
    <style>
      .cls-1 {
        fill: #009a5b;
      }

      .cls-2 {
        fill: #e6002d;
      }

      .cls-3 {
        fill: #231815;
      }

      .cls-4 {
        fill: #00a0e9;
      }
    </style>
  </defs>
  <g>
    <path class="cls-2" d="M47.7.14c.27.04.51.14.72.31.11,0,.16.19.31.12.12.19.33.21.48.37-.03.1.12.02.09.13h.04v.29c.06.03.12.01.18.02v.15c.23,0,.4.13.62.14.1.06.09.19.19.19.07.05.03.14.11.17-.1.18.21.19.12.37.11.03.02.14.12.17.02.18.12.31.23.45.05.23.31.38.28.64.14.21.13.48.23.71v.72c-.13.02-.04.22-.07.32-.04.12-.17.2-.11.35,0,.02.04,0,.06.02,0,.06-.02.14.06.17v.46c-.06.09-.11.2-.17.29.04.09-.1.03-.05.12-.05.06-.16.1-.14.19h-.05c.04.19-.11.29-.14.45-.09.03-.07.18-.18.18.05.08-.08.09-.06.16-.12.02-.18.21-.32.2-.19.1-.16.32-.35.43.07.16-.15.12-.09.26-.07.04-.14.1-.22.1-.15.1-.29.18-.44.27,0,.09-.09.08-.13.12-.21.25-.45.39-.73.48-.2.06-.44.04-.61.19-.15.07-.35.02-.46.17-.1.11-.27.03-.4.07-.58.28-1.21-.04-1.85.05-.11-.07-.45.05-.33-.22l-.19-.03v-.27c-.08,0-.15.1-.24.16-.04-.06-.05-.13-.15-.11-.07.07-.16.09-.18.19-.06.02-.07-.04-.11-.06.02-.09-.09-.12-.13-.19-.12,0-.15.19-.29.12-.01-.05-.03-.09-.07-.12-.03.05-.1.07-.08.13l-.25.17h-.28c.17-.09.11-.27.12-.42.03,0,.05-.02.06-.04v-.33l-.15-.19c-.07.02-.01.16-.12.12-.04.02-.06.08-.11.06-.01-.11.1-.21.06-.35l-.07-.03c.2-.12-.08-.2,0-.36-.05-.09-.14-.17-.18-.27-.02-.03-.04-.01-.06-.02.02-.09-.05-.2.06-.25v-.49c-.13-.04,0-.19-.12-.23.05-.15-.14-.22-.08-.38-.1-.03-.01-.14-.12-.17-.03-.11-.02-.25-.13-.33-.01-.09.03-.2-.06-.25.01-.27-.02-.56.04-.81.05-.13.01-.3.03-.45.11-.05.06-.16.07-.25.06.01.08-.03.12-.06v-.06c.07-.01.07-.17.18-.16l.03-.03s-.02-.03-.03-.01v-.05s.04-.02.06-.03c-.07-.14.13-.08.06-.22.1-.04.04-.16.06-.23-.13-.06.01-.29-.11-.38.08-.16.2-.32.29-.47,0-.02-.03-.02-.05-.02.02-.08-.05-.2.05-.24-.04-.09.11-.09.06-.18.05-.06.14-.1.13-.19.08.03.05-.06.08-.09.05-.07.15-.12.16-.2.18.03.27-.18.37-.28-.04-.1.25-.18.06-.23-.05-.12.06-.14.13-.19.22-.29.51-.41.79-.54.24-.05.48-.09.71-.14.09-.01.16-.08.27-.05.15-.24.43-.14.61-.31.11,0,.22.02.3-.05.48.04,1.04-.11,1.44.13Z"/>
    <path class="cls-4" d="M65.69,50.59c0,.97-11.71,1.75-26.16,1.75s-26.16-.78-26.16-1.75,11.71-1.74,26.16-1.74,26.16.78,26.16,1.74Z"/>
    <g>
      <g>
        <path class="cls-1" d="M30.26,7.34c1.62.23,3.23.88,4.49,1.74.3.05.58-.03.83-.17-.14-.47-.64-.91-1.05-1.18-1-.43-2.15-.53-2.99-1.34-.16.34-.53.35-.86.36-.57-.1-.98-.58-1.61-.54-.18.05-.19.26-.36.35-.01.09.03.2-.05.26-.04.14-.02.31.07.42l1.54.11Z"/>
        <path class="cls-1" d="M49.39,34.37l.66.64c.18.21.26.4.13.71.77.97,2.44,4.69,3.09,5.89l.08-.25c-.13-1.16-.58-.95-.48-2.01-.38-.22-.26-.86-.52-1.16-.3-.7-.43-1.39-.93-2.01-.01-.12-.23-.1-.31-.19,0-.76-.65-2.01-.99-2.63-.15-.45-.55-1.09-.72-1.55-.47-1.37-2.11-3.42-2.15-4.12-.73-.54-.96-1.74-1.49-2.43-.25-.57-.67-1.09-1.1-1.59-.13-.33-.51-.55-.7-.86-.15-.17-.17-.45-.38-.57-.19.06-.26-.13-.45-.07l-.61-.93c-.23-.34-.46-.72-.87-.82-.21-.14-.37.19-.53-.09-.24-.35-.29-.79-.53-1.14-.13-.12-.2.14-.33.02-.07-.25-.03-.29-.12-.53-.39-.02-.7-.27-.97-.56-.24-.13-.43-.49-.7-.38-.35.16-.28-.28-.5-.44-.03-.15-.1-.28-.19-.4-.17-.01-.12-.29-.34-.21-.11-.17-.23.03-.34.04-.15-.16-.05-.43-.08-.65-.11-.03-.02-.16-.13-.19-.19.05-.39.03-.49.26-.47.04-.78-.42-.99-.81-.16.01-.36-.04-.46.1-.15.02-.41.07-.45-.15-.09-.28-.27-.54-.49-.73-.24-.2-.53-.2-.77-.36-.22-.13-.29-.32-.57-.42-.23-.08-.49-.09-.72-.16-.58-.18-1.21-.24-1.8-.45-.17-.07-.21-.1-.38-.14-.17.12-.37.23-.59.15-.25-.17-.56-.23-.76-.53l-.13.46-.47.04c-.29.03-.52.19-.76.35-.36.01-.64-.15-.91-.36-.16.29-.46.42-.7.59-.08.05-.22-.02-.28.09-.19-.08-.26.14-.45.06-.06.15-.33-.16-.33.05,0,.27-.57.4-.56.24-.12.24,0,.48-.24.66-.15.02-.21-.15-.32-.23-.43,0-.81.15-1.23.19l-.13.29c-.24.12-.26.45-.38.68l-.11-.07c-.13-.02-.24.02-.32.11-.25-.09-.21.25-.42.21-.07.08-.23.13-.34.19-.14.04-.22.22-.37.21-.13.1-.17.27-.27.4-.74,1.04-1.19.65-1.3.57.06-.38.5-.62.7-.91.25-.36.56-.5.85-.78.12-.12.16-.29.29-.4.14-.13.35-.17.49-.31.09-.1.11-.1.23-.2.53-.47,1.26-.79,1.39-.98.14.09.29-.06.44-.03l.27-.11c.15-.3.6-.45.84-.63.1.11.24.15.39.13.31-.11.64-.04.81-.34.17-.19.51-.16.7-.11.04-.1.07-.19.17-.27.16-.13.38-.14.59-.13.14.16.4.05.55.17.16,0,.33.02.44-.11.12-.1.12-.25.17-.38.59.04,1.27-.13,1.7.32.83-.34,1.95-.22,2.68.24.81.29,1.55.78,2.33,1.14.28.01.49.21.74.27.33.24.3.61.6.86.13-.02.27.03.38-.05,1.71.98,3.31,2.24,4.89,3.54,1.89,1.62,4.97,5.71,6.22,7.71.16.12.4.27.42.49.12.09.25.32.28.45.16.26,1.19,1.91,1.65,2.72.13.22.32.35.6.61-.76-2.13-2.31-4.41-3.43-6.41-1.12-1.67-2.01-3.42-3.42-4.97-.15-.28-.41-.51-.67-.71-.28-.3-.34-.87-.86-.83-.22-.75-.85-1.44-1.53-1.88l-.23-.04c-.03.06.04.07.06.11,0,.14.03.3-.13.38-.28-.08-.3-.39-.56-.55-.63-.47-1.19-1.1-1.84-1.55-.14-.25-.36-.44-.55-.65-.51-.29-1.05-.51-1.54-.83-.13-.2-.42-.35-.55-.59-.16-.02-.36.06-.49-.06-.73-.1-1.23-.72-1.84-1.08-.26,0-.4-.27-.67-.21-.27-.22-.71-.04-1.02-.15-.33.08-.52-.21-.74-.38l-.1.1c-.3.18-.81.31-1.13.05-.35-.04-.85-.16-1.07.25-.29-.03-.56-.11-.81-.23-.73.02-1.3.29-2.25.42-.52.32-.98.31-1.5.62-.26.15-.55.2-.78.43-.22-.02-.46.17-.62-.02,0-.16.2-.26.22-.42.37-.2.75-.37,1.03-.69.4-.09.7-.4,1.12-.47h0c.05-.02.1-.04.15-.05.24-.05.48-.08.72-.14,2.39-.62,4.31-.57,5.92-.17.7.12,1.34.36,1.99.6,1.91.84,3.7,1.93,5.32,3.47.5.43,1.37,1.31,1.49,1.2.12-.1-.31-.5-.32-.76-.13-.2-.14-.27-.34-.42-.14.02-.26-.55-.39-.43-.78-.78-1.51-1.44-2.33-2.13-1.3-1.05-2.69-1.82-4.19-2.37-.71-.13-1.39-.35-2.14-.38-.3-.09-.52-.36-.84-.4-.4.01-.88-.05-1.21.21-.48-.35-1.12-.06-1.65,0-.1.02-.25.14-.37.17-.15.04-.3.07-.45.08-.3.02-.61-.02-.91-.11.01.33-.62.37-.83.43-.08.02-.28.16-.27.14-.49-.05-.79.23-1.13.53-.25-.03-.62.09-.55-.35.02-.14.14-.22.25-.3.05-.04.12-.08.16-.13.01-.01.07-.13.06-.12.02-.01.61-.32.61-.32.36-.04.73-.39,1.06-.1.06-.26.34-.32.53-.41.31.03.53-.1.72-.34.5-.11,1.07-.11,1.63-.11.13-.13.35-.03.5-.09.11-.07.32-.12.3-.27.14-.19,0-.5.13-.67-.27-.33-.55.06-.84.05-.08-.09-.21-.18-.25-.3-.76.11-1.48.3-2.25.4-.12.08-.31.2-.38-.02-.37-.14-.6.15-.85.33-.09-.01-.22.04-.29-.04-.62.49-1.4.57-2.03,1.02l-.04-.07c-.16.01-.25-.17-.36-.23l-.03.04c-.65.42-1.46.46-2.19.7l-.38.23c-.45.31-.25.95-.72,1.17h-1.36c-.18,0-.16.21-.32.3,0,.13.01.28-.08.38l-.83.17c-.32.35-.66.6-.99.91-.82.53-1.53,1.32-2.33,1.87-.14.57-.75.69-1.17.93-.14.15-.28.3-.32.51-.12.11.09.45-.19.42-.2.26-.31.54-.39.85-.12.07-.23.2-.38.22l-3.33,4.42c.06,1.61-1.43,2.57-1.76,4.03-1,1.18-1.49,2.57-2.16,3.88l-1.5,4.45c-.1,1.3-.28,2.27-.22,3.64.08.37.18,1.04.27,1.37.18.8.82,1.4,1.43,2.02.93,1.06,2.16,1.61,3.55,1.3.76-.31,1.53-.58,2.21-1.06.59-.27,1.22-.46,1.71-.98.39-.38.63-.81.85-1.25.38-1.33,1.02-2.54,1.55-3.81.47-1.15,1.32-2.13,1.89-3.24,0-.24.06-.48.08-.72.27-.55.75-1.02.95-1.61-.1-.34.27-.5.44-.7.03-.04.1-.03.13.02.05.01.1.08.15.04.12-.37-.06-.84.15-1.17.42-.26.69-.7.97-1.09.22-.64.71-1.17,1.1-1.73.42-.21.4-.69.66-1.02,1.11-1.08,2.29-2.12,3.39-3.18.28-.22.62-.3.87-.59.2-.38.64-.49.95-.74,1.78-1.03,5.63-2.53,10.46-.61,4.84,1.92,10.33,6.88,15.61,16.65Z"/>
        <path class="cls-1" d="M46.33,21.07c.14.3.4.6.5.91.03.09.09.39-.05.41-.17.03-.45-.63-.52-.74-.39-.65-.8-1.3-1.23-1.93-.88-1.32-1.84-2.59-2.89-3.77l-.1-.19-2.36-2.62c-1.14-1.14-2.36-2.08-3.54-3.13-.23-.15-.48-.29-.7-.47.05-.12.17-.2.25-.3.3.05.56-.14.81.02,3.08,2.13,7.89,7.88,9.83,11.8Z"/>
      </g>
      <g>
        <path class="cls-1" d="M59.69,33.29c.33.35.56.76.8,1.14-.05.32.42.44.54.7.22.35.41.71.58,1.07.29.47.45.99.81,1.44,0,.08.04.16.08.23.02.35.41.39.59.68,0,.08,0,.16.04.21.01.09.05.21-.04.27.55.68.82,1.47,1.14,2.25.06.33.27.59.37.91.14.13.15.31.21.48.07.06.12.16.23.13-.02-.39-.22-.71-.34-1.07-.08-.09-.17-.18-.14-.32.02-.37-.28-.6-.34-.93-.28-.28-.09-.76-.52-.99,0-.09,0-.16-.05-.22.06-.26-.07-.39-.18-.58-.06-.12-.09-.52-.09-.66-.18-.25-.28-.58-.49-.82.02-.24-.1-.43-.17-.63-.1-.15-.27-.26-.35-.41-.3-.29-.14-.63-.43-.91.03-.11-.09-.16-.13-.25-.17-.35-.45-.69-.6-1-.2-.29-.41-.59-.61-.89.02-.23-.06-.43-.21-.59-.24-.04-.39-.31-.58-.47l.04-.13c-.1-.06-.15-.25-.3-.18-.1-.04-.04-.16-.05-.23-.6-.34-.63-1.04-1.15-1.41-.11-.09-.05-.24-.12-.34.04-.16-.12-.23-.21-.34-.08-.02-.19.05-.23-.06-.13.04-.12-.15-.24-.14.01-.09-.11-.12-.07-.23-.24-.13-.34-.44-.61-.55-.06,0-.12.11-.16,0-.16-.08-.4-.24-.38-.45-.02-.17-.2-.08-.3-.11-.13-.05-.04-.2-.09-.28-.02-.05-.08-.14-.15-.14.02-.13-.13-.05-.19-.07-.33-.12-.4-.52-.73-.65-.06-.02-.16-.03-.21.05-.09.09-.18.02-.25-.07-.17,0-.3-.11-.42-.25,0-.12-.2-.08-.28-.16-.24-.25-.83-.17-1.08-.43-.25-.26-.79-.07-1-.44-.07.16-.09,0-.22,0-.09-.11-.44-.02-.4-.2h-.16l-.02.18-.89-.03s-.06-.09-.12-.07c-.55-.8.42-.36.42-.38v-.16c.12.03.03-.11.13-.13.31.16.8-.11,1.04.24.24-.06.26.08.53.08.27.03.56.03.78.17.43.1.76.46,1.21.51l1.24.67c.6.44,1.24.75,1.83,1.22-.02.08.07.11.12.14.43.22.71.63,1.01,1.01.37.63,1.09.84,1.45,1.47.23.4.54.76.79,1.14.17.26.27.55.43.81.19.3.64.22.42.56.12.03.21.11.24.33.11.31.35.59.45.9.53.76,1.21,2.22,1.35,2.15.14-.07-.26-1.11-.55-1.61-.25-.7-.71-1.31-1.04-1.98l-.03-.16c-.08-.11-.06-.27-.18-.36-.15-.55-.62-.97-.93-1.45-.15-.43-.53-.75-.63-1.19-.23-.32-.39-.74-.75-.96,0-.26-.31-.39-.33-.64-.15-.02-.22-.28-.41-.16.05.12-.07.16-.13.23-.35-.32-.65-.65-1.03-.91l-.03-.08c-.25-.05-.41-.33-.62-.49-.04-.05-.03-.14-.11-.12-.33-.59-1-.57-1.44-1-.19-.02-.18-.29-.38-.3-.52-.11-.88-.58-1.38-.71-.21-.23-.57-.09-.85-.13-.08-.07-.16-.14-.14-.23-.18.11-.43.03-.64.06-.08-.07-.15-.13-.26-.12-.08-.11-.23-.03-.3-.12-.11.01-.24-.05-.3.05l-.51-.1c-.72-.02-1.48-.06-2.11.19-.36,0-.58.36-1,.23-.04-.04-.09-.09-.15-.09-.09-.05-.14-.14-.16-.23.08-.17.31-.2.5-.17.95-.6,2.76-.61,3.3-.53.92.05,1.79.29,2.59.64.27.19.59.25.85.45.85.39,1.59,1.03,2.35,1.63.28.35.62.67.95.99h.12c.1-.1.03-.28.05-.42-.05-.04-.09-.13-.16-.11-.05-.13-.18-.05-.26-.07-.25-.27-.49-.55-.71-.84-.33-.29-.64-.62-1.01-.83-.1-.14-.24-.43-.48-.36-.46-.54-1.09-.71-1.64-1.03l-.08-.13-.58-.14c-.43-.06-.8-.26-1.27-.23-.25-.25-.65-.16-1-.18-.26.13-.63-.02-.88.13-.17-.09-.37-.11-.55-.18.02.08-.02.15-.06.22-.31,0-.63.03-.92.12-.03-.01-.05-.02-.06-.06-.03.08-.11.03-.16.05-.07.12-.21.06-.29.13-.18-.11-.34-.23-.21-.37.36-.08.71-.2,1.08-.28.17-.21.49-.05.68-.19.18.14.47.02.66.11.33.05.64-.01.94-.07.03,0,.04,0,.07,0,.3,0,.55.09.85.09h.03s.71.16.71.16c.18.04.38.03.52.15.22.17.55.11.77.3.56.15.95.73,1.56.78v-.21c-.02-.23-.3-.27-.42-.47-.23-.06-.39-.28-.62-.34-.1-.11-.24-.13-.37-.18-.18-.15-.38-.22-.55-.39-.16.14-.39.12-.62.12-.22-.19-.44-.39-.75-.37-.15-.06-.33-.09-.38-.09-.16-.02-.39-.09-.59-.08-.07-.02-.15,0-.23,0-.05.14-.16-.03-.26,0l-.13-.07c-.25.02-.67-.14-.89-.04-.85-.03-2.3.22-2.97.4-.11,0,.07-.03.06-.1l-.17.17c-.07,0-.12.02-.17.06h-.89c-.26,0-.22.3-.37.44-.21.18-.5.15-.75.23-.29-.08-.59-.04-.82.12-.03.1-.1.18-.18.25-.05,0-.09-.02-.13-.06-.21.01-.4.06-.55.23-.13.02-.2.23-.37.19-.37.28-.83.32-1.16.66-.32.2-.63.45-.95.68-.04-.1-.14-.03-.21-.05-.03.02,0,.09-.07.07v.05c-.11.07-.13.19-.14.3-.08-.01-.08.08-.11.12-.06.02-.11.09-.19.06-.15.07-.09.23-.11.36-.31.32-.68.49-1.03.72-.47.28-.92.6-1.34.98-.09.12-.16.24-.28.34-.22.16-.14.46-.37.62-.84,1-1.76,1.97-2.75,2.88-.08.15-.12.32-.26.45-.1.3-.5.33-.56.65-.54.61-.78,1.39-1.44,1.9-.48.54-.69,1.19-1.1,1.76-.12.08-.24.17-.3.3-.32.19-.4.57-.59.86-.29.21-.29.54-.55.77-.16.28-.35.54-.45.84-.25.25-.25.58-.37.87-.17.21-.25.45-.26.71-.16.23-.13.55-.07.86-.06.12-.06.35-.06.55l.11.12c-.14.49.02.99.18,1.42.06.17.03.38.19.51.28.61.91,1.17,1.46,1.59.32.24.69.36,1.07.49-.02.19.21.02.26.16.11,0,.27.06.34-.06.4-.01.64-.4,1.03-.42.02-.11.14-.03.22-.05.12.09.29.09.42.16.03-.02.05-.08.1-.06v-.04c.24-.26.55-.34.78-.6.49-.35.78-.88,1.11-1.35v-.14c.12-.04.06-.16.07-.25.08-.08.15-.16.25-.21.47-.32.59-.8.98-1.15.17.09.2-.2.36-.12.07-.26.11-.54.29-.75.07-.24.19-.45.2-.71.13-.19.31-.35.37-.56.33-.36.47-.79.7-1.19.56-1.16,1.33-2.24,1.99-3.35.28-.28.51-.59.69-.93,1.17-1.47,2.32-3.05,3.82-4.3.59-.36,1.09-.9,1.7-1.16.32-.23.82-.2.99-.65.31-.2.64-.38,1.07-.3.53-.11.95-.53,1.57-.43.08.1.2.12.3.18.05-.12.2.02.25-.12.27-.08.42.15.68.07.03.02.06.06.11.05.11-.12.32,0,.43-.11l.03.06c.06.05.14.06.22.05.04.13.18.01.23.11.1-.02.07.09.09.14.28-.02.47.03.72.09.15.22.46.08.67.18.39.17.79.51,1.18.69.34.14.75.12.98.51,1.77,1.05,3.55,3.19,4.2,4.18Z"/>
        <path class="cls-1" d="M55.7,24.06c.2.16.37.36.61.43.76,1.07,1.9,1.99,2.78,3.01.24.4.5.79.75,1.18.21-.05.18.24.35.25.11.25.17.52.25.79.09.04.16.09.19.18.07.04.16.07.26.08-.04.18.07.3.12.44.26.39.45.76.72,1.14.01.21.3.67.43.6.13-.07-.13-.24-.14-.39-.2-.35-.15-.8-.41-1.12-.07-.29-.32-.5-.5-.75.03-.09-.05-.14-.05-.23-.15-.25-.36-.38-.51-.65.1-.26-.22-.35-.2-.58-.07-.08-.15-.27-.25-.27-1.08-1.68-2.23-2.81-4.07-4.41h-.05l-.06-.05c-.17,0-.36-.02-.48.06.15.07.12.26.28.28Z"/>
      </g>
      <path class="cls-1" d="M43.14,37.62c-.05-.31-.89-1.6-.99-1.88-.07-.1-.05-.23-.15-.31-.04-.19-.3-.3-.37-.49,0-.05.04-.16-.06-.14-.02-.12-.16-.19-.23-.29-.09-.05-.18-.17-.19-.3-.1.02-.03-.11-.12-.13.08-.16-.16-.18-.13-.31-.07-.07-1.32-1.99-3.28-3.28-.02,0-.54-.27-.57-.27-.1-.18-.53-.37-.71-.46-.39-.35-.85-.55-1.32-.7l-.19-.19c-.1.01-.16-.08-.24-.12-.04.07-.11.08-.17.12-.15-.03-.36.08-.45-.12-.21-.04-.36-.26-.62-.18-.03.03-.04.07-.07.1-.22-.07-.4-.15-.65-.16-.05-.05-.1-.1-.19-.07-.12.18-.25-.06-.39-.05-.1-.02-.22,0-.29-.07-.18.11-.44.04-.67.06-.14.11-.48,0-.66.02-.15.07-.34.08-.52.07-.39.11-.66.05-1,.27-.07-.1-.27-.04-.23-.17-.09.14-.23.17-.36.21-.21.09-.33-.12-.55-.05-.08.09-.22.04-.31.09,0,.18-.21.32-.35.4-.44.1-1.17-.26-1.3.36-.11-.09-.29-.04-.43-.05-.15.14-.34.16-.48.3-.65.26-1.31.49-1.84,1.04-.03-.06-.06-.16-.16-.13.02.11-.1.03-.12.11-.15-.04-.06.13-.08.2-.09.09-.18.16-.3.18-.07.07-.16.13-.12.24-.39.33-.81.6-1.27.79-.4.17-.71.56-1.06.82-.04.23-.2.4-.4.53-.54.52-1.07,1.08-1.63,1.56-.24.27-.65.34-.78.69-.12.17-.23.33-.39.48-.22.1-.28.35-.46.52-.25.29-.45.61-.72.89-.76.49-.91,1.39-1.67,1.87-.26.33-.45.69-.72,1.02-.49.55-.72,1.21-1.09,1.82v.31c-.07.12-.1.23,0,.36v.13l-.07.05v.31l.07.12v.61c-.04.29.24.45.24.72.27.4.69.75,1.04,1.12.39.16.7.5,1.16.49.18.26.55.09.81.14l.11-.07c.21-.02.35-.23.56-.23.13,0,.32-.06.42.05.11-.02.32.07.32-.12.52-.2,1.02-.56,1.36-1.06.13-.16.33-.29.28-.52.04-.04.1-.08.08-.15.03-.04.07-.07.13-.06.28-.19.51-.46.67-.73.18-.2.53-.16.62-.46.03-.33.45-.5.35-.88.28-.5.8-.9,1-1.43.3-.69.87-1.27,1.26-1.93.21-.22.4-.47.56-.7l1.34-1.52c.49-.57,1.04-1.03,1.58-1.57.91-.86,1.94-1.45,3.02-1.9.17-.25.46-.15.62-.4.71.14,1.18-.33,1.85-.3.99-.03,3.29.06,5.01,1.22l.14.13c.29.25.6.46.91.67.26.02.41.31.67.36.07.1.18.19.19.31l.34.36h.08c.51.45,1.01.89,1.5,1.38.31.39.75.72.83,1.2.43.24.56.72.85,1.08-.02.12.12.19.2.26,0,.36.46.53.55.85.01.13-.01.27.13.33.07.18.3.19.39.36.11.09.1.24.1.37.31.57.73,1.09.97,1.69.02.28.22.48.38.7v.12c.09.05.01.16.12.19-.02.16.16.09.22.16l-.1-.25c-.14-.14-.05-.38-.26-.48,0-.07.02-.15-.04-.19-.07-.55-.59-.9-.63-1.46-.05-.1-.22-.05-.19-.2-.11-.09-.04-.26-.06-.38.02-.2-.22-.15-.29-.33-.09-.34-.56-.54-.49-.96-.1-.13-.04-.38-.26-.42-.04-.16-.23-.26-.26-.42-.28-.31-.46-1.01-.7-1.34-.09-.16-.27-.28-.24-.49l-.61-.61c-.09.02-.07-.08-.07-.13-.21-.2-.4-.4-.55-.62v-.24c-.11,0-.23.25-.31.19-.14.01.08-.47.05-.51-.43-.05-.39-.28-.73-.52-.11-.16-.44-.17-.33-.45-.1-.05-.04-.17-.18-.12-.05-.1-.11-.03-.17,0-.03-.01-.02-.05-.02-.08-.04-.1-.19-.06-.18-.18-.11-.06-.02-.24-.18-.24-.02-.12-.31-.2-.39-.3-.25.1-.23-.2-.24-.37-.12-.13-.75-.42-.86-.55-.26.05-.43-.3-.63-.41-.17-.02-.36-.02-.52.05-.08-.07-.18-.09-.24-.19-.02-.18-.23-.14-.34-.22-.08-.04-.22.04-.28-.07l-.44-.15c-.12-.11-.29-.08-.42-.17-.05-.08-.09-.17-.2-.19-.01-.06-.32.25-.31.18l-.25-.27s-.09-.01-.12-.04c-.16.03-.22-.2-.36-.22,0,.04.01.09,0,.12h-.85l-.06.04c-.06.05-.15.04-.19-.04.03-.15-.28.05-.2.11-.07-.05-.29-.02-.37-.04-.2-.03-.27.08-.47.18-.04.02-.11.05-.13.09-.03.06.04.16-.05.19,0,.11-.14.05-.2.04v-.04c-.09,0-.17-.03-.24-.07-.39-.08-.64.14-1,.13-.17.27-.55.33-.83.41-.09.03-.15.12-.26.13-.4.08-.82.32-1.16.58-.11.08-.17.23-.29.26-.06.02-.12,0-.16.02,0,0-.15.06-.14.06-.08-.02-.22,0-.29.05-.06,0-.13-.02-.17-.08l.04-.04c.13-.02.05-.21.07-.31.05-.06.13-.1.14-.18.16-.1.15-.44.44-.32.21-.05.42-.06.58-.24.29-.11.5-.4.77-.54.13-.06.96-.23.9-.44.11.05.14-.1.24-.06.05.08.16.1.19.18.1.05.13-.08.22-.06.04-.06.14-.1.13-.18.11-.01.21.01.29.06.02.15.11-.03.19,0v-.04s.04-.02.07-.02c.04-.35.41-.12.62-.19-.04-.08.09-.1.07-.18h.3c.08.1.24.04.35.06.04-.07.11-.06.18-.06.08-.11.26-.04.38-.06.06.04.21-.05.25-.13l.8.08c.13.15.37.01.53.12.46,0,.88.13,1.27.32l.25.18c.16.06.35.07.48.18.7.15,1.25.67,1.87,1,.35.31.65.42.98.74.36.31.72.66,1,1.02.65.55,1.3,1.2,1.81,1.87.2.26.28.3.38.5.03.08.21.54.37.57.15.33.42.69.6,1.02.34.42.52,1,.9,1.37,0-.33-.37-.94-.47-1.41-.05-.14-.25-.22-.2-.4-.29-.28-.38-.64-.67-.91.03-.1-.04-.15-.05-.24-.1-.19-.28-.34-.32-.56-.16-.3-.53-.51-.64-.83-.42-.46-.68-1-1-1.5l-.09-.04c-.31-.15-.65-.69-.68-.65-.17-.09-.29-.27-.43-.4-.37-.3-.61-.6-.98-.9-.06-.2-.28-.22-.41-.33-.35-.24-.76-.29-1.04-.66-.14.01-.24-.02-.33-.11-.21-.04-.35-.23-.56-.26-.17-.15-.39-.21-.59-.26-.17-.18-.31.08-.52-.01-.08-.06-.16-.14-.19-.24-.05.07-.11.03-.15,0-.23.01-.43-.07-.59-.2-.18.03-.42-.1-.54.1l-.03-.05h-.48c-.21-.17-.43-.02-.67-.07-.24.04-.51.04-.76.08-.47-.04-.78.16-1.29.23-.16.02-.34-.03-.53.05-.22-.39-.01-.25.06-.43.06-.17-.03.14,0-.04h.11c.28,0,.47-.19.73-.23.26-.22.66-.12.95-.26.16.12.43,0,.6.1.35,0,.77.07,1.08-.09.14,0,.34.05.51.05v.06c.23-.02.44.03.65.1.29.05.59.09.83.27.25-.06.42.08.62.16.1.06.18.18.3.18.22.21.51.27.78.39.11.09.25.17.38.23-.04.02.15.04.12.05.01.18.24.13.24.29.16-.07.2.12.3.18.2-.03.29.13.39.27.46.41.67.55,1.13.95.48.58,1.2,1.05,1.58,1.67h.12c.31.22.3.57.44.87.17-.04.23.16.37.19.03.4.57.74.67,1.11.17.17.58.92.92,1.51.12.2.25.2.22,0Z"/>
    </g>
  </g>
  <g>
    <g>
      <g>
        <path class="cls-3" d="M83.3,25.55c4.47-1.41,5.9-3.46,6.04-6.34h-4.08c0,2.35-3.77,4.49-8.92,4.84v2.58c2.56-.14,5.17-.52,6.96-1.08Z"/>
        <path class="cls-3" d="M91.79,25.55c-4.47-1.41-5.89-3.46-6.04-6.34h4.08c0,2.35,3.76,4.49,8.92,4.84v2.58c-2.56-.14-5.17-.52-6.96-1.08Z"/>
      </g>
      <polygon class="cls-3" points="89.83 16.7 89.83 14.15 85.26 14.15 85.26 16.7 76.34 16.7 76.34 19.28 98.75 19.28 98.75 16.7 89.83 16.7"/>
      <polygon class="cls-3" points="100.53 28.14 74.56 28.14 74.56 30.7 85.26 30.7 85.26 33.92 89.83 33.92 89.83 30.7 100.53 30.7 100.53 28.14"/>
      <path class="cls-3" d="M87.55,32.38c-5.03,0-9.12,2.99-9.12,6.67s4.09,6.68,9.12,6.68,9.11-2.98,9.11-6.68-4.08-6.67-9.11-6.67ZM87.55,43.15c-2.51,0-4.54-1.83-4.54-4.1s2.03-4.1,4.54-4.1,4.54,1.85,4.54,4.1-2.03,4.1-4.54,4.1Z"/>
    </g>
    <g>
      <g>
        <path class="cls-3" d="M111.37,27.94c3.67-2.47,4.76-6.05,4.76-9.09h-4.56c0,4.31-1.69,7.19-6.18,8.88v2.58c1.49-.33,3.75-.88,5.98-2.37Z"/>
        <path class="cls-3" d="M116.4,27.7c-3.67-2.46-4.82-5.8-4.82-8.85h4.56c0,4.31,1.54,6.75,6.18,8.7v2.57c-1.49-.33-3.69-.93-5.93-2.42Z"/>
      </g>
      <polygon class="cls-3" points="116.14 16.7 116.14 14.15 111.57 14.15 111.57 16.7 105.54 16.7 105.54 19.28 122.17 19.28 122.17 16.7 116.14 16.7"/>
      <polygon class="cls-3" points="126.19 15.21 126.19 21.75 121.35 21.75 121.35 24.33 126.19 24.33 126.19 31.1 130.77 31.1 130.77 15.21 126.19 15.21"/>
      <path class="cls-3" d="M129.29,38.6c0-3.94-4.02-7.12-8.99-7.12s-9,3.19-9,7.12,4.03,7.13,9,7.13,8.99-3.2,8.99-7.13ZM120.29,34.05c2.44,0,4.43,2.04,4.43,4.56s-1.99,4.53-4.43,4.53-4.41-2.02-4.41-4.53,1.97-4.56,4.41-4.56Z"/>
    </g>
    <g>
      <polygon class="cls-3" points="162.39 30.31 136.42 30.31 136.42 32.87 147.12 32.87 147.12 36.17 151.68 36.17 151.68 32.87 162.39 32.87 162.39 30.31"/>
      <polygon class="cls-3" points="138.21 35.5 138.21 38.07 155.64 38.07 155.64 45.06 160.2 45.06 160.2 35.5 138.21 35.5"/>
      <path class="cls-3" d="M155.64,15.21v3.97h-12.45v-3.97h-4.58v9.45c0,2.32,1.29,3.24,3.31,3.24h18.28v-12.7h-4.56ZM143.19,25.34v-3.59h12.45v3.59h-12.45Z"/>
    </g>
    <g>
      <polygon class="cls-3" points="182.3 37.23 182.3 29.94 177.73 29.94 177.73 37.23 167.02 37.23 167.02 39.8 193 39.8 193 37.23 182.3 37.23"/>
      <path class="cls-3" d="M190.89,18.54v-2.58h-21.75v11.37c0,2.33,1.28,3.25,3.29,3.25h18.47v-2.58h-17.17v-9.47h17.17Z"/>
    </g>
  </g>
</svg>