<?xml version="1.0" encoding="UTF-8"?>
<svg id="_레이어_2" data-name="레이어 2" xmlns="http://www.w3.org/2000/svg" viewBox="0 0 183.03 40.46">
  <defs>
    <style>
      .cls-1 {
        fill: #9fa0a0;
      }

      .cls-2 {
        fill: #e77f32;
      }

      .cls-3 {
        fill: #595757;
      }

      .cls-4 {
        fill: #009fb5;
      }
    </style>
  </defs>
  <path class="cls-3" d="M170.67,3.45c-.49-.79-1.62-.79-2.12,0l-7.14,11.81,2.95,1.62,5.17-8.61,5.17,8.61,2.95-1.62-6.99-11.81h0ZM148.52,4.28c-1.23-1.77-3.35-2.95-5.81-2.95-3.74,0-6.84,2.85-6.84,6.35s3.1,6.3,6.84,6.3c1.72,0,3.25-.54,4.48-1.53h6.74v4.18h3.45V2.51h-3.45v1.77h-5.41ZM149.16,9.85c.39-.94.49-1.97.39-2.95h4.38v2.95h-4.77ZM142.71,4.28c1.92,0,3.5,1.53,3.5,3.4s-1.58,3.4-3.5,3.4-3.45-1.53-3.45-3.4,1.58-3.4,3.45-3.4h0ZM122.13,19.4c1.92,0,3.45,1.53,3.45,3.4s-1.53,3.4-3.45,3.4-3.45-1.53-3.45-3.4,1.53-3.4,3.45-3.4h0ZM122.13,16.49c-3.79,0-6.84,2.81-6.84,6.3s3.05,6.35,6.84,6.35,6.84-2.86,6.84-6.35c0-1.38-.49-2.66-1.28-3.69h2.36v-7.33h3.4v-2.66h-3.4V2.51h-3.4v10.39h-3.1V2.51h-14.18v2.61h10.78v7.78h-3.35v-3.94h-3.4v3.94h-4.53v2.61h17.77v2.56c-1.23-.98-2.81-1.58-4.53-1.58h0ZM54.49,11.08h6.35c-.69-.98-1.08-2.17-1.08-3.45,0-3.45,3.1-6.3,6.84-6.3s6.89,2.85,6.89,6.3c0,1.28-.44,2.46-1.13,3.45h6.6v2.51h-10.53v1.97h8.37v7.38h-16.79v2.12h16.79v2.61h-20.23v-7.38h16.79v-2.07h-16.79v-2.66h8.47v-1.97h-10.53v-2.51h0ZM66.6,4.28c-1.87,0-3.45,1.53-3.45,3.4s1.58,3.4,3.45,3.4,3.45-1.53,3.45-3.4-1.53-3.4-3.45-3.4h0ZM90.43,3.45c-.44-.79-1.58-.79-2.07,0l-7.14,11.81,2.95,1.62,5.17-8.61,5.17,8.61,2.95-1.62-7.04-11.81h0ZM153.93,20.82h-13.59v-2.61h17.03v9.45h-3.45v-6.84h0ZM87.82,25.06h15.06v2.61h-18.51v-9.45h3.45v6.84h0ZM102.88,9.55V2.51h-3.4v17.97h3.4v-8.27h3.4v-2.66h-3.4ZM179.63,2.51h3.4v25.15h-3.4V2.51Z"/>
  <g>
    <path class="cls-4" d="M25.99,0c.15,2.41-.89,3.2-2.36,3.35-1.28,0-2.07.34-2.66,1.03l-7.09,12.16c3.94.2,7.73,1.62,10.98,6.3,1.82,2.61,5.02,4.82,11.03,5.96-4.43.98-7.58-.89-12.8-2.51-4.18-1.28-10.58-1.82-14.96.2L0,40.46c5.56-4.63,15.56-5.81,22.69-3.1,8.22,3.1,16.15,4.04,24.86-.44l-5.96-10.09c-1.03.84-2.07,1.28-3.1,1.43l1.13-8.07c-3.64.39-6.79-.49-9.11-3.15-3.45-4.04-6.79-7.04-10.09-7.73.84-1.72,2.56-1.48,4.68-.74,1.53.49,4.23-.1,4.82-1.92l-3.94-6.65Z"/>
    <path class="cls-2" d="M15.19,17.14c2.16,0,3.87,1.72,3.92,3.87,0,2.11-1.72,3.87-3.87,3.87s-3.87-1.72-3.87-3.83,1.72-3.87,3.83-3.92Z"/>
  </g>
  <path class="cls-1" d="M55.28,32.83h1.77v3.69c0,.44.1.79.3,1.03.2.2.49.34.89.34s.74-.15.94-.39c.2-.2.34-.54.34-.98v-3.69h1.62v3.84c0,.79-.25,1.43-.74,1.82-.54.44-1.28.64-2.26.64s-1.67-.2-2.12-.64c-.49-.44-.74-1.08-.74-1.92v-3.74h0Z"/>
  <polygon class="cls-1" points="61.93 39.04 61.93 32.83 63.65 32.83 63.65 37.81 66.41 37.81 66.41 39.04 61.93 39.04 61.93 39.04"/>
  <path class="cls-1" d="M68.33,37.02v.05c0,.3.05.49.25.69.15.15.39.2.64.2.34,0,.59-.05.79-.15.15-.1.25-.3.25-.49,0-.34-.34-.59-1.08-.74-.2-.05-.3-.1-.39-.1-.84-.25-1.38-.49-1.67-.74-.3-.3-.39-.69-.39-1.18,0-.54.2-.98.69-1.33.49-.34,1.08-.49,1.87-.49.84,0,1.48.15,1.87.44.44.3.64.74.64,1.38v.1h-1.72v-.05c0-.25-.05-.44-.2-.59-.1-.1-.3-.2-.59-.2-.25,0-.44.05-.59.2-.15.1-.2.25-.2.44,0,.34.44.59,1.33.79.25.05.44.1.59.15.54.15.98.39,1.23.64.3.3.39.69.39,1.13,0,.64-.25,1.13-.74,1.48-.49.34-1.18.49-2.12.49-.84,0-1.48-.2-1.92-.54-.44-.34-.64-.89-.64-1.58h1.72Z"/>
  <polygon class="cls-1" points="79.55 39.04 79.55 32.83 82.01 32.83 83.98 37.22 83.98 32.83 85.46 32.83 85.46 39.04 83.05 39.04 81.03 34.46 81.03 39.04 79.55 39.04 79.55 39.04"/>
  <polygon class="cls-1" points="89.4 39.04 89.4 32.83 92.1 32.83 93.14 36.82 94.07 32.83 96.78 32.83 96.78 39.04 95.16 39.04 95.16 34.07 93.78 39.04 92.25 39.04 90.87 34.07 90.87 39.04 89.4 39.04 89.4 39.04"/>
  <polygon class="cls-1" points="97.67 39.04 97.67 32.83 102.24 32.83 102.24 34.02 99.34 34.02 99.34 35.3 102.1 35.3 102.1 36.48 99.34 36.48 99.34 37.81 102.34 37.81 102.34 39.04 97.67 39.04 97.67 39.04"/>
  <polygon class="cls-1" points="104.41 39.04 104.41 34.07 102.54 34.07 102.54 32.83 108 32.83 108 34.07 106.13 34.07 106.13 39.04 104.41 39.04 104.41 39.04"/>
  <path class="cls-1" d="M113.42,37.76c-.05-.49-.1-.79-.15-.89-.1-.3-.25-.54-.44-.69-.2-.15-.44-.2-.79-.2v-.05c.44-.05.84-.2,1.08-.49.25-.25.39-.59.39-1.03,0-.54-.2-.94-.59-1.18-.39-.3-.98-.39-1.72-.39h-2.81v6.2h1.67v-2.41h.69c.25,0,.44.05.59.15.1.1.2.3.25.49,0,.1.05.34.1.74.05.39.1.74.15,1.03h1.82c-.1-.39-.2-.79-.25-1.28ZM111.6,35.35c-.2.1-.44.15-.84.15h-.69v-1.53h.74c.34,0,.59.1.79.2.15.1.2.3.2.54,0,.3-.05.49-.2.64Z"/>
  <path class="cls-1" d="M119.52,33.57c-.54-.54-1.33-.84-2.31-.84s-1.77.3-2.36.84c-.54.54-.79,1.33-.79,2.36s.25,1.77.84,2.36c.54.54,1.33.84,2.31.84s1.77-.3,2.31-.84c.59-.59.84-1.38.84-2.36,0-1.03-.25-1.82-.84-2.36ZM118.24,37.36c-.25.34-.59.49-1.03.49s-.84-.15-1.03-.49c-.25-.34-.34-.79-.34-1.43s.1-1.13.34-1.48c.2-.3.59-.49,1.03-.49s.79.2,1.03.49c.25.34.34.84.34,1.48s-.1,1.08-.34,1.43Z"/>
  <path class="cls-1" d="M125.68,33.33c-.39-.34-.98-.49-1.82-.49h-2.86v6.2h1.72v-2.22h1.28c.74,0,1.28-.2,1.72-.54.39-.34.59-.84.59-1.48s-.2-1.13-.64-1.48ZM124.3,35.39c-.15.15-.44.2-.79.2h-.79v-1.62h.79c.34,0,.64.1.79.2.2.15.3.34.3.59,0,.3-.1.49-.3.64Z"/>
  <path class="cls-1" d="M132.22,33.57c-.59-.54-1.33-.84-2.36-.84s-1.77.3-2.31.84-.84,1.33-.84,2.36.3,1.77.84,2.36c.54.54,1.33.84,2.31.84,1.03,0,1.77-.3,2.36-.84.54-.59.84-1.38.84-2.36,0-1.03-.3-1.82-.84-2.36ZM130.89,37.36c-.2.34-.54.49-1.03.49-.44,0-.79-.15-1.03-.49-.25-.34-.34-.79-.34-1.43s.1-1.13.34-1.48c.25-.3.59-.49,1.03-.49.49,0,.84.2,1.03.49.25.34.39.84.39,1.48s-.15,1.08-.39,1.43Z"/>
  <polygon class="cls-1" points="133.7 39.04 133.7 32.83 135.42 32.83 135.42 37.81 138.18 37.81 138.18 39.04 133.7 39.04 133.7 39.04"/>
  <polygon class="cls-1" points="138.62 39.04 138.62 32.83 140.35 32.83 140.35 39.04 138.62 39.04 138.62 39.04"/>
  <polygon class="cls-1" points="142.56 39.04 142.56 34.07 140.69 34.07 140.69 32.83 146.15 32.83 146.15 34.07 144.28 34.07 144.28 39.04 142.56 39.04 142.56 39.04"/>
  <path class="cls-1" d="M149.9,32.83h-2.07l-2.41,6.2h1.72l.44-1.23h2.41l.44,1.23h1.92l-2.46-6.2ZM147.93,36.63l.89-2.61.79,2.61h-1.67Z"/>
  <polygon class="cls-1" points="152.75 39.04 152.75 32.83 155.21 32.83 157.13 37.22 157.13 32.83 158.61 32.83 158.61 39.04 156.25 39.04 154.23 34.46 154.23 39.04 152.75 39.04 152.75 39.04"/>
  <path class="cls-1" d="M168.31,37.02v.05c0,.64-.25,1.13-.74,1.53-.49.34-1.23.54-2.12.54-.94,0-1.72-.3-2.22-.84-.54-.49-.84-1.28-.84-2.26,0-1.08.3-1.87.84-2.46.54-.54,1.33-.84,2.36-.84.84,0,1.48.15,1.97.49.44.39.69.89.69,1.53h-1.72c-.05-.25-.15-.44-.3-.59-.2-.15-.44-.25-.74-.25-.44,0-.74.2-.98.54-.2.34-.3.89-.3,1.53s.1,1.13.3,1.43c.25.34.54.49.98.49.3,0,.54-.05.74-.25.2-.15.3-.34.3-.64h1.77Z"/>
  <polygon class="cls-1" points="168.95 39.04 168.95 32.83 170.67 32.83 170.67 39.04 168.95 39.04 168.95 39.04"/>
  <polygon class="cls-1" points="172.88 39.04 172.88 34.07 171.01 34.07 171.01 32.83 176.53 32.83 176.53 34.07 174.66 34.07 174.66 39.04 172.88 39.04 172.88 39.04"/>
  <polygon class="cls-1" points="178.69 39.04 180.47 39.04 180.47 36.87 182.83 32.83 181.06 32.83 179.68 35.49 178.35 32.83 176.33 32.83 178.69 36.82 178.69 39.04"/>
  <path class="cls-1" d="M76.74,32.83h-2.12l-2.41,6.2h1.72l.44-1.23h2.46l.39,1.23h1.92l-2.41-6.2ZM74.78,36.63l.84-2.61.79,2.61h-1.62Z"/>
</svg>