<?xml version="1.0" encoding="UTF-8"?>
<svg id="_레이어_2" data-name="레이어 2" xmlns="http://www.w3.org/2000/svg" xmlns:xlink="http://www.w3.org/1999/xlink" viewBox="0 0 166.09 92.17">
  <defs>
    <style>
      .cls-1 {
        fill: url(#linear-gradient-8);
      }

      .cls-2 {
        fill: url(#linear-gradient-7);
      }

      .cls-3 {
        fill: url(#linear-gradient-5);
      }

      .cls-4 {
        fill: url(#linear-gradient-6);
      }

      .cls-5 {
        fill: url(#linear-gradient-9);
      }

      .cls-6 {
        fill: url(#linear-gradient-4);
      }

      .cls-7 {
        fill: url(#linear-gradient-3);
      }

      .cls-8 {
        fill: url(#linear-gradient-2);
      }

      .cls-9 {
        fill: url(#linear-gradient);
      }

      .cls-10 {
        fill: url(#linear-gradient-10);
      }

      .cls-11 {
        fill: url(#linear-gradient-11);
      }

      .cls-12 {
        fill: url(#linear-gradient-12);
      }

      .cls-13 {
        fill: url(#linear-gradient-13);
      }

      .cls-14 {
        fill: url(#linear-gradient-14);
      }

      .cls-15 {
        fill: url(#linear-gradient-15);
      }

      .cls-16 {
        fill: url(#linear-gradient-16);
      }

      .cls-17 {
        fill: url(#linear-gradient-17);
      }

      .cls-18 {
        fill: url(#linear-gradient-18);
      }

      .cls-19 {
        fill: #535d64;
      }
    </style>
    <linearGradient id="linear-gradient" x1="-566.57" y1="-1286.14" x2="-580.51" y2="-1252.65" gradientTransform="translate(512.48 1003.03) scale(.77)" gradientUnits="userSpaceOnUse">
      <stop offset="0" stop-color="#54c3f1"/>
      <stop offset=".21" stop-color="#2bade8"/>
      <stop offset=".41" stop-color="#0b9de2"/>
      <stop offset=".52" stop-color="#0097e0"/>
      <stop offset="1" stop-color="#005bac"/>
    </linearGradient>
    <linearGradient id="linear-gradient-2" x1="-565.64" y1="-1285.75" x2="-579.58" y2="-1252.27" xlink:href="#linear-gradient"/>
    <linearGradient id="linear-gradient-3" x1="-731.84" y1="-1277.55" x2="-715.84" y2="-1247.99" gradientTransform="translate(618.69 1024.55) scale(.79)" xlink:href="#linear-gradient"/>
    <linearGradient id="linear-gradient-4" x1="-731.52" y1="-1277.72" x2="-715.52" y2="-1248.16" gradientTransform="translate(618.69 1024.55) scale(.79)" xlink:href="#linear-gradient"/>
    <linearGradient id="linear-gradient-5" x1="852.05" y1="-971.26" x2="868.57" y2="-961.26" gradientTransform="translate(-1306.4 1549.9) scale(1.56)" xlink:href="#linear-gradient"/>
    <linearGradient id="linear-gradient-6" x1="851.84" y1="-970.93" x2="868.36" y2="-960.93" gradientTransform="translate(-1306.4 1549.9) scale(1.56)" xlink:href="#linear-gradient"/>
    <linearGradient id="linear-gradient-7" x1="-548.68" y1="-1275.65" x2="-574.75" y2="-1257.72" gradientTransform="translate(545.36 993.75) rotate(-2.09) scale(.77)" xlink:href="#linear-gradient"/>
    <linearGradient id="linear-gradient-8" x1="-790.75" y1="-1242.3" x2="-748.49" y2="-1232.29" gradientTransform="translate(616.99 1024.75) scale(.79)" xlink:href="#linear-gradient"/>
    <linearGradient id="linear-gradient-9" x1="-790.8" y1="-1242.09" x2="-748.54" y2="-1232.08" gradientTransform="translate(616.99 1024.75) scale(.79)" xlink:href="#linear-gradient"/>
    <linearGradient id="linear-gradient-10" x1="846.05" y1="-967.84" x2="864.68" y2="-959.88" gradientTransform="translate(-1305.88 1549.64) scale(1.56)" xlink:href="#linear-gradient"/>
    <linearGradient id="linear-gradient-11" x1="846.09" y1="-967.92" x2="864.72" y2="-959.96" gradientTransform="translate(-1305.88 1549.64) scale(1.56)" xlink:href="#linear-gradient"/>
    <linearGradient id="linear-gradient-12" x1="839.49" y1="-965.53" x2="859.63" y2="-958.68" gradientTransform="translate(-1315.64 1539.51) rotate(.45) scale(1.56)" xlink:href="#linear-gradient"/>
    <linearGradient id="linear-gradient-13" x1="839.6" y1="-965.84" x2="859.73" y2="-959" gradientTransform="translate(-1315.64 1539.51) rotate(.45) scale(1.56)" xlink:href="#linear-gradient"/>
    <linearGradient id="linear-gradient-14" x1="-534.21" y1="-1243.97" x2="-567.42" y2="-1237.62" gradientTransform="translate(511.38 1002.39) scale(.77)" xlink:href="#linear-gradient"/>
    <linearGradient id="linear-gradient-15" x1="-542.72" y1="-1251.8" x2="-571.46" y2="-1242.79" gradientTransform="translate(511.38 1002.39) scale(.77)" xlink:href="#linear-gradient"/>
    <linearGradient id="linear-gradient-16" x1="-530.72" y1="-1236.69" x2="-562.48" y2="-1235.86" gradientTransform="translate(512.15 1002.39) scale(.77)" xlink:href="#linear-gradient"/>
    <linearGradient id="linear-gradient-17" x1="-747.35" y1="-1265.08" x2="-722.6" y2="-1243.41" gradientTransform="translate(618.69 1024.55) scale(.79)" xlink:href="#linear-gradient"/>
    <linearGradient id="linear-gradient-18" x1="-1648.87" y1="594.05" x2="-1647.15" y2="643.85" gradientTransform="translate(1500.98 -519.81) scale(.87)" xlink:href="#linear-gradient"/>
  </defs>
  <g>
    <g>
      <path class="cls-19" d="M50.91,73.64c.06-.06,7.45-7.32,7.45-7.32,0,0,7.39,7.26,7.45,7.32h5.35c-.33-.33-7.37-7.55-7.37-7.55h6.05v-3.58h-22.96v3.58h6.05s-7.05,7.22-7.37,7.55h5.35Z"/>
      <polygon class="cls-19" points="17.67 62.51 10.95 79.98 14.79 79.98 19.26 68.37 23.74 79.98 27.57 79.98 20.86 62.51 17.67 62.51"/>
      <path class="cls-19" d="M36.38,79.98h3.84v-17.47h-3.84v17.47Z"/>
      <path class="cls-19" d="M29.65,67.74c-.43-.52-1.08-.85-1.8-.85-1.29,0-2.34,1.04-2.34,2.33s1.05,2.33,2.34,2.33c.72,0,1.37-.33,1.8-.85v9.27h3.83v-17.47h-3.83v5.23Z"/>
      <path class="cls-19" d="M71.96,75.54h-11.86c.52-.47.86-1.15.86-1.91,0-1.43-1.16-2.59-2.6-2.59s-2.6,1.16-2.6,2.59c0,.76.33,1.44.86,1.91h-11.85v3.58h8.08c-1.35,1.38-2.19,3.27-2.19,5.36,0,4.24,3.45,7.68,7.71,7.68s7.71-3.44,7.71-7.68c0-2.09-.84-3.97-2.19-5.36h8.08v-3.58ZM58.36,88.34c-2.13,0-3.86-1.73-3.86-3.85s1.73-3.85,3.86-3.85,3.87,1.73,3.87,3.85-1.73,3.85-3.87,3.85Z"/>
    </g>
    <g>
      <path class="cls-19" d="M98.41,72.2v1.6h9.04v1.26h-9.04v4.87h11.42v-1.6h-9.04v-1.67h9.04v-4.46h-11.42Z"/>
      <path class="cls-19" d="M107.45,62.51v1.53h-2.96v-1.53h-2.38v1.96h-3.73v-1.96h-2.38v7.95h8.5v-1.48h2.96v2.1h2.38v-8.58h-2.38ZM98.38,68.77v-2.7h3.73v2.79h-3.73v-.09ZM104.49,67.3v-1.66h2.96v1.75h-2.96v-.09Z"/>
      <path class="cls-19" d="M78.67,73.46v1.6h10.2v4.98h2.38v-6.57h-12.59Z"/>
      <path class="cls-19" d="M78.67,62.51v7.13h12.59v-1.48h-10.2v-1.35h9.87v-1.48h-9.87v-1.35h10.2v-1.48h-12.59Z"/>
      <path class="cls-19" d="M163.7,62.51v17.4h2.38v-17.4h-2.38Z"/>
      <path class="cls-19" d="M126,62.51v17.4h2.38v-10.39h2.46v-1.6h-2.46v-5.42h-2.38Z"/>
      <path class="cls-19" d="M119.65,65.66v-1.16h3.72v-1.6h-9.91v1.6h3.72v1.16c0,3.5-1.39,5.89-3.99,6.87v1.89s3.69-.77,5.08-3.53l.15-.3.15.3c1.39,2.76,5.05,3.52,5.08,3.53v-1.89c-2.61-.98-3.99-3.37-4-6.87Z"/>
      <path class="cls-19" d="M145.33,62.51v17.4h2.38v-17.4h-2.38Z"/>
      <path class="cls-19" d="M138.99,62.18h0v1.44h4v1.6h-3.97v.5c0,4.14,1.71,6.04,4.38,7.05v1.94h-.01s-3.96-.83-5.5-3.62l-.15-.3-.15.3c-1.54,2.79-5.46,3.62-5.5,3.62h0s0,0,0,0v-1.94c2.67-1.01,4.38-2.91,4.38-7.05v-.5h-3.97v-1.6h4v-1.44h2.48Z"/>
      <path class="cls-19" d="M76.35,70.75v1.6h17.23v-1.6h-17.23Z"/>
      <path class="cls-19" d="M163.7,62.51v17.4h2.38v-17.4h-2.38Z"/>
      <path class="cls-19" d="M157.4,65.71v-3.2h-2.55v3.2c0,4.14-1.71,6.04-4.38,7.05v1.94h.01s3.96-.83,5.5-3.62l.15-.3.15.3c1.54,2.79,5.46,3.62,5.5,3.62h0v-1.94c-2.67-1.01-4.38-2.91-4.38-7.05Z"/>
    </g>
  </g>
  <g>
    <path class="cls-9" d="M79.53,25.22c-2.88-5.6-4.75-10.53-5.82-13.73-.52,2.92-1.81,9.6-3.72,16.3,1.57,2.73,3.12,4.9,4.46,6.8,1.84-2.77,3.73-6.03,5.08-9.37Z"/>
    <path class="cls-8" d="M73.21,36.4c-1.36-1.92-2.67-3.97-3.95-6.16-.95,3.07-2.04,6.04-3.23,8.55.57.84,1.44,2.03,2.64,3.43.71-.81,2.51-2.95,4.54-5.82Z"/>
    <path class="cls-7" d="M48.97,38.65c1.85,2.55,3.87,5.18,5.89,7.57,1.57-1,2.95-1.98,4.16-2.94-1.04-2.34-2.47-5.87-3.91-9.51-1.37,1.2-3.43,2.91-6.15,4.88Z"/>
    <path class="cls-6" d="M54.31,31.72c-1.74-4.44-3.37-8.75-4.21-10.96-2.65,2.74-5.36,5.27-8.1,7.59,1.24,1.98,3.32,5.17,5.81,8.68,2.93-2.17,5.11-4.04,6.51-5.31Z"/>
    <path class="cls-3" d="M35,47.24c3.15,1.49,6.51,2.95,9.72,4.11,1.26-.5,2.44-1.02,3.57-1.55-2.82-1.25-6.01-2.96-9.17-4.8-1.31.75-2.68,1.5-4.12,2.24Z"/>
    <path class="cls-4" d="M37.25,43.9c-3.25-1.95-6.36-3.97-8.86-5.69-1.72,1.05-3.41,2.03-5.08,2.93,2.31,1.32,5.74,3.19,9.61,5.1,1.51-.78,2.95-1.56,4.32-2.34Z"/>
    <path class="cls-2" d="M69.68,43.36c.86.94,1.86,1.94,2.99,2.97,6.03-2.6,11.31-6.62,14.25-9.09-1.72-2.35-3.26-4.72-4.63-7.04-4.93,6.31-11.27,11.98-12.61,13.15Z"/>
    <path class="cls-1" d="M4.41,49.41c-1.67.56-3.09.99-4.2,1.31h0s-.17.04-.2.11c-.02.05-.05.16.15.24,4,1.31,8.25,2.4,12.18,3.28,1.54-.44,3.04-.9,4.51-1.38-4.46-1.14-8.85-2.4-12.44-3.56Z"/>
    <path class="cls-5" d="M19.78,53.7c-1.38.47-2.79.91-4.23,1.33,3.75.76,7.01,1.29,9.21,1.58,1.63-.25,3.21-.53,4.72-.83-2.98-.54-6.32-1.26-9.71-2.09Z"/>
    <path class="cls-10" d="M30.47,47.46c-3.91-1.74-7.57-3.53-10.04-4.8-1.53.78-3.02,1.5-4.46,2.16,3.15,1.4,6.89,2.95,10.69,4.4,1.31-.57,2.58-1.16,3.81-1.75Z"/>
    <path class="cls-11" d="M29.03,50.1c3.5,1.28,6.95,2.44,9.95,3.28,1.27-.4,2.49-.81,3.65-1.24-2.95-.86-6.49-2.23-9.98-3.73-1.17.57-2.38,1.13-3.62,1.68Z"/>
    <path class="cls-12" d="M24.13,50.29c-4.45-1.48-8.64-2.97-11.46-4.01-1.64.69-3.19,1.31-4.62,1.84,3,1.04,7.32,2.46,11.89,3.78,1.44-.52,2.83-1.06,4.19-1.61Z"/>
    <path class="cls-13" d="M22.69,52.68c3.58.98,7.17,1.84,10.28,2.36,1.26-.3,2.48-.61,3.65-.94-3.01-.79-6.5-1.85-9.96-2.97-1.29.53-2.61,1.05-3.97,1.56Z"/>
    <path class="cls-14" d="M82.07,53.03c3.53-.27,10.03-1.04,16.63-3.18-1.24-1.03-2.43-2.1-3.58-3.2-3.32,1.25-9.55,3.52-16.4,4.37,1.05.69,2.16,1.36,3.35,2.01Z"/>
    <path class="cls-15" d="M77.24,50.01c2.88-.58,9.38-2.31,15.82-5.42-1.36-1.42-2.65-2.88-3.85-4.36-3.12,1.91-9.34,5.44-15.22,7.27.99.84,2.07,1.68,3.24,2.51Z"/>
    <path class="cls-16" d="M103.28,53.34c-.99-.69-1.96-1.41-2.9-2.14-1.9.63-8.12,2.5-16.37,2.83,1.2.59,2.47,1.15,3.8,1.68,3.54.16,8.95-.08,15.47-2,.12-.05.16-.09.16-.16,0-.11-.16-.21-.16-.21Z"/>
    <path class="cls-17" d="M38.31,31.35c-2.22,1.73-4.45,3.33-6.67,4.8,3.84,3.28,11.76,9.53,18.03,12.98,1.39-.69,2.68-1.4,3.88-2.11-3.89-3.55-12.03-12.23-15.23-15.67Z"/>
    <path class="cls-18" d="M54.51,15.95c1.8,8.39,4.55,21.59,5.56,26.49,2.22-1.86,3.77-3.54,4.78-4.79,3.24-17.89,2.37-36.18,2.37-36.18,0-.15-.02-1.29-.36-1.43-.46-.18-.73.33-.73.33,0,0-6.86,10.41-11.61,15.58Z"/>
  </g>
</svg>