<?xml version="1.0" encoding="UTF-8"?>
<svg id="_레이어_2" data-name="레이어 2" xmlns="http://www.w3.org/2000/svg" viewBox="0 0 734.75 187.48">
  <defs>
    <style>
      .cls-1 {
        fill: #b80d80;
      }

      .cls-2 {
        fill: #ed6ea7;
      }

      .cls-3 {
        fill: #565153;
      }

      .cls-4 {
        fill: #e6007d;
      }

      .cls-5 {
        fill: #154194;
      }
    </style>
  </defs>
  <g id="Layer_1" data-name="Layer 1">
    <g>
      <g>
        <path class="cls-3" d="M224.98,161.14h16.5l3.76,3.76v7.37l-1.5,1.54,2.67,2.71v6.88l-4.06,4.06h-17.36v-26.31ZM238.85,172.15l1.35-1.35v-4.06l-1.32-1.32h-8.91v6.73h8.87ZM239.75,183.16l1.62-1.62v-3.68l-1.62-1.62h-9.77v6.92h9.77Z"/>
        <path class="cls-3" d="M250.54,182.94v-21.8h5.11v20.03l1.92,1.92h7.37l1.92-1.92v-20.03h5.11v21.8l-4.51,4.51h-12.4l-4.51-4.51Z"/>
        <path class="cls-3" d="M276.66,183.39v-3.76h5.04v2.22l1.24,1.24h7.78l1.28-1.28v-4.36l-1.24-1.24h-9.96l-4.06-4.06v-6.95l4.06-4.06h11.88l4.06,4.06v3.8h-5.04v-2.25l-1.24-1.24h-7.44l-1.24,1.24v3.87l1.24,1.24h9.96l4.06,4.06v7.4l-4.13,4.13h-12.18l-4.06-4.06Z"/>
        <path class="cls-3" d="M308.15,161.14h4.66l9.62,26.31h-5.19l-2.14-5.83h-9.25l-2.14,5.83h-5.19l9.62-26.31ZM313.98,177.41l-3.5-10h-.08l-3.38,10h6.95Z"/>
        <path class="cls-3" d="M325.44,161.14h4.59l11.73,17.85h.07v-17.85h4.92v26.31h-4.59l-11.73-17.81h-.07v17.81h-4.92v-26.31Z"/>
        <path class="cls-3" d="M362.61,161.14h4.74l7.82,16.99h.07l7.85-16.99h4.74v26.31h-4.92v-16.01h-.07l-6.05,12.33h-3.16l-6.01-12.33h-.07v16.01h-4.92v-26.31Z"/>
        <path class="cls-3" d="M393.09,161.14h19.02v4.32h-13.9v6.65h12.81v4.25h-12.81v6.76h13.9v4.32h-19.02v-26.31Z"/>
        <path class="cls-3" d="M422.21,165.46h-7.85v-4.32h20.82v4.32h-7.85v21.99h-5.11v-21.99Z"/>
        <path class="cls-3" d="M459.23,178.73v8.72h-5.11v-7.55l-2.25-2.52h-8.19v10.07h-5.11v-26.31h16.5l4.02,4.06v7.97l-2.56,2.59,2.71,2.97ZM443.67,173.16h9.06l1.32-1.32v-5.11l-1.32-1.32h-9.06v7.74Z"/>
        <path class="cls-3" d="M463.93,183.12v-17.66l4.32-4.32h13.53l4.32,4.32v17.66l-4.32,4.32h-13.53l-4.32-4.32ZM479.07,183.09l1.92-1.92v-13.76l-1.92-1.92h-8.12l-1.92,1.92v13.76l1.92,1.92h8.12Z"/>
        <path class="cls-3" d="M490.99,161.14h16.5l4.02,4.06v9.21l-4.06,4.1h-11.35v8.94h-5.11v-26.31ZM505.16,174.22l1.32-1.32v-6.16l-1.32-1.32h-9.06v8.79h9.06Z"/>
        <path class="cls-3" d="M515.26,183.12v-17.66l4.32-4.32h13.53l4.32,4.32v17.66l-4.32,4.32h-13.53l-4.32-4.32ZM530.41,183.09l1.92-1.92v-13.76l-1.92-1.92h-8.12l-1.92,1.92v13.76l1.92,1.92h8.12Z"/>
        <path class="cls-3" d="M542.32,161.14h5.11v21.99h13.15v4.32h-18.27v-26.31Z"/>
        <path class="cls-3" d="M563.97,161.14h5.11v26.31h-5.11v-26.31Z"/>
        <path class="cls-3" d="M580.51,165.46h-7.85v-4.32h20.82v4.32h-7.85v21.99h-5.11v-21.99Z"/>
        <path class="cls-3" d="M600.84,161.14h4.66l9.62,26.31h-5.19l-2.14-5.83h-9.25l-2.14,5.83h-5.19l9.62-26.31ZM606.67,177.41l-3.5-10h-.08l-3.38,10h6.95Z"/>
        <path class="cls-3" d="M618.13,161.14h4.59l11.73,17.85h.07v-17.85h4.92v26.31h-4.59l-11.73-17.81h-.07v17.81h-4.92v-26.31Z"/>
        <path class="cls-3" d="M654.92,183.12v-17.66l4.32-4.32h12.85l4.25,4.25v4.02h-5.11v-2.14l-1.77-1.77h-7.52l-1.92,1.92v13.76l1.92,1.92h7.52l1.77-1.77v-2.14h5.11v4.02l-4.25,4.25h-12.85l-4.32-4.32Z"/>
        <path class="cls-3" d="M680.48,161.14h5.11v26.31h-5.11v-26.31Z"/>
        <path class="cls-3" d="M697.01,165.46h-7.85v-4.32h20.82v4.32h-7.85v21.99h-5.11v-21.99Z"/>
        <path class="cls-3" d="M720.28,176.7l-9.36-15.56h5.6l6.28,10.79h.08l6.28-10.79h5.6l-9.36,15.56v10.75h-5.11v-10.75Z"/>
      </g>
      <g>
        <g>
          <path class="cls-3" d="M302.33,89.85v-52.4h-13.15v16.07h-45.84v-16.07h-13.15v45.02l7.38,7.38h64.76ZM243.34,64.95h45.84v13.59h-45.84v-13.59Z"/>
          <polygon class="cls-3" points="214.69 110.85 259.68 110.85 259.68 140.04 272.83 140.04 272.83 110.85 317.36 110.85 317.36 99.42 214.69 99.42 214.69 110.85"/>
          <polygon class="cls-3" points="409.51 37.45 396.47 37.45 396.47 114.06 409.51 114.06 409.51 75.62 424.66 75.62 424.66 64.19 409.51 64.19 409.51 37.45"/>
          <polygon class="cls-3" points="352.7 104.62 339.55 104.62 339.55 132.66 346.93 140.04 411.81 140.04 411.81 128.61 352.7 128.61 352.7 104.62"/>
          <polygon class="cls-3" points="520.53 37.45 507.49 37.45 507.49 82.51 468.68 82.51 468.68 62.47 455.53 62.47 455.53 82.51 432.24 82.51 432.24 93.83 507.49 93.83 507.49 99.54 520.53 99.54 520.53 73.21 535.67 73.21 535.67 61.78 520.53 61.78 520.53 37.45"/>
          <polygon class="cls-3" points="557.02 103.32 557.02 114.75 619.68 114.75 619.68 140.04 632.83 140.04 632.83 110.7 625.45 103.32 557.02 103.32"/>
          <rect class="cls-3" x="721.7" y="37.45" width="13.04" height="102.59"/>
          <polygon class="cls-3" points="482.96 77.68 495.99 77.68 495.99 48.62 488.61 41.24 438.7 41.24 438.7 52.55 482.96 52.55 482.96 77.68"/>
          <path class="cls-3" d="M483.86,100.16c-24.3-.05-38.9,7.26-38.93,21.04-.03,13.79,14.56,21.14,38.84,21.19,24.3.05,38.9-7.26,38.93-21.04.03-13.79-14.56-21.14-38.84-21.19ZM483.79,131.14c-16.03-.02-25.66-3.46-25.64-9.9.02-6.43,9.66-9.85,25.7-9.83,16.03.02,25.66,3.46,25.64,9.9-.02,6.43-9.66,9.85-25.7,9.83Z"/>
          <path class="cls-3" d="M596.26,84.34h23.54v15.47h13.04v-62.36h-13.04v12.05h-24c-5.13-6.33-13.15-10.2-22.63-10.2-16.55,0-28.68,11.79-28.68,27.91s12.13,27.91,28.68,27.91c9.76,0,17.99-4.11,23.09-10.79ZM619.8,60.59v12.67h-18.55c.39-1.93.6-3.95.6-6.04,0-2.31-.26-4.52-.73-6.63h18.68ZM557.49,67.21c0-9.41,6.63-16.29,15.67-16.29s15.67,6.88,15.67,16.29-6.63,16.29-15.67,16.29-15.67-6.88-15.67-16.29Z"/>
          <polygon class="cls-3" points="685.56 39.58 671.77 39.58 671.77 80.66 642.9 113.15 652.82 121.96 678.64 92.9 704.46 121.96 714.38 113.15 685.56 80.71 685.56 39.58"/>
          <polygon class="cls-3" points="384.25 97.85 392.87 87.76 363.76 62.9 363.76 39.58 349.96 39.58 349.96 62.9 320.85 87.76 329.46 97.85 356.86 74.45 384.25 97.85"/>
        </g>
        <g>
          <polygon class="cls-5" points="0 187.48 140.61 187.48 187.48 140.61 0 187.48"/>
          <g>
            <polygon class="cls-1" points="0 0 0 46.87 140.61 0 0 0"/>
            <g>
              <polygon class="cls-2" points="124.99 109.37 187.48 46.87 140.61 0 0 46.87 124.99 109.37 124.99 109.37"/>
              <polygon class="cls-4" points="0 46.87 0 187.48 187.48 140.61 0 46.87"/>
            </g>
          </g>
        </g>
      </g>
    </g>
  </g>
</svg>