<?xml version="1.0" encoding="UTF-8"?>
<svg id="_레이어_2" data-name="레이어 2" xmlns="http://www.w3.org/2000/svg" viewBox="0 0 210.12 44.82">
  <defs>
    <style>
      .cls-1 {
        fill: #092a83;
      }

      .cls-2 {
        fill: #0c3388;
      }

      .cls-3 {
        fill: #00a33e;
      }
    </style>
  </defs>
  <g>
    <g>
      <path class="cls-3" d="M22.17,22.32L20.17.24c-3.63,1.26-6.24,4.71-6.24,8.77,0,.98.16,1.92.44,2.81-1.52-1.09-3.38-1.73-5.39-1.73-3.14,0-5.91,1.56-7.59,3.94l20.78,8.29Z"/>
      <path class="cls-3" d="M21.58,24.36L0,19.3c.05,3.84,2.5,7.4,6.36,8.68.93.31,1.88.45,2.81.47-1.51,1.1-2.7,2.66-3.34,4.57-.99,2.98-.38,6.1,1.35,8.44l14.41-17.11Z"/>
      <path class="cls-3" d="M23.38,25.39l-11.39,19.02c3.68,1.12,7.81-.13,10.21-3.41.58-.79,1-1.65,1.3-2.53.59,1.77,1.71,3.39,3.34,4.57,2.53,1.85,5.69,2.22,8.45,1.29l-11.91-18.94Z"/>
      <path class="cls-3" d="M24.37,22.32l20.4-8.69c-2.32-3.07-6.4-4.49-10.26-3.24-.93.3-1.78.74-2.54,1.29.57-1.78.61-3.75-.01-5.66-.96-2.98-3.3-5.14-6.08-6.01l-1.5,22.32Z"/>
      <path class="cls-3" d="M24.98,24.2l14.58,16.7c2.2-3.15,2.28-7.48-.1-10.76-.58-.79-1.26-1.46-2.01-2.02,1.87-.01,3.75-.59,5.38-1.77,2.54-1.84,3.87-4.73,3.83-7.64l-21.68,5.49Z"/>
    </g>
    <polygon class="cls-1" points="57.99 5.93 70.44 5.93 70.44 9.53 62.23 9.53 62.23 23.03 73.14 23.03 73.14 5.36 77.62 5.36 77.62 13.58 79.77 13.58 79.77 5.36 84.24 5.36 84.24 31.86 79.77 31.86 79.77 17.26 77.62 17.26 77.62 31.86 73.14 31.86 73.14 26.77 57.99 26.77 57.99 5.93"/>
    <g>
      <polygon class="cls-1" points="88.71 5.36 88.71 9.04 97.48 9.04 88.71 17.89 91.79 20.62 98.17 14.06 104.48 20.62 107.61 17.89 99.21 9.04 107.61 9.04 107.61 5.36 88.71 5.36"/>
      <polygon class="cls-1" points="91.42 22.23 91.42 31.86 115.28 31.86 115.28 27.88 95.59 27.88 95.59 22.23 91.42 22.23"/>
      <polygon class="cls-1" points="106.2 10.95 106.2 14.33 110.8 14.33 110.8 24.46 115.28 24.46 115.28 4.75 110.8 4.75 110.8 10.95 106.2 10.95"/>
    </g>
    <g>
      <polygon class="cls-1" points="120.8 5.36 120.8 9.04 135.27 9.04 135.27 14.33 130.3 14.33 130.3 10.95 125.83 10.95 125.83 14.33 120.05 14.33 120.05 17.89 142.57 17.89 142.57 19.61 147.11 19.61 147.11 12.8 150.79 12.8 150.79 9.04 147.11 9.04 147.11 4.75 142.57 4.75 142.57 14.33 139.69 14.33 139.69 5.36 120.8 5.36"/>
      <path class="cls-1" d="M134.78,18.85c-6.8,0-12.32,2.91-12.32,6.51s5.51,6.5,12.32,6.5,12.32-2.91,12.32-6.5-5.51-6.51-12.32-6.51ZM134.78,28.48c-4.17,0-7.55-1.4-7.55-3.12s3.38-3.12,7.55-3.12,7.55,1.4,7.55,3.12-3.38,3.12-7.55,3.12Z"/>
    </g>
    <g>
      <path class="cls-1" d="M176.24,4.76v2.96h-6.54c-1.76-1.57-4.33-2.56-7.2-2.56-5.32,0-9.63,3.42-9.63,7.63s4.31,7.63,9.63,7.63c3.07,0,5.8-1.14,7.56-2.91h6.18v2.84h4.17V4.76h-4.17ZM162.5,16.86c-2.87,0-5.2-1.82-5.2-4.08s2.33-4.08,5.2-4.08,5.2,1.83,5.2,4.08-2.33,4.08-5.2,4.08ZM176.24,14.09h-4.25c.09-.43.14-.86.14-1.31,0-.57-.08-1.12-.23-1.65h4.34v2.96Z"/>
      <polygon class="cls-1" points="155.51 21.92 155.51 25.42 176.24 25.42 176.24 31.81 180.41 31.81 180.41 21.92 155.51 21.92"/>
    </g>
    <g>
      <polygon class="cls-1" points="193.9 6.42 183.85 23.29 187.59 25.37 193.9 15.01 200.47 25.37 204.33 23.29 193.9 6.42"/>
      <rect class="cls-1" x="205.95" y="5.31" width="4.17" height="26.5"/>
    </g>
  </g>
  <g>
    <path class="cls-2" d="M59.33,42.18v-5h1.65c.75,0,1.29.22,1.63.67.34.45.51,1.07.51,1.88,0,.21-.02.44-.07.68-.08.41-.21.75-.4,1.01-.23.33-.53.55-.89.67-.2.06-.46.09-.77.09h-1.65ZM58.38,42.93h2.79c1.18,0,2.02-.49,2.5-1.48.28-.56.41-1.19.41-1.88,0-.9-.23-1.63-.7-2.21-.52-.64-1.26-.95-2.21-.95h-2.79v6.52Z"/>
    <path class="cls-2" d="M66.7,40.26l1.12-2.88,1.07,2.88h-2.19ZM64.7,42.93h.97l.76-1.95h2.74l.73,1.95h1.04l-2.53-6.52h-1.07l-2.63,6.52Z"/>
    <path class="cls-2" d="M71.76,36.41h5.09v.8h-4.17v1.98h3.86v.75h-3.86v2.22h4.23v.77h-5.16v-6.52Z"/>
    <path class="cls-2" d="M81.49,40.99c0,.55-.09.97-.26,1.28-.32.56-.94.84-1.84.84-.52,0-.97-.13-1.34-.4-.37-.27-.56-.74-.56-1.42v-.47h.89v.47c0,.36.08.63.25.82.17.18.43.27.78.27.5,0,.83-.16.98-.49.09-.2.14-.57.14-1.12v-4.36h.95v4.57Z"/>
    <path class="cls-2" d="M82.92,36.41h5.09v.8h-4.17v1.98h3.86v.75h-3.86v2.22h4.23v.77h-5.16v-6.52Z"/>
    <path class="cls-2" d="M92.31,42.33c-.88,0-1.51-.25-1.9-.74s-.59-1.11-.59-1.83c0-.91.23-1.59.68-2.06.46-.46,1.05-.7,1.77-.7s1.33.23,1.76.7c.43.47.64,1.09.64,1.86,0,.73-.19,1.37-.56,1.93-.37.56-.97.84-1.81.84ZM92.22,36.24c-1.18,0-2.07.4-2.67,1.2-.47.62-.7,1.38-.7,2.25,0,.97.27,1.78.82,2.41.61.66,1.46.99,2.53.99,1.15,0,2.03-.38,2.65-1.13.53-.64.79-1.45.79-2.42,0-.9-.23-1.63-.69-2.21-.59-.73-1.5-1.1-2.73-1.1Z"/>
    <path class="cls-2" d="M96.68,36.41h1.12l3.48,5.27v-5.27h.91v6.52h-1.07l-3.53-5.26v5.26h-.91v-6.52Z"/>
    <path class="cls-2" d="M108.81,36.41h1.36l2.01,5.51,1.99-5.51h1.35v6.52h-.91v-3.84c0-.13,0-.35.02-.66,0-.31.02-.64.02-.99l-2,5.49h-.94l-2.02-5.49v.2c0,.16,0,.4.02.73,0,.33.02.57.02.72v3.84h-.91v-6.52Z"/>
    <path class="cls-2" d="M116.92,36.41h5.09v.8h-4.17v1.98h3.86v.75h-3.86v2.22h4.23v.77h-5.16v-6.52Z"/>
    <path class="cls-2" d="M128.27,36.41v.77h-2.34v5.75h-.95v-5.75h-2.34v-.77h5.64Z"/>
    <path class="cls-2" d="M130.14,39.4v-2.22h2.22c.31,0,.56.04.74.13.35.17.52.48.52.95,0,.43-.12.73-.37.89-.25.17-.58.25-1.01.25h-2.1ZM129.19,42.93h.95v-2.8h2.06c.37,0,.64.04.81.12.3.14.46.43.49.86l.08,1.08c0,.26.02.43.04.52.02.09.04.16.07.21h1.17v-.14c-.15-.06-.25-.19-.31-.4-.04-.12-.06-.31-.07-.55l-.03-.88c-.02-.38-.09-.65-.23-.82-.14-.17-.34-.31-.62-.41.31-.15.55-.35.73-.6.17-.25.26-.57.26-.96,0-.75-.32-1.26-.96-1.54-.34-.14-.77-.22-1.29-.22h-3.16v6.52Z"/>
    <path class="cls-2" d="M139.09,42.33c-.88,0-1.51-.25-1.9-.74-.39-.5-.59-1.11-.59-1.83,0-.91.23-1.59.69-2.06.46-.46,1.04-.7,1.77-.7s1.33.23,1.76.7c.43.47.64,1.09.64,1.86,0,.73-.19,1.37-.56,1.93-.37.56-.98.84-1.81.84ZM139,36.24c-1.18,0-2.07.4-2.67,1.2-.47.62-.7,1.38-.7,2.25,0,.97.27,1.78.82,2.41.61.66,1.46.99,2.53.99,1.15,0,2.03-.38,2.65-1.13.53-.64.79-1.45.79-2.42,0-.9-.23-1.63-.69-2.21-.59-.73-1.5-1.1-2.73-1.1Z"/>
    <path class="cls-2" d="M147.77,38.29c0,.43-.13.72-.39.89-.26.17-.6.25-1.02.25h-1.86v-2.25h1.86c.36,0,.64.05.85.14.37.17.56.49.56.97ZM143.56,42.93h.95v-2.75h2.17c.69,0,1.21-.19,1.55-.57.34-.38.51-.82.51-1.33,0-.59-.19-1.05-.58-1.38-.38-.33-.88-.49-1.5-.49h-3.11v6.52Z"/>
    <path class="cls-2" d="M152.95,42.33c-.88,0-1.51-.25-1.9-.74-.39-.5-.59-1.11-.59-1.83,0-.91.23-1.59.68-2.06.46-.46,1.05-.7,1.77-.7s1.33.23,1.76.7c.43.47.64,1.09.64,1.86,0,.73-.19,1.37-.56,1.93-.37.56-.98.84-1.81.84ZM152.86,36.24c-1.18,0-2.07.4-2.67,1.2-.47.62-.7,1.38-.7,2.25,0,.97.27,1.78.82,2.41.61.66,1.46.99,2.53.99,1.15,0,2.03-.38,2.65-1.13.53-.64.79-1.45.79-2.42,0-.9-.23-1.63-.69-2.21-.59-.73-1.5-1.1-2.73-1.1Z"/>
    <path class="cls-2" d="M157.34,36.41h.95v5.75h3.49v.77h-4.44v-6.52Z"/>
    <path class="cls-2" d="M162.85,36.41h.95v6.52h-.95v-6.52Z"/>
    <path class="cls-2" d="M170.29,36.41v.77h-2.34v5.75h-.95v-5.75h-2.34v-.77h5.64Z"/>
    <path class="cls-2" d="M171.8,40.26l1.12-2.88,1.08,2.88h-2.19ZM169.79,42.93h.97l.76-1.95h2.74l.73,1.95h1.04l-2.53-6.52h-1.07l-2.63,6.52Z"/>
    <path class="cls-2" d="M176.76,36.41h1.12l3.48,5.27v-5.27h.91v6.52h-1.07l-3.53-5.26v5.26h-.91v-6.52Z"/>
    <path class="cls-2" d="M193.84,36.89c.48.43.75.92.8,1.48h-.92c-.1-.42-.31-.75-.61-1-.31-.24-.74-.36-1.29-.36-.68,0-1.22.23-1.64.68-.42.45-.62,1.14-.62,2.08,0,.77.19,1.39.56,1.86.38.48.94.71,1.68.71.68,0,1.21-.25,1.57-.75.19-.26.33-.61.42-1.04h.92c-.08.69-.35,1.26-.81,1.73-.55.56-1.29.83-2.22.83-.8,0-1.48-.23-2.02-.69-.72-.61-1.08-1.54-1.08-2.81,0-.96.27-1.75.81-2.36.58-.67,1.39-1,2.41-1,.87,0,1.55.22,2.04.65Z"/>
    <path class="cls-2" d="M196.04,36.41h.95v6.52h-.95v-6.52Z"/>
    <path class="cls-2" d="M203.48,36.41v.77h-2.34v5.75h-.95v-5.75h-2.34v-.77h5.64Z"/>
    <path class="cls-2" d="M203.73,36.41h1.11l2.01,3.13,2-3.13h1.11l-2.64,3.89v2.62h-.95v-2.62l-2.64-3.89Z"/>
  </g>
</svg>