<?xml version="1.0" encoding="UTF-8"?>
<svg id="_레이어_2" data-name="레이어 2" xmlns="http://www.w3.org/2000/svg" viewBox="0 0 176.6 42.86">
  <defs>
    <style>
      .cls-1 {
        fill: #008a84;
      }

      .cls-2 {
        fill: #fcc800;
      }

      .cls-3 {
        fill: #231815;
      }

      .cls-4 {
        fill: #0068b7;
      }

      .cls-5 {
        fill: #ee7800;
      }
    </style>
  </defs>
  <g>
    <g>
      <polygon class="cls-3" points="69.86 4.28 69.86 4.28 69.85 4.29 69.86 4.28"/>
      <path class="cls-3" d="M71.55,12.61c-.69-.43-4.92-3.12-5.62-3.6l-.08-.05.06-.06c1.4-1.44,3.26-3.66,3.8-4.65.19-.34.29-.65.29-.94,0-.2-.05-.4-.15-.56-.27-.48-.9-.72-1.85-.72h-12.67v2.17h9.6l-.03.09c-.01.06-1.55,5.45-11.9,11.5,0,0-.71.38-.38,1.02.32.65,1.18.19,1.18.19.53-.22,4.98-2.08,10.56-6.53l.05-.04c4.99,4.88,4.76,4.66,4.88,4.77,0,0,.83.75,1.72-.02.53-.46.81-.93.81-.93,0,0,.59-.94-.28-1.65Z"/>
      <path class="cls-3" d="M81.78,25.54v-2.16h-16.11v-6.38h-4.25v6.51c0,1.35.79,2.02,2.37,2.02h17.99Z"/>
      <polygon class="cls-3" points="81.19 19.67 81.19 .93 77.37 .93 77.37 6.9 71.73 6.9 71.73 9.06 77.37 9.06 77.37 19.67 81.19 19.67"/>
      <path class="cls-3" d="M106.12,15.82c-7.06,2.84-14.56,3.37-14.64,3.38-1.69.14-2.37-.74-2.38-.74-.4-.43-.46-1.2-.46-1.63v-8.14h10.88v-4.49h-10.9v-2.16h14.76v8.84h-10.93v5.41h.08c.06,0,6.5.02,13.06-1.95,0,0,.71-.2.94.37.28.66-.17,1.01-.41,1.11Z"/>
      <path class="cls-3" d="M153.6,12c0,1.55.8,2.2,2.69,2.2h17.43v-2.19h-16v-7.82h15.99v-2.19h-20.1v9.99Z"/>
      <path class="cls-3" d="M150.96,24.14h25.64v-2.16h-10.66v-5.36h-4.39v5.36h-10.59v2.16Z"/>
      <path class="cls-3" d="M138.24,10.12c-7.02,3.11-14.26,3.66-14.33,3.67-.81.08-1.43-.07-1.87-.45-.63-.55-.65-1.4-.65-1.41V1.99h3.73v8.78h.07s5.45.19,12.47-2.02c0,0,.66-.28.86.3.3.82-.28,1.07-.28,1.07Z"/>
      <path class="cls-3" d="M125.38,24.99c.43.39,1.1.59,1.86.54h16.67v-9.09h-19.07v7.27c0,.51.19.95.53,1.28ZM128.83,18.6h11.09v4.73h-11.09v-4.73Z"/>
      <polygon class="cls-3" points="108.5 25.55 112.31 25.55 112.31 10.9 116.61 10.9 116.61 8.74 112.31 8.74 112.31 .93 108.5 .93 108.5 25.55"/>
      <polygon class="cls-3" points="140.11 .93 140.11 14.6 143.92 14.6 143.92 8.57 148.22 8.57 148.22 6.4 143.92 6.4 143.92 .93 140.11 .93"/>
    </g>
    <g>
      <rect class="cls-2" width="42.65" height="42.86"/>
      <path class="cls-5" d="M24.22,12.9c0,1.61-1.32,2.91-2.95,2.91s-2.95-1.3-2.95-2.91,1.32-2.91,2.95-2.91,2.95,1.3,2.95,2.91Z"/>
      <path class="cls-1" d="M7.62,19.66l.7,1.05s4.99-3.26,10.25.55c0,0,3.23,2.28,3.65,2.77,0,0,3.3,2.91,7.16,2.5,0,0,5.75-.27,4.91-7.63,0,0-6.88-2.5-8,4.99,0,0,2.95,1.6,4.49-1.59l.63.48s-1.55,5.13-8.56,0c0,0-5.34-5.06-9.41-4.64,0,0-3.79,0-5.83,1.52Z"/>
      <path class="cls-4" d="M14.21,27.93c-.59.87-1.6,1.44-2.73,1.44-1.82,0-3.3-1.46-3.3-3.26s1.48-3.25,3.3-3.25c0,0,3.02-.77,7.72,2.77,0,0,8.49,7.35,15.1,2.15v4.51s-7.23,4.16-14.81-1.53c0,0-1.62-1.39-3.3-2.29,0,0-1.05-.48-1.61-.48l-.35-.05Z"/>
    </g>
  </g>
  <g>
    <g>
      <path class="cls-3" d="M79.47,40.91c-.44-.72-.66-1.63-.66-2.73s.22-2,.66-2.73c.44-.73.99-1.09,1.65-1.09s1.22.37,1.66,1.09c.44.72.66,1.63.66,2.73s-.22,2.01-.66,2.73c-.44.72-.99,1.08-1.66,1.08s-1.21-.36-1.65-1.08ZM83.97,41.3c.69-.77,1.04-1.81,1.04-3.13s-.35-2.36-1.04-3.13c-.69-.77-1.64-1.15-2.84-1.15s-2.15.38-2.84,1.15c-.69.77-1.04,1.81-1.04,3.13s.35,2.37,1.04,3.13c.69.77,1.64,1.15,2.84,1.15s2.14-.38,2.84-1.15Z"/>
      <path class="cls-3" d="M91.69,30.36v9.94c0,.69.05,1.1.16,1.23.11.13.47.22,1.07.26h.14v.46h-4.24v-.46h.14c.6-.05.95-.13,1.07-.27.11-.13.16-.54.16-1.22v-7.99c0-.68-.05-1.09-.16-1.22-.12-.13-.47-.22-1.07-.27h-.14v-.47h2.87Z"/>
      <path class="cls-3" d="M99.19,30.36v9.94c0,.69.05,1.1.16,1.23.11.13.47.22,1.07.26h.14v.46h-4.25v-.46h.15c.6-.05.96-.13,1.07-.27.11-.13.17-.54.17-1.22v-7.99c0-.68-.06-1.09-.17-1.22-.11-.13-.47-.22-1.07-.27h-.15v-.47h2.87Z"/>
      <path class="cls-3" d="M105.87,41.49c-.45,0-.83-.15-1.14-.47-.3-.31-.45-.71-.45-1.19,0-.63.24-1.13.73-1.5.49-.36,1.17-.54,2.03-.54h.35v3.1c-.58.4-1.09.6-1.52.6ZM109.12,42.35c.28,0,.6-.06.95-.19l-.05-.56c-.16.04-.3.07-.4.07-.27,0-.47-.14-.59-.4-.11-.26-.17-.73-.17-1.38v-3.65c0-1.63-.88-2.45-2.65-2.45-.89,0-1.85.23-2.89.68v1.49h1v-.14c.06-.53.19-.87.4-1.04.35-.28.75-.42,1.2-.42.97,0,1.46.65,1.46,1.94v1.02h-.3c-1.64,0-2.79.28-3.48.83-.6.48-.9,1.11-.9,1.89,0,.66.23,1.21.69,1.65.45.44,1.03.66,1.72.66.86,0,1.73-.43,2.61-1.32.19.88.66,1.32,1.39,1.32Z"/>
      <path class="cls-3" d="M122.1,42.42l-6.73-9.34v7.23c0,.69.06,1.1.17,1.22.11.13.47.22,1.08.27h.14v.46h-3.44v-.46h.14c.61-.05.97-.14,1.08-.27.11-.13.17-.54.17-1.22v-7.23c0-.69-.06-1.1-.17-1.23-.11-.13-.46-.21-1.07-.25h-.15v-.48h2.46l6.2,8.64v-6.69c0-.69-.06-1.09-.17-1.22-.12-.13-.47-.22-1.08-.25h-.13v-.48h3.43v.46h-.14c-.61.05-.97.14-1.08.27-.11.13-.16.54-.16,1.22v9.34h-.54Z"/>
      <path class="cls-3" d="M131.46,41.58c-.45,0-.83-.15-1.14-.46-.3-.31-.46-.71-.46-1.19,0-.63.24-1.13.73-1.5.49-.36,1.17-.54,2.03-.54h.35v3.09c-.58.4-1.09.59-1.52.59ZM134.71,42.45c.28,0,.6-.06.96-.19l-.05-.55c-.16.04-.3.07-.4.07-.28,0-.48-.14-.59-.4-.11-.26-.17-.73-.17-1.38v-3.65c0-1.63-.88-2.45-2.65-2.45-.89,0-1.85.23-2.89.68v1.49h1v-.14c.06-.53.19-.88.4-1.04.34-.28.75-.42,1.2-.42.97,0,1.46.65,1.46,1.94v1.02h-.31c-1.63,0-2.79.28-3.47.83-.6.48-.9,1.11-.9,1.89,0,.66.23,1.21.69,1.65.46.44,1.03.66,1.72.66.86,0,1.73-.43,2.61-1.32.2.88.66,1.32,1.4,1.32Z"/>
      <path class="cls-3" d="M142.06,35.6c.43-.57.88-1,1.34-1.28.47-.28.95-.43,1.47-.43.59,0,1.07.14,1.42.43.35.28.58.71.67,1.28.47-.57.95-1,1.44-1.28.49-.28.97-.43,1.46-.43,1.47,0,2.2.81,2.2,2.41v4c0,.69.05,1.1.16,1.22.11.13.46.22,1.08.27h.14v.46h-4.24v-.46h.14c.61-.05.97-.14,1.08-.27.11-.13.16-.54.16-1.22v-3.74c0-.65-.08-1.1-.25-1.35-.17-.25-.47-.38-.9-.38-.36,0-.74.11-1.13.32-.39.21-.8.53-1.24.95v4.19c0,.68.06,1.09.17,1.22.11.14.47.22,1.08.27h.14v.46h-4.25v-.46h.14c.62-.05.97-.13,1.08-.27.11-.13.16-.54.16-1.23v-3.74c0-.64-.08-1.09-.25-1.35-.16-.25-.45-.38-.87-.38-.39,0-.79.11-1.18.32-.4.21-.8.53-1.21.95v4.19c0,.69.06,1.1.16,1.23.11.13.47.22,1.07.26h.14v.46h-4.25v-.46h.14c.6-.05.96-.13,1.07-.27.11-.13.17-.54.17-1.22v-4.26c0-.68-.06-1.09-.17-1.22-.11-.13-.47-.22-1.07-.27h-.14v-.47h2.87v1.52Z"/>
      <path class="cls-3" d="M161.66,40.22c-.31.43-.67.75-1.05.96-.38.22-.8.32-1.25.32-.66,0-1.16-.29-1.5-.87-.33-.58-.49-1.46-.49-2.61s.17-1.92.52-2.46c.34-.55.85-.82,1.53-.82.36,0,.73.07,1.11.21.37.14.75.36,1.13.65v4.61ZM164.53,42.26v-.46h-.14c-.62-.05-.97-.13-1.08-.27-.11-.13-.16-.54-.16-1.23v-9.94h-2.86v.46h.14c.61.05.97.13,1.08.26.11.13.16.54.16,1.23v2.7c-.34-.37-.71-.66-1.12-.84-.41-.19-.84-.29-1.32-.29-1.04,0-1.86.41-2.49,1.23-.62.82-.94,1.91-.94,3.28,0,1.24.28,2.21.82,2.95.54.73,1.27,1.09,2.2,1.09.58,0,1.12-.14,1.6-.43.48-.29.89-.71,1.25-1.29v1.52h2.87Z"/>
      <path class="cls-3" d="M170.61,40.91c-.44-.72-.66-1.63-.66-2.73s.22-2,.66-2.73c.43-.73.98-1.09,1.64-1.09s1.22.37,1.65,1.09c.44.72.66,1.63.66,2.73s-.22,2.01-.66,2.73c-.44.72-.99,1.08-1.65,1.08s-1.21-.36-1.65-1.08ZM175.1,41.3c.69-.77,1.04-1.81,1.04-3.13s-.35-2.36-1.04-3.13c-.69-.77-1.64-1.15-2.84-1.15s-2.14.38-2.84,1.15c-.69.77-1.04,1.81-1.04,3.13s.34,2.37,1.04,3.13c.69.77,1.64,1.15,2.84,1.15s2.15-.38,2.84-1.15Z"/>
    </g>
    <g>
      <path class="cls-3" d="M56.47,42.11v-1.93h1.01v.17s.04.53.04.53c0,.56.36.84,1.07.84.44,0,.81-.15,1.09-.45.28-.3.43-.69.43-1.16v-1.01s0-7.62,0-7.62c-.03-.7-.1-1.11-.2-1.2-.09-.09-.51-.15-1.24-.19h-.16v-.46h5.02v.44h-.16c-.71.05-1.12.13-1.25.25-.13.12-.19.51-.19,1.15v6.76c0,1.46-.3,2.5-.9,3.11-.6.61-1.62.91-3.07.91-.46,0-.95-.05-1.48-.14Z"/>
      <path class="cls-3" d="M74.35,41.59c-1.08.35-2.07.53-2.97.53-1.38,0-2.5-.38-3.36-1.14-.86-.76-1.29-1.76-1.29-2.97s.39-2.11,1.16-2.85c.77-.74,1.76-1.11,2.97-1.11,1.12,0,1.98.31,2.58.93.6.62.9,1.5.9,2.65v.13h-5.73c0,1.2.26,2.11.76,2.72.51.61,1.27.92,2.27.92,1.05,0,1.95-.18,2.7-.53v.72ZM68.65,37.32h3.89v-.31c0-.9-.13-1.54-.42-1.94-.28-.4-.74-.6-1.38-.6s-1.15.26-1.53.77c-.38.52-.57,1.21-.57,2.08Z"/>
    </g>
  </g>
</svg>