<svg xmlns="http://www.w3.org/2000/svg" width="20" height="20" viewBox="0 0 20 20" fill="none">
  <path d="M8.75016 14.1666C11.7417 14.1666 14.1668 11.7415 14.1668 8.74992C14.1668 5.75838 11.7417 3.33325 8.75016 3.33325C5.75862 3.33325 3.3335 5.75838 3.3335 8.74992C3.3335 11.7415 5.75862 14.1666 8.75016 14.1666Z" stroke="#111111" stroke-width="1.66667" stroke-miterlimit="10"/>
  <path d="M16.0774 17.2559C16.4028 17.5814 16.9305 17.5814 17.2559 17.2559C17.5814 16.9305 17.5814 16.4028 17.2559 16.0774L16.6667 16.6667L16.0774 17.2559ZM12.5 12.5L11.9107 13.0893L16.0774 17.2559L16.6667 16.6667L17.2559 16.0774L13.0893 11.9107L12.5 12.5Z" fill="#111111"/>
</svg>