<svg xmlns="http://www.w3.org/2000/svg" width="33" height="32" viewBox="0 0 33 32" fill="none">
  <path d="M32.2036 16C32.2036 7.16 25.0436 0 16.2036 0C7.36361 0 0.203613 7.16 0.203613 16C0.203613 20.99 2.49361 25.45 6.07361 28.38C7.27361 23.91 11.3536 20.61 16.2036 20.61C21.0536 20.61 25.1236 23.91 26.3336 28.38C29.9136 25.45 32.2036 20.99 32.2036 16Z" fill="#C6C6CD"/>
  <path d="M16.2037 20.6201C11.3537 20.6201 7.28373 23.9201 6.07373 28.3901C8.83373 30.6501 12.3537 32.0101 16.2037 32.0101C20.0537 32.0101 23.5737 30.6501 26.3337 28.3901C25.1337 23.9201 21.0537 20.6201 16.2037 20.6201Z" fill="#F1F1F5"/>
  <path d="M22.2036 13.4199C22.2036 16.7299 19.5136 19.4199 16.2036 19.4199C12.8936 19.4199 10.2036 16.7299 10.2036 13.4199C10.2036 10.1099 12.8936 7.41992 16.2036 7.41992C19.5136 7.41992 22.2036 10.1099 22.2036 13.4199Z" fill="#F1F1F5"/>
</svg>