<svg width="48" height="49" viewBox="0 0 48 49" fill="none" xmlns="http://www.w3.org/2000/svg">
<path d="M27.4125 23.8065C27.2564 23.2023 26.9509 22.6321 26.4723 22.1535C25.9938 21.675 25.427 21.3729 24.8228 21.2168C23.6281 20.9113 22.3112 21.2235 21.3812 22.1535C19.976 23.5587 19.976 25.8395 21.3812 27.2447C22.7863 28.6499 25.0672 28.6499 26.4723 27.2447C27.4023 26.3147 27.7112 24.9944 27.4125 23.8065Z" fill="#6A5AFF"/>
<path d="M27.8158 20.8101C28.1892 21.1834 28.8001 21.1834 29.1735 20.8101L37.6452 12.3384C38.0185 11.965 38.0185 11.3541 37.6452 10.9807C37.2718 10.6074 36.6609 10.6074 36.2875 10.9807L27.8158 19.4524C27.4425 19.8258 27.4425 20.4367 27.8158 20.8101Z" fill="#6A5AFF"/>
<path d="M9.41703 12.1578C3.21599 19.3025 3.21938 30.0991 9.41703 37.2403C9.7225 37.5933 10.0449 37.9293 10.3708 38.2552C10.6966 38.581 11.0292 38.9001 11.3856 39.2089C18.5268 45.4066 29.3235 45.41 36.4681 39.2089C43.6127 33.0079 45.0925 22.0585 40.0082 14.252C39.6891 13.7633 39.0001 13.692 38.586 14.1061L38.5249 14.1672C38.2127 14.4794 38.1753 14.9648 38.4129 15.3313C42.9678 22.3775 41.8817 32.0304 35.1376 37.8173C28.3935 43.6043 19.0529 43.3124 12.6448 37.7664C12.3224 37.4847 12.0169 37.1996 11.7182 36.9009C11.4196 36.6022 11.1311 36.3002 10.8527 35.9743C5.30676 29.5662 5.01487 20.2257 10.8018 13.4815C16.5888 6.73745 26.2484 5.65133 33.2878 10.2062C33.6544 10.4438 34.1397 10.4065 34.452 10.0942L34.5131 10.0331C34.9272 9.61905 34.8559 8.93004 34.3672 8.61099C26.5641 3.52322 15.6147 5.00306 9.41024 12.1511L9.41703 12.1578Z" fill="#B6AFFF"/>
<path d="M30.9186 12.0051C25.41 8.97419 18.3468 9.78539 13.6765 14.4557C8.01853 20.1137 8.01853 29.2914 13.6765 34.9493C19.3345 40.6073 28.5122 40.6073 34.1702 34.9493C38.8405 30.279 39.6517 23.2159 36.6207 17.7072C36.3288 17.1778 35.6025 17.0895 35.1748 17.5172L35.1103 17.5817C34.8252 17.8668 34.754 18.3046 34.9474 18.6542C37.5643 23.4297 36.8583 29.5527 32.8159 33.5951C27.9148 38.4962 19.9387 38.4962 15.0308 33.5951C10.1263 28.6906 10.1297 20.711 15.0308 15.8099C19.0698 11.7709 25.1961 11.0616 29.9716 13.6784C30.3212 13.8719 30.7591 13.8006 31.0442 13.5155L31.1087 13.451C31.5363 13.0234 31.4481 12.297 30.9186 12.0051Z" fill="#958AFF"/>
<path d="M26.5706 17.2693C26.8999 17.3881 27.2664 17.2999 27.5142 17.0521L27.5855 16.9808C28.0573 16.509 27.8842 15.6911 27.2529 15.467C23.7332 14.2078 19.6433 15.0122 16.8669 17.8904C13.3302 21.5561 13.2216 27.4686 16.6293 31.2565C16.7481 31.3888 16.8703 31.511 16.9959 31.6366C17.1214 31.7622 17.2436 31.8844 17.376 32.0032C21.1638 35.4109 27.0798 35.2988 30.742 31.7656C33.6202 28.9892 34.4246 24.8993 33.1654 21.3796C32.9414 20.7483 32.1234 20.5752 31.6516 21.047L31.5804 21.1182C31.3326 21.366 31.2443 21.7326 31.3631 22.0618C32.4662 25.181 31.5566 28.8602 28.6207 31.0494C25.7866 33.164 21.7951 33.0893 19.0289 30.8865C18.7879 30.693 18.5707 30.4894 18.3569 30.2756C18.1465 30.0651 17.9394 29.8445 17.746 29.6035C15.5432 26.8373 15.4685 22.8458 17.583 20.0118C19.7722 17.0759 23.4515 16.1662 26.5706 17.2693Z" fill="#6A5AFF"/>
</svg>
