<svg width="44" height="33" viewBox="0 0 44 33" fill="none" xmlns="http://www.w3.org/2000/svg">
<circle cx="16" cy="16.5" r="16" fill="#B6AFFF"/>
<circle cx="22" cy="16.5" r="16" fill="#958AFF"/>
<circle cx="28" cy="16.5" r="16" fill="#6A5AFF"/>
<path d="M24.7 24.5C24.0373 24.5 23.5 23.9627 23.5 23.3V11.5C23.5 10.3954 24.3954 9.5 25.5 9.5L28.1489 9.5C31.6934 9.5 34.0711 11.3854 34.06 14.1823C34.0711 17 31.6934 18.8854 28.1489 18.8854H25.9V23.3C25.9 23.9627 25.3627 24.5 24.7 24.5ZM25.9 16.8135H28.1711C30.3489 16.8239 31.6267 15.8294 31.6378 14.1823C31.6267 12.5352 30.3489 11.5615 28.1711 11.5718H25.9V16.8135Z" fill="white"/>
</svg>
